<svg width="308" height="232" viewBox="0 0 308 232" fill="none" xmlns="http://www.w3.org/2000/svg">
<path d="M307.387 198.103H15.9606C15.826 198.103 15.6969 198.049 15.6018 197.954C15.5066 197.859 15.4531 197.73 15.4531 197.595C15.4531 197.461 15.5066 197.332 15.6018 197.237C15.6969 197.141 15.826 197.088 15.9606 197.088H307.387C307.522 197.088 307.651 197.141 307.746 197.237C307.841 197.332 307.895 197.461 307.895 197.595C307.892 197.729 307.838 197.857 307.743 197.951C307.649 198.046 307.521 198.1 307.387 198.103Z" fill="#14142B"/>
<path d="M259.551 9.70898H62.6914V157.402H259.551V9.70898Z" fill="white"/>
<path d="M259.561 157.93H62.6508C62.5109 157.93 62.3766 157.874 62.2776 157.775C62.1786 157.676 62.123 157.542 62.123 157.402V9.70915C62.123 9.64031 62.1367 9.57216 62.1634 9.50869C62.19 9.44521 62.2291 9.38769 62.2782 9.33949C62.3274 9.29128 62.3856 9.25337 62.4496 9.22796C62.5136 9.20255 62.582 9.19016 62.6508 9.19151H259.561C259.698 9.19151 259.83 9.24604 259.927 9.34312C260.024 9.4402 260.079 9.57186 260.079 9.70915V157.402C260.08 157.471 260.067 157.539 260.042 157.603C260.017 157.667 259.979 157.725 259.931 157.774C259.882 157.824 259.825 157.863 259.761 157.889C259.698 157.916 259.63 157.93 259.561 157.93ZM63.2294 156.915H259.023V10.237H63.2192L63.2294 156.915Z" fill="#14142B"/>
<path d="M112.467 144.196H97.3231C97.1939 144.196 97.07 144.145 96.9786 144.054C96.8873 143.962 96.8359 143.838 96.8359 143.709V71.5224C96.8385 71.394 96.8907 71.2715 96.9815 71.1807C97.0723 71.0899 97.1947 71.0378 97.3231 71.0352H112.467C112.595 71.0378 112.718 71.0899 112.809 71.1807C112.899 71.2715 112.952 71.394 112.954 71.5224V143.709C112.954 143.838 112.903 143.962 112.811 144.054C112.72 144.145 112.596 144.196 112.467 144.196ZM97.8103 143.232H112.02V72.0096H97.8103V143.232Z" fill="#D9DBE9"/>
<path d="M140.399 144.196H125.255C125.126 144.196 125.002 144.145 124.91 144.054C124.819 143.962 124.768 143.838 124.768 143.709V101.374C124.77 101.246 124.823 101.125 124.914 101.036C125.005 100.946 125.127 100.896 125.255 100.896H140.399C140.526 100.896 140.648 100.946 140.74 101.036C140.831 101.125 140.883 101.246 140.886 101.374V143.709C140.886 143.838 140.834 143.962 140.743 144.054C140.652 144.145 140.528 144.196 140.399 144.196ZM125.742 143.232H139.952V101.861H125.742V143.232Z" fill="#D9DBE9"/>
<path d="M168.332 144.197H153.188C153.125 144.197 153.062 144.184 153.003 144.159C152.945 144.135 152.892 144.099 152.847 144.053C152.803 144.008 152.768 143.954 152.744 143.895C152.721 143.836 152.71 143.773 152.711 143.709V81.9264C152.711 81.7999 152.761 81.6785 152.851 81.589C152.94 81.4996 153.062 81.4493 153.188 81.4493H168.332C168.395 81.448 168.459 81.4593 168.518 81.4827C168.577 81.5061 168.63 81.541 168.676 81.5854C168.721 81.6298 168.757 81.6829 168.782 81.7414C168.806 81.8 168.819 81.8629 168.819 81.9264V143.709C168.82 143.774 168.809 143.838 168.785 143.897C168.761 143.957 168.725 144.012 168.679 144.057C168.634 144.103 168.58 144.138 168.52 144.162C168.46 144.186 168.396 144.198 168.332 144.197ZM153.675 143.232H167.885V82.4136H153.675V143.232Z" fill="#D9DBE9"/>
<path d="M196.265 144.197H181.122C181.058 144.197 180.995 144.184 180.937 144.159C180.878 144.135 180.825 144.099 180.781 144.053C180.736 144.008 180.701 143.954 180.678 143.895C180.655 143.836 180.643 143.773 180.645 143.71V117.208C180.645 117.08 180.695 116.958 180.784 116.867C180.873 116.776 180.994 116.723 181.122 116.721H196.265C196.395 116.721 196.519 116.772 196.61 116.863C196.701 116.955 196.753 117.079 196.753 117.208V143.71C196.754 143.774 196.742 143.838 196.718 143.898C196.694 143.957 196.659 144.012 196.613 144.057C196.568 144.103 196.513 144.138 196.454 144.162C196.394 144.186 196.33 144.198 196.265 144.197ZM181.609 143.232H195.819V117.695H181.609V143.232Z" fill="#D9DBE9"/>
<path d="M224.207 144.197H209.063C208.999 144.198 208.935 144.186 208.875 144.162C208.816 144.138 208.761 144.103 208.716 144.057C208.67 144.012 208.635 143.957 208.611 143.897C208.587 143.838 208.575 143.774 208.576 143.709V81.9264C208.576 81.8629 208.589 81.8 208.614 81.7414C208.638 81.6829 208.674 81.6298 208.72 81.5854C208.765 81.541 208.819 81.5061 208.878 81.4827C208.937 81.4593 209 81.448 209.063 81.4493H224.207C224.334 81.4493 224.455 81.4996 224.545 81.589C224.634 81.6785 224.684 81.7999 224.684 81.9264V143.709C224.686 143.773 224.674 143.836 224.651 143.895C224.628 143.954 224.593 144.008 224.548 144.053C224.504 144.099 224.451 144.135 224.392 144.159C224.334 144.184 224.271 144.197 224.207 144.197ZM209.541 143.232H223.751V82.4136H209.541V143.232Z" fill="#D9DBE9"/>
<path d="M223.843 46.7865H198.224C198.09 46.7865 197.961 46.733 197.865 46.6378C197.77 46.5427 197.717 46.4136 197.717 46.279C197.717 46.1444 197.77 46.0153 197.865 45.9201C197.961 45.825 198.09 45.7715 198.224 45.7715H223.843C223.977 45.7715 224.107 45.825 224.202 45.9201C224.297 46.0153 224.35 46.1444 224.35 46.279C224.35 46.4136 224.297 46.5427 224.202 46.6378C224.107 46.733 223.977 46.7865 223.843 46.7865Z" fill="#D9DBE9"/>
<path d="M223.842 52.44H198.223C198.154 52.4501 198.084 52.4451 198.017 52.4255C197.949 52.4059 197.887 52.3721 197.834 52.3264C197.782 52.2806 197.739 52.2241 197.71 52.1605C197.681 52.0969 197.666 52.0278 197.666 51.9579C197.666 51.888 197.681 51.8189 197.71 51.7553C197.739 51.6918 197.782 51.6352 197.834 51.5894C197.887 51.5437 197.949 51.5099 198.017 51.4903C198.084 51.4707 198.154 51.4657 198.223 51.4758H223.842C223.911 51.4657 223.982 51.4707 224.049 51.4903C224.116 51.5099 224.178 51.5437 224.231 51.5894C224.284 51.6352 224.326 51.6918 224.355 51.7553C224.384 51.8189 224.399 51.888 224.399 51.9579C224.399 52.0278 224.384 52.0969 224.355 52.1605C224.326 52.2241 224.284 52.2806 224.231 52.3264C224.178 52.3721 224.116 52.4059 224.049 52.4255C223.982 52.4451 223.911 52.4501 223.842 52.44Z" fill="#D9DBE9"/>
<path d="M214.901 58.1439H198.224C198.09 58.1439 197.961 58.0904 197.865 57.9953C197.77 57.9001 197.717 57.771 197.717 57.6364C197.717 57.5018 197.77 57.3727 197.865 57.2775C197.961 57.1824 198.09 57.1289 198.224 57.1289H214.901C215.035 57.1289 215.164 57.1824 215.26 57.2775C215.355 57.3727 215.408 57.5018 215.408 57.6364C215.408 57.771 215.355 57.9001 215.26 57.9953C215.164 58.0904 215.035 58.1439 214.901 58.1439Z" fill="#D9DBE9"/>
<path d="M124.221 34.1099H98.6023C98.5331 34.12 98.4626 34.1151 98.3955 34.0955C98.3284 34.0758 98.2663 34.042 98.2134 33.9963C98.1605 33.9506 98.1181 33.894 98.089 33.8304C98.06 33.7668 98.0449 33.6977 98.0449 33.6278C98.0449 33.5579 98.06 33.4888 98.089 33.4252C98.1181 33.3617 98.1605 33.3051 98.2134 33.2594C98.2663 33.2136 98.3284 33.1798 98.3955 33.1602C98.4626 33.1406 98.5331 33.1356 98.6023 33.1457H124.221C124.29 33.1356 124.361 33.1406 124.428 33.1602C124.495 33.1798 124.557 33.2136 124.61 33.2594C124.663 33.3051 124.705 33.3617 124.734 33.4252C124.763 33.4888 124.778 33.5579 124.778 33.6278C124.778 33.6977 124.763 33.7668 124.734 33.8304C124.705 33.894 124.663 33.9506 124.61 33.9963C124.557 34.042 124.495 34.0758 124.428 34.0955C124.361 34.1151 124.29 34.12 124.221 34.1099Z" fill="#D9DBE9"/>
<path d="M115.308 39.763H98.6012C98.4667 39.763 98.3376 39.7096 98.2424 39.6144C98.1472 39.5192 98.0938 39.3901 98.0938 39.2555C98.0938 39.1209 98.1472 38.9919 98.2424 38.8967C98.3376 38.8015 98.4667 38.748 98.6012 38.748H115.308C115.443 38.748 115.572 38.8015 115.667 38.8967C115.762 38.9919 115.816 39.1209 115.816 39.2555C115.816 39.3901 115.762 39.5192 115.667 39.6144C115.572 39.7096 115.443 39.763 115.308 39.763Z" fill="#D9DBE9"/>
<path d="M190.541 91.5786C182.624 91.5786 175.651 82.6466 170.028 75.4401C166.272 70.629 162.72 66.092 160.202 66.092H160.142C157.401 66.1732 153.737 68.2945 149.839 70.5478C144.663 73.5928 138.786 76.9322 133.315 76.6378C123.064 76.0796 103.636 53.2319 102.865 52.2778C102.82 52.2334 102.784 52.1805 102.76 52.1221C102.735 52.0637 102.723 52.0011 102.723 51.9378C102.723 51.8745 102.735 51.8118 102.76 51.7535C102.784 51.6951 102.82 51.6422 102.865 51.5978C102.965 51.5162 103.094 51.4769 103.223 51.4883C103.351 51.4996 103.471 51.5608 103.555 51.6587C103.748 51.8921 123.531 75.1559 133.366 75.6837C138.552 75.9882 144.297 72.6387 149.362 69.7155C153.351 67.4115 157.127 65.2191 160.111 65.1277H160.213C163.197 65.1277 166.556 69.4313 170.789 74.8514C176.331 81.8854 183.141 90.6245 190.541 90.6245H190.987C197.656 90.2997 200.782 84.5954 204.101 78.5562C207.146 72.9229 210.384 67.107 216.697 65.8991C216.824 65.8753 216.955 65.9025 217.061 65.9748C217.168 66.047 217.241 66.1585 217.266 66.2848C217.29 66.4113 217.262 66.5421 217.19 66.6486C217.118 66.7551 217.006 66.8286 216.88 66.8532C211.013 67.9697 207.928 73.5928 204.954 79.0332C201.655 85.042 198.245 91.2132 191.038 91.5989L190.541 91.5786Z" fill="#D9DBE9"/>
<path d="M237.158 144.196H85.0808C85.0116 144.206 84.9411 144.201 84.874 144.181C84.8069 144.162 84.7448 144.128 84.6919 144.082C84.639 144.036 84.5966 143.98 84.5675 143.916C84.5385 143.853 84.5234 143.784 84.5234 143.714C84.5234 143.644 84.5385 143.575 84.5675 143.511C84.5966 143.448 84.639 143.391 84.6919 143.345C84.7448 143.3 84.8069 143.266 84.874 143.246C84.9411 143.227 85.0116 143.222 85.0808 143.232H237.158C237.274 143.248 237.38 143.306 237.457 143.395C237.533 143.484 237.575 143.597 237.575 143.714C237.575 143.831 237.533 143.944 237.457 144.033C237.38 144.121 237.274 144.179 237.158 144.196Z" fill="#D9DBE9"/>
<path d="M103.596 54.8869C102.994 54.8869 102.405 54.7083 101.904 54.3737C101.403 54.0391 101.013 53.5635 100.783 53.0071C100.552 52.4507 100.492 51.8385 100.609 51.2478C100.727 50.6572 101.017 50.1146 101.443 49.6887C101.868 49.2629 102.411 48.9729 103.002 48.8554C103.592 48.7379 104.205 48.7982 104.761 49.0287C105.317 49.2591 105.793 49.6494 106.128 50.1502C106.462 50.6509 106.641 51.2396 106.641 51.8419C106.641 52.6495 106.32 53.424 105.749 53.995C105.178 54.5661 104.403 54.8869 103.596 54.8869ZM103.596 49.8119C103.194 49.8119 102.802 49.9309 102.468 50.154C102.134 50.3771 101.874 50.6941 101.72 51.065C101.567 51.436 101.526 51.8441 101.605 52.2379C101.683 52.6317 101.876 52.9934 102.16 53.2773C102.444 53.5612 102.806 53.7545 103.2 53.8329C103.594 53.9112 104.002 53.871 104.373 53.7174C104.744 53.5637 105.061 53.3035 105.284 52.9697C105.507 52.6359 105.626 52.2434 105.626 51.8419C105.623 51.3053 105.408 50.7915 105.028 50.413C104.647 50.0345 104.132 49.822 103.596 49.822V49.8119Z" fill="#D9DBE9"/>
<path d="M216.828 69.3595C216.226 69.3595 215.637 69.1809 215.136 68.8464C214.636 68.5118 214.245 68.0362 214.015 67.4798C213.785 66.9234 213.724 66.3112 213.842 65.7205C213.959 65.1298 214.249 64.5872 214.675 64.1614C215.101 63.7355 215.643 63.4455 216.234 63.328C216.825 63.2105 217.437 63.2708 217.993 63.5013C218.55 63.7318 219.025 64.1221 219.36 64.6228C219.695 65.1236 219.873 65.7123 219.873 66.3145C219.873 67.1221 219.552 67.8966 218.981 68.4677C218.41 69.0387 217.636 69.3595 216.828 69.3595ZM216.828 64.2845C216.427 64.2845 216.034 64.4036 215.7 64.6267C215.367 64.8497 215.106 65.1667 214.953 65.5377C214.799 65.9086 214.759 66.3168 214.837 66.7106C214.916 67.1043 215.109 67.4661 215.393 67.75C215.677 68.0339 216.038 68.2272 216.432 68.3055C216.826 68.3839 217.234 68.3437 217.605 68.19C217.976 68.0364 218.293 67.7762 218.516 67.4423C218.739 67.1085 218.858 66.716 218.858 66.3145C218.853 65.7797 218.637 65.2685 218.257 64.8922C217.876 64.5159 217.363 64.3048 216.828 64.3048V64.2845Z" fill="#D9DBE9"/>
<path d="M259.551 9.70898H62.6914V21.6352H259.551V9.70898Z" fill="white"/>
<path d="M259.561 22.1632H62.6508C62.582 22.1646 62.5136 22.1522 62.4496 22.1268C62.3856 22.1013 62.3274 22.0634 62.2782 22.0152C62.2291 21.967 62.19 21.9095 62.1634 21.846C62.1367 21.7825 62.123 21.7144 62.123 21.6456V9.70915C62.123 9.64031 62.1367 9.57216 62.1634 9.50869C62.19 9.44521 62.2291 9.38769 62.2782 9.33949C62.3274 9.29128 62.3856 9.25337 62.4496 9.22796C62.5136 9.20255 62.582 9.19016 62.6508 9.19151H259.561C259.698 9.19151 259.83 9.24604 259.927 9.34312C260.024 9.4402 260.079 9.57186 260.079 9.70915V21.605C260.084 21.6763 260.075 21.748 260.051 21.8155C260.028 21.8831 259.991 21.9451 259.942 21.9975C259.893 22.05 259.834 22.0918 259.769 22.1203C259.703 22.1488 259.632 22.1634 259.561 22.1632ZM63.2294 21.1482H259.023V10.237H63.2192L63.2294 21.1482Z" fill="#14142B"/>
<path d="M233.027 0.583984H149.117V59.4743H233.027V0.583984Z" fill="white"/>
<path d="M233.028 59.9916H149.118C148.979 59.9916 148.847 59.9374 148.748 59.8406C148.649 59.7438 148.593 59.6122 148.59 59.474V0.603972C148.59 0.534661 148.603 0.466026 148.63 0.40199C148.657 0.337954 148.695 0.279769 148.744 0.230758C148.793 0.181747 148.852 0.142871 148.916 0.116347C148.98 0.0898225 149.048 0.0761719 149.118 0.0761719H233.028C233.097 0.0761586 233.165 0.0898744 233.228 0.116521C233.292 0.143168 233.349 0.18221 233.397 0.231358C233.446 0.280507 233.483 0.338776 233.509 0.402757C233.534 0.466737 233.547 0.535144 233.545 0.603972V59.474C233.545 59.6113 233.491 59.7429 233.394 59.84C233.297 59.9371 233.165 59.9916 233.028 59.9916ZM149.645 58.9766H232.5V1.12162H149.645V58.9766Z" fill="#14142B"/>
<path d="M173.285 16.0718L188.743 31.5201C188.821 31.6068 188.916 31.6755 189.023 31.7211C189.13 31.7667 189.246 31.7882 189.362 31.784C197.117 31.784 204.878 31.784 212.646 31.784H213.032C212.904 35.4432 211.898 39.018 210.099 42.207C208.3 45.396 205.761 48.1057 202.695 50.1077C199.629 52.1096 196.127 53.345 192.484 53.7098C188.841 54.0746 185.163 53.5581 181.761 52.2038C178.36 50.8494 175.333 48.697 172.938 45.928C170.542 43.159 168.847 39.8546 167.996 36.2934C167.145 32.7322 167.163 29.0186 168.048 25.4657C168.933 21.9128 170.66 18.6248 173.082 15.8789L173.285 16.0718Z" fill="#6A96FF"/>
<path d="M190.986 8.11523V30.161H191.21H212.525C212.992 30.161 212.992 30.161 212.961 29.6738C212.698 25.4796 211.292 21.4373 208.897 17.9844C206.501 14.5316 203.207 11.7996 199.37 10.0843C197.028 9.06507 194.536 8.43427 191.991 8.21674L190.986 8.11523Z" fill="#D9DBE9"/>
<path d="M189.363 29.8659V8.13477C186.799 8.26817 184.272 8.79891 181.872 9.70801C179.003 10.8462 176.386 12.5359 174.168 14.6815L189.363 29.8659Z" fill="#D9DBE9"/>
<path d="M224.359 42.9193H214.605C214.471 42.9193 214.341 42.8658 214.246 42.7707C214.151 42.6755 214.098 42.5464 214.098 42.4118C214.098 42.2772 214.151 42.1481 214.246 42.0529C214.341 41.9578 214.471 41.9043 214.605 41.9043H224.359C224.494 41.9043 224.623 41.9578 224.718 42.0529C224.813 42.1481 224.867 42.2772 224.867 42.4118C224.867 42.5464 224.813 42.6755 224.718 42.7707C224.623 42.8658 224.494 42.9193 224.359 42.9193Z" fill="#D9DBE9"/>
<path d="M224.359 47.2845H214.605C214.471 47.2845 214.341 47.2311 214.246 47.1359C214.151 47.0407 214.098 46.9116 214.098 46.777C214.098 46.6424 214.151 46.5133 214.246 46.4182C214.341 46.323 214.471 46.2695 214.605 46.2695H224.359C224.494 46.2695 224.623 46.323 224.718 46.4182C224.813 46.5133 224.867 46.6424 224.867 46.777C224.867 46.9116 224.813 47.0407 224.718 47.1359C224.623 47.2311 224.494 47.2845 224.359 47.2845Z" fill="#D9DBE9"/>
<path d="M221.446 51.638H214.605C214.471 51.638 214.341 51.5846 214.246 51.4894C214.151 51.3942 214.098 51.2651 214.098 51.1305C214.098 50.9959 214.151 50.8669 214.246 50.7717C214.341 50.6765 214.471 50.623 214.605 50.623H221.446C221.581 50.623 221.71 50.6765 221.805 50.7717C221.9 50.8669 221.954 50.9959 221.954 51.1305C221.954 51.2651 221.9 51.3942 221.805 51.4894C221.71 51.5846 221.581 51.638 221.446 51.638Z" fill="#D9DBE9"/>
<path d="M172.432 6.71422H161.957C161.822 6.71422 161.693 6.66075 161.598 6.56557C161.503 6.4704 161.449 6.34132 161.449 6.20672C161.449 6.07212 161.503 5.94304 161.598 5.84786C161.693 5.75269 161.822 5.69922 161.957 5.69922H172.432C172.566 5.69922 172.695 5.75269 172.79 5.84786C172.886 5.94304 172.939 6.07212 172.939 6.20672C172.939 6.34132 172.886 6.4704 172.79 6.56557C172.695 6.66075 172.566 6.71422 172.432 6.71422Z" fill="#D9DBE9"/>
<path d="M172.432 9.52672H161.957C161.822 9.52672 161.693 9.47325 161.598 9.37808C161.503 9.2829 161.449 9.15382 161.449 9.01922C161.449 8.88462 161.503 8.75554 161.598 8.66036C161.693 8.56519 161.822 8.51172 161.957 8.51172H172.432C172.566 8.51172 172.695 8.56519 172.79 8.66036C172.886 8.75554 172.939 8.88462 172.939 9.01922C172.939 9.15382 172.886 9.2829 172.79 9.37808C172.695 9.47325 172.566 9.52672 172.432 9.52672Z" fill="#D9DBE9"/>
<path d="M169.305 12.3275H161.957C161.822 12.3275 161.693 12.274 161.598 12.1789C161.503 12.0837 161.449 11.9546 161.449 11.82C161.449 11.6854 161.503 11.5563 161.598 11.4611C161.693 11.366 161.822 11.3125 161.957 11.3125H169.305C169.44 11.3125 169.569 11.366 169.664 11.4611C169.759 11.5563 169.813 11.6854 169.813 11.82C169.813 11.9546 169.759 12.0837 169.664 12.1789C169.569 12.274 169.44 12.3275 169.305 12.3275Z" fill="#D9DBE9"/>
<path d="M66.5469 205.238C66.5469 205.238 67.1153 217.601 67.6837 217.905C68.2521 218.21 76.2401 218.92 77.6611 216.789L78.6761 207.958L66.5469 205.238Z" fill="white"/>
<path d="M71.7853 218.808C70.3403 218.861 68.8949 218.711 67.4918 218.361C67.1772 218.199 66.6595 217.925 66.081 205.268C66.0762 205.187 66.0902 205.107 66.1219 205.033C66.1536 204.959 66.2022 204.893 66.2637 204.841C66.3232 204.787 66.3951 204.749 66.473 204.729C66.5509 204.71 66.6324 204.71 66.7103 204.73L78.8193 207.45C78.9457 207.477 79.0574 207.55 79.1326 207.655C79.2077 207.76 79.2408 207.89 79.2253 208.018L78.2103 216.839C78.2052 216.922 78.1771 217.003 78.1291 217.072C77.1953 218.422 74.2924 218.808 71.7853 218.808ZM68.0501 217.498C69.2275 217.783 75.8453 218.199 77.1851 216.605L78.1189 208.394L67.1366 205.917C67.2392 209.791 67.5441 213.657 68.0501 217.498Z" fill="#14142B"/>
<path d="M27.745 212.902C27.745 212.902 26.4153 219.641 26.8924 220.118C27.3694 220.595 33.8147 221.133 34.8601 220.869C35.9056 220.605 38.1792 218.403 38.1792 218.403L40.2701 209.775L27.745 212.902Z" fill="white"/>
<path d="M33.7828 221.458C31.5194 221.458 27.1244 221.093 26.5154 220.443C26.3226 220.24 25.8455 219.773 27.2259 212.759C27.2476 212.662 27.2961 212.572 27.366 212.5C27.436 212.428 27.5245 212.378 27.6218 212.353L40.1367 209.227C40.2241 209.207 40.3151 209.208 40.4019 209.231C40.4886 209.254 40.5683 209.298 40.6341 209.359C40.6985 209.423 40.7453 209.502 40.7702 209.589C40.7951 209.676 40.7972 209.768 40.7762 209.857L38.6853 218.514C38.6626 218.611 38.6134 218.699 38.5432 218.768C38.2996 219.002 36.1376 221.052 35.0008 221.356C34.5992 221.431 34.1912 221.465 33.7828 221.458ZM27.3173 219.773C29.7528 220.254 32.2354 220.455 34.7166 220.372C35.8422 219.787 36.8696 219.03 37.7616 218.129L39.6089 210.496L28.2409 213.328C27.7562 215.447 27.4472 217.603 27.3173 219.773Z" fill="#14142B"/>
<path d="M31.5597 118.881C31.5597 118.881 29.2861 177.295 25.7031 212.718C25.7031 212.718 31.7931 216.778 43.2017 213.408C43.2017 213.408 54.59 168.84 53.0168 131.498C53.0168 131.498 64.1006 180.695 63.7149 211.622C69.3538 211.898 74.9736 210.779 80.0767 208.364C80.0767 208.364 77.7016 136.644 73.4386 117.288C69.1756 97.9319 69.0132 100.601 69.0132 100.601L34.2291 111.523L31.5597 118.881Z" fill="#14142B"/>
<path d="M34.5244 215.288C28.7084 215.288 25.6025 213.258 25.3894 213.136C25.3137 213.085 25.253 213.015 25.2137 212.933C25.1744 212.851 25.158 212.76 25.1661 212.669C28.7084 177.662 31.0023 119.451 31.0226 118.863C31.013 118.812 31.013 118.761 31.0226 118.71L33.7225 111.352C33.75 111.278 33.7933 111.212 33.8495 111.158C33.9057 111.103 33.9732 111.062 34.0473 111.037L68.5573 100.166C68.6029 100.106 68.6609 100.055 68.7273 100.018C68.7938 99.9817 68.8673 99.9594 68.943 99.9531C69.5317 99.9531 70.0291 99.8618 73.8455 117.208C78.0679 136.381 80.4734 207.645 80.4937 208.365C80.4993 208.461 80.4763 208.557 80.4275 208.64C80.3787 208.723 80.3064 208.79 80.2197 208.832C75.0615 211.291 69.3717 212.425 63.665 212.131C63.5358 212.121 63.4154 212.061 63.3286 211.965C63.2418 211.869 63.1951 211.743 63.1981 211.613C63.5026 187.071 56.4687 150.551 53.6571 136.95C53.9921 172.729 43.8015 213.075 43.6898 213.532C43.669 213.617 43.6262 213.696 43.5657 213.76C43.5052 213.824 43.429 213.871 43.3447 213.897C40.488 214.788 37.5165 215.256 34.5244 215.288ZM26.242 212.425C27.4904 213.105 33.2252 215.765 42.7865 212.984C43.7406 209.147 53.9515 166.811 52.5102 131.499C52.5041 131.371 52.5468 131.246 52.6297 131.148C52.7125 131.05 52.8294 130.987 52.9568 130.972C53.0824 130.956 53.2094 130.988 53.3127 131.061C53.4159 131.134 53.4881 131.244 53.515 131.367C53.6267 131.855 64.4872 180.463 64.2334 211.126C69.5144 211.285 74.7604 210.219 79.5599 208.01C79.3772 202.732 77.0021 135.783 72.9421 117.36C70.3031 105.414 69.2881 102.054 68.8821 101.12L34.6563 111.94L32.0579 118.995C31.9666 121.471 29.7031 177.976 26.242 212.425Z" fill="#14142B"/>
<path d="M42.3509 37.1737C41.8637 35.0117 40.666 33.2558 40.1686 31.0837C39.6302 28.6975 39.7318 26.2115 40.463 23.8772C40.7161 22.9165 41.2206 22.0407 41.9246 21.3397C42.6046 20.7205 43.305 21.0352 44.0764 20.8017C44.8478 20.5683 45.0914 20.2435 45.7207 19.7867C47.1621 18.6924 48.8745 18.0117 50.6739 17.8176C52.9794 17.4515 55.3392 17.6429 57.5556 18.3759C58.6678 18.7458 59.6922 19.3403 60.5652 20.1225C61.4382 20.9047 62.1412 21.8579 62.6306 22.9231C63.6456 25.2474 63.0873 27.724 63.0569 30.1499C63.0013 32.531 62.0562 34.805 60.4077 36.5241C58.7833 38.1813 56.67 39.2735 54.3786 39.6401C52.0993 39.9956 49.7744 39.9337 47.5172 39.4574C46.3138 39.2927 45.1529 38.9 44.0967 38.3003C43.0411 37.6101 42.6351 38.3511 42.3509 37.1737Z" fill="white"/>
<path d="M51.6065 40.3606C50.2024 40.3466 48.8026 40.2039 47.4247 39.9343C46.1586 39.7484 44.9374 39.3322 43.8214 38.7061C43.5996 38.5546 43.3389 38.47 43.0703 38.4625C42.4613 38.3915 42.0553 38.1885 41.8929 37.2851C41.6531 36.2695 41.3131 35.2801 40.8779 34.3315C40.4075 33.3272 40.0337 32.2804 39.7614 31.2053C39.1924 28.7294 39.2976 26.1462 40.0659 23.7247C40.3531 22.6785 40.9055 21.724 41.6696 20.9538C42.1323 20.561 42.7283 20.3611 43.3342 20.3955C43.57 20.3948 43.8049 20.3676 44.0346 20.3143C44.3993 20.2172 44.7296 20.0204 44.9887 19.7459C45.1308 19.6241 45.2932 19.482 45.5063 19.3298C47.0246 18.1913 48.8251 17.4894 50.7133 17.2998C53.0945 16.923 55.5315 17.125 57.8183 17.8885C58.9909 18.2843 60.0692 18.9176 60.9861 19.7489C61.9029 20.5802 62.6386 21.5916 63.147 22.7199C63.7719 24.5457 63.9562 26.4933 63.685 28.4039C63.685 28.9824 63.6139 29.5711 63.6038 30.1598C63.5262 32.6624 62.5077 35.0437 60.7516 36.8284C59.0512 38.5673 56.8388 39.7162 54.4383 40.1068C53.5039 40.2763 52.5561 40.3612 51.6065 40.3606ZM43.0196 37.4069H43.1515C43.5917 37.4439 44.0148 37.5943 44.3797 37.8434C45.3817 38.4062 46.4796 38.7779 47.6175 38.9396C49.8148 39.4019 52.0779 39.4603 54.2962 39.1121C56.474 38.7648 58.4836 37.7298 60.031 36.1585C61.5925 34.5339 62.4872 32.3822 62.538 30.1294C62.538 29.5305 62.5888 28.9317 62.6192 28.3227C62.8705 26.575 62.7142 24.793 62.1625 23.1157C61.7084 22.12 61.0541 21.2286 60.2403 20.4969C59.4265 19.7652 58.4708 19.209 57.4326 18.8629C55.2977 18.158 53.0252 17.9736 50.8046 18.3249C49.0939 18.5067 47.4654 19.1525 46.095 20.1925L45.5977 20.5884C45.2232 20.9617 44.7579 21.2311 44.2477 21.3699C43.9363 21.4516 43.6156 21.4925 43.2936 21.4917C43.1134 21.4712 42.9308 21.4866 42.7566 21.5371C42.5824 21.5877 42.4199 21.6723 42.2786 21.7861C41.6458 22.4246 41.1939 23.2197 40.9693 24.0901C40.2612 26.3351 40.1665 28.7287 40.6952 31.0226C40.9397 32.0337 41.2795 33.0192 41.7102 33.9661C42.1806 34.9774 42.5545 36.0309 42.8267 37.1126C42.8876 37.3866 42.9384 37.4577 42.9485 37.4577L43.0196 37.4069Z" fill="#14142B"/>
<path d="M73.4389 109.483C70.5766 96.1257 65.3189 52.8664 64.0197 52.298C60.9747 50.8871 44.7347 49.3037 41.0198 55.5561C39.8729 57.5151 39.1218 100.155 40.5935 111.523L73.4389 109.483Z" fill="white"/>
<path d="M40.5948 112.051C40.4681 112.05 40.346 112.003 40.251 111.919C40.1559 111.835 40.0942 111.72 40.0772 111.594C38.6054 100.226 39.3159 57.4338 40.5745 55.2922C44.5229 48.5526 61.3008 50.4811 64.2342 51.8209C65.0259 52.1761 65.7364 56.1651 69.0047 78.4748C70.7809 90.6548 72.6181 103.139 73.9477 109.371C73.9641 109.445 73.9642 109.521 73.9482 109.594C73.9322 109.668 73.9004 109.737 73.855 109.797C73.8096 109.856 73.7517 109.906 73.6853 109.941C73.619 109.976 73.5457 109.997 73.4707 110.001L40.6354 112.031L40.5948 112.051ZM54.612 51.557C49.2832 51.557 43.3861 52.572 41.4779 55.82C40.4629 57.85 39.59 98.3789 41.0617 110.965L72.8008 108.996C71.4711 102.561 69.6949 90.401 67.9694 78.627C66.2845 67.1372 64.3864 54.1452 63.6861 52.7242C60.7416 51.8602 57.6793 51.4662 54.612 51.557Z" fill="#14142B"/>
<path d="M57.8383 58.4599L55.7677 63.3319L60.7818 92.3406L57.2191 98.3798L51.4539 94.1473L53.4738 63.0984L48.3379 56.7344L57.8383 58.4599Z" fill="#14142B"/>
<path d="M57.2194 98.8868C57.1124 98.8885 57.0082 98.8525 56.925 98.7853L51.1497 94.5527C51.0809 94.5038 51.0261 94.4378 50.9905 94.3613C50.9549 94.2848 50.9398 94.2004 50.9467 94.1163L52.9767 63.2603L47.9626 57.0485C47.9031 56.9657 47.8711 56.8663 47.8711 56.7643C47.8711 56.6623 47.9031 56.5629 47.9626 56.4801C48.015 56.3903 48.0937 56.3188 48.1881 56.2752C48.2825 56.2317 48.388 56.2181 48.4904 56.2365L57.9908 57.9518C58.0656 57.9675 58.1361 57.9992 58.1974 58.0447C58.2587 58.0903 58.3094 58.1486 58.346 58.2157C58.3785 58.2839 58.3953 58.3585 58.3953 58.434C58.3953 58.5095 58.3785 58.584 58.346 58.6522L56.316 63.3922L61.2997 92.2487C61.321 92.3673 61.2994 92.4896 61.2388 92.5938L57.6761 98.6838C57.64 98.7442 57.5914 98.7962 57.5337 98.8365C57.476 98.8767 57.4103 98.9042 57.3412 98.9172L57.2194 98.8868ZM51.9718 93.9031L57.0468 97.6383L60.2238 92.2385L55.2503 63.4125C55.22 63.3202 55.22 63.2207 55.2503 63.1283L57.0773 58.845L49.5358 57.4748L53.8191 62.7731C53.8967 62.8748 53.9362 63.0005 53.9308 63.1283L51.9718 93.9031Z" fill="#14142B"/>
<path d="M49.8514 124.851L45.2534 53.2933L60.9047 52.735L60.4683 123.724H76.9925C74.6986 103.495 74.4753 55.5973 72.5569 53.5166C65.3504 45.6909 46.8876 48.3096 46.8876 48.3096C46.8876 48.3096 33.5809 48.9491 29.3687 56.7341C28.3537 58.6931 27.8868 117.634 28.0289 126.089L49.8514 124.851Z" fill="#6A96FF"/>
<path d="M59.6766 48.0853L60.519 53.546C60.519 53.546 59.6563 61.4935 53.6475 60.1029C51.8409 59.638 50.1558 58.789 48.7072 57.6136C47.2586 56.4383 46.0806 54.9643 45.2534 53.2923L44.4922 38.859C44.4922 38.859 48.9074 36.4433 47.5372 26.8008C52.4575 28.8647 57.8428 29.5659 63.1276 28.8308C63.1276 28.8308 65.2692 38.7473 64.5892 43.396C64.4815 44.6417 63.923 45.8053 63.0186 46.6686C62.1142 47.5319 60.9259 48.0356 59.6766 48.0853Z" fill="white"/>
<path d="M55.0066 60.7832C54.5076 60.7837 54.0103 60.7258 53.5247 60.6106C51.6367 60.1355 49.8754 59.2534 48.364 58.0261C46.8527 56.7988 45.6279 55.256 44.7754 53.5056C44.7639 53.4453 44.7639 53.3833 44.7754 53.3229L43.9634 38.8592C43.9589 38.7605 43.9822 38.6625 44.0307 38.5763C44.0791 38.4902 44.1508 38.4194 44.2375 38.372C44.2375 38.372 48.2975 35.9563 46.9983 26.8619C46.9827 26.7679 46.9935 26.6713 47.0292 26.583C47.065 26.4947 47.1245 26.4179 47.2012 26.3613C47.2778 26.3046 47.3686 26.2701 47.4635 26.2618C47.5585 26.2534 47.6539 26.2714 47.7392 26.3138C52.5686 28.3315 57.8468 29.032 63.0353 28.3438C63.1671 28.3201 63.303 28.3494 63.4133 28.4255C63.5236 28.5015 63.5993 28.6181 63.624 28.7498C63.7052 29.1558 65.7758 38.8186 65.0856 43.5079C64.9744 44.7727 64.4385 45.9628 63.5649 46.8842C62.6913 47.8057 61.5316 48.4044 60.2745 48.5829L61.0357 53.5056C61.0457 53.5491 61.0457 53.5942 61.0357 53.6376C61.0357 53.8203 60.5282 58.0325 57.8588 59.9306C57.023 60.5111 56.0239 60.8098 55.0066 60.7832ZM45.7701 53.1605C46.5732 54.7361 47.7013 56.1235 49.08 57.231C50.4587 58.3385 52.0567 59.141 53.7683 59.5855C54.3533 59.7551 54.9685 59.7939 55.5701 59.6992C56.1718 59.6045 56.7452 59.3785 57.2498 59.0374C59.3813 57.5352 59.9192 54.0639 59.9903 53.5462L59.158 48.1566C59.1483 48.0826 59.1541 48.0073 59.1751 47.9357C59.1961 47.8641 59.2317 47.7976 59.2798 47.7404C59.3265 47.6833 59.3853 47.6372 59.452 47.6056C59.5188 47.574 59.5917 47.5577 59.6655 47.5577C60.7878 47.5113 61.8541 47.0548 62.6622 46.2747C63.4704 45.4946 63.9643 44.4451 64.0503 43.3252C64.6288 39.387 63.1063 31.4192 62.6902 29.4095C57.7745 30.0214 52.7837 29.4328 48.1452 27.6942C49.0384 35.5604 46.0036 38.4633 45.0292 39.1738L45.7701 53.1605Z" fill="#14142B"/>
<path d="M56.5599 34.6367C56.5599 34.6367 59.4121 39.8741 58.5899 40.6557C57.7678 41.4372 55.5449 40.6557 55.5449 40.6557" fill="white"/>
<path d="M57.3823 41.5178C56.6908 41.5019 56.0059 41.3786 55.3523 41.1524C55.2258 41.1066 55.1227 41.0124 55.0656 40.8906C55.0085 40.7688 55.0021 40.6293 55.0478 40.5028C55.0693 40.4394 55.1034 40.3809 55.1481 40.3309C55.1927 40.281 55.247 40.2406 55.3077 40.2122C55.3684 40.1837 55.4342 40.1678 55.5011 40.1655C55.5681 40.1631 55.6348 40.1742 55.6974 40.1983C56.3064 40.4115 57.7274 40.716 58.1943 40.2795C58.3871 39.8431 57.4229 37.3056 56.1034 34.8797C56.0694 34.822 56.0475 34.7581 56.0388 34.6918C56.0302 34.6254 56.035 34.558 56.053 34.4936C56.071 34.4291 56.1018 34.369 56.1436 34.3168C56.1854 34.2645 56.2373 34.2212 56.2962 34.1895C56.3548 34.1574 56.4192 34.1371 56.4857 34.1299C56.5521 34.1227 56.6194 34.1287 56.6835 34.1476C56.7476 34.1664 56.8074 34.1978 56.8594 34.2398C56.9114 34.2819 56.9545 34.3337 56.9864 34.3925C58.377 36.9402 59.8284 40.1577 58.8743 41.0306C58.4506 41.365 57.9217 41.5377 57.3823 41.5178Z" fill="#14142B"/>
<path d="M53.813 35.0341C54.1379 35.0204 54.3758 34.4055 54.3444 33.6606C54.3131 32.9157 54.0243 32.3229 53.6995 32.3366C53.3747 32.3502 53.1367 32.9652 53.1681 33.7101C53.1994 34.455 53.4882 35.0478 53.813 35.0341Z" fill="#14142B"/>
<path d="M61.5396 35.0341C61.8644 35.0204 62.1024 34.4055 62.071 33.6606C62.0397 32.9157 61.7509 32.3229 61.4261 32.3366C61.1012 32.3502 60.8633 32.9652 60.8947 33.7101C60.926 34.455 61.2148 35.0478 61.5396 35.0341Z" fill="#14142B"/>
<path d="M48.3392 36.3724C47.816 35.4701 47.1273 34.6746 46.3092 34.0277C45.8759 33.6496 45.3377 33.4124 44.7664 33.3477C44.2987 33.357 43.8424 33.4938 43.4469 33.7435C42.8546 34.0894 42.3421 34.5568 41.9433 35.1148C41.5444 35.6728 41.2682 36.309 41.1327 36.9814C40.9954 37.6015 41.0093 38.2455 41.1733 38.8591C41.5155 39.8016 42.176 40.5949 43.0409 41.1023C43.9043 41.605 44.8242 42.0036 45.7814 42.2898" fill="white"/>
<path d="M45.7817 42.8173H45.6091C44.6173 42.5152 43.6637 42.0997 42.7671 41.579C41.7932 41.0057 41.0528 40.1071 40.6762 39.0415C40.4703 38.3457 40.4424 37.6093 40.595 36.8999C40.7451 36.1549 41.0504 35.4499 41.4911 34.8308C41.9318 34.2117 42.498 33.6924 43.1528 33.3068C43.6305 32.9993 44.1886 32.8404 44.7565 32.85C45.4349 32.9145 46.0767 33.1875 46.5937 33.6316C47.4779 34.3185 48.225 35.1655 48.7962 36.1285C48.8661 36.2496 48.8851 36.3936 48.8489 36.5287C48.8128 36.6638 48.7245 36.7791 48.6034 36.8491C48.5442 36.8835 48.4787 36.9058 48.4108 36.9147C48.3429 36.9236 48.2739 36.919 48.2079 36.901C48.1418 36.8831 48.0799 36.8522 48.0258 36.8102C47.9718 36.7682 47.9266 36.7159 47.8929 36.6563C47.3897 35.8105 46.7321 35.0668 45.9542 34.4639C45.6108 34.15 45.1778 33.9513 44.7159 33.8955C44.353 33.9017 44 34.0146 43.7009 34.2203C43.1791 34.5312 42.7286 34.9486 42.3788 35.4453C42.029 35.9419 41.7878 36.5067 41.6709 37.1029C41.5425 37.6366 41.5425 38.1932 41.6709 38.7269C41.9937 39.5529 42.5927 40.2415 43.366 40.6757C44.1978 41.1474 45.0795 41.5253 45.9948 41.8023C46.0597 41.8241 46.1195 41.8584 46.171 41.9034C46.2225 41.9484 46.2645 42.0032 46.2947 42.0645C46.3249 42.1258 46.3427 42.1926 46.347 42.2608C46.3512 42.329 46.3419 42.3974 46.3196 42.4621C46.2818 42.5724 46.2085 42.6671 46.1112 42.7314C46.0139 42.7956 45.898 42.8259 45.7817 42.8173Z" fill="#14142B"/>
<path d="M59.6766 48.0865C56.2254 48.6151 52.6956 48.0321 49.5977 46.4219C49.5977 46.4219 54.7336 54.3186 60.4683 53.2021L59.6766 48.0865Z" fill="#14142B"/>
<path d="M59.3309 53.8197C53.8702 53.8197 49.3738 47.009 49.1809 46.7147C49.1142 46.6252 49.0781 46.5167 49.0781 46.4051C49.0781 46.2935 49.1142 46.1849 49.1809 46.0955C49.2559 46.0123 49.3562 45.9562 49.4664 45.9361C49.5766 45.9159 49.6903 45.9327 49.7899 45.9839C52.8088 47.5457 56.246 48.1073 59.6049 47.5876C59.6725 47.5713 59.7427 47.5694 59.8111 47.582C59.8794 47.5945 59.9444 47.6213 60.0018 47.6605C60.0592 47.6997 60.1077 47.7505 60.1442 47.8096C60.1808 47.8687 60.2045 47.9349 60.2139 48.0037L61.0056 53.0787C61.0262 53.2078 60.9952 53.3398 60.9192 53.4462C60.8432 53.5526 60.7284 53.6247 60.5997 53.6471C60.1837 53.7475 59.7586 53.8054 59.3309 53.8197ZM51.2109 47.6688C52.9161 49.6988 56.2859 53.1295 59.9297 52.7438L59.2903 48.6838C56.5414 49.0157 53.7529 48.6672 51.1703 47.6688H51.2109Z" fill="#14142B"/>
<path d="M52.0528 38.6263C51.0743 38.6283 50.1172 38.3399 49.3028 37.7975C48.4883 37.2551 47.8532 36.4832 47.4778 35.5796C47.1024 34.676 47.0037 33.6812 47.1941 32.7214C47.3845 31.7616 47.8555 30.8799 48.5474 30.188C49.2393 29.4961 50.121 29.0251 51.0808 28.8347C52.0406 28.6443 53.0353 28.7431 53.939 29.1184C54.8426 29.4938 55.6145 30.129 56.1569 30.9434C56.6993 31.7578 56.9877 32.7149 56.9857 33.6934C56.983 35.0009 56.4624 36.254 55.5379 37.1785C54.6134 38.1031 53.3603 38.6236 52.0528 38.6263ZM52.0528 29.7958C51.2815 29.7938 50.5269 30.0207 49.8846 30.4477C49.2424 30.8748 48.7412 31.4828 48.4447 32.1948C48.1481 32.9068 48.0695 33.6908 48.2187 34.4476C48.368 35.2043 48.7384 35.8997 49.283 36.4458C49.8277 36.9919 50.5222 37.3642 51.2785 37.5154C52.0349 37.6666 52.8191 37.59 53.5318 37.2953C54.2446 37.0006 54.854 36.501 55.2827 35.8599C55.7114 35.2187 55.9402 34.4647 55.9402 33.6934C55.9403 32.6615 55.531 31.6716 54.8023 30.941C54.0735 30.2103 53.0847 29.7985 52.0528 29.7958Z" fill="#14142B"/>
<path d="M61.5743 38.6263C60.5958 38.6283 59.6387 38.3399 58.8243 37.7975C58.0098 37.2551 57.3747 36.4832 56.9993 35.5796C56.6239 34.676 56.5252 33.6812 56.7156 32.7214C56.906 31.7616 57.377 30.8799 58.0689 30.188C58.7608 29.4961 59.6425 29.0251 60.6023 28.8347C61.5621 28.6443 62.5568 28.7431 63.4605 29.1184C64.3641 29.4938 65.136 30.129 65.6784 30.9434C66.2207 31.7578 66.5092 32.7149 66.5072 33.6934C66.5045 35.0009 65.9839 36.254 65.0594 37.1785C64.1349 38.1031 62.8818 38.6236 61.5743 38.6263ZM61.5743 29.7958C60.803 29.7938 60.0484 30.0207 59.4061 30.4477C58.7638 30.8748 58.2627 31.4828 57.9661 32.1948C57.6696 32.9068 57.5909 33.6908 57.7402 34.4476C57.8894 35.2043 58.2598 35.8997 58.8045 36.4458C59.3492 36.9919 60.0437 37.3642 60.8 37.5154C61.5563 37.6666 62.3405 37.59 63.0533 37.2953C63.7661 37.0006 64.3754 36.501 64.8042 35.8599C65.2329 35.2187 65.4617 34.4647 65.4617 33.6934C65.4617 32.6615 65.0525 31.6716 64.3237 30.941C63.595 30.2103 62.6062 29.7985 61.5743 29.7958Z" fill="#14142B"/>
<path d="M118.576 67.2186C118.576 66.5386 121.946 64.6913 122.494 64.1736L128.513 58.3475C129.058 57.6983 129.818 57.2662 130.655 57.1295C130.806 57.1123 130.959 57.1444 131.091 57.2209C131.477 57.4746 131.294 58.0735 131.091 58.4693C130.186 60.0525 129.168 61.5688 128.046 63.0064C130.963 61.1794 133.926 59.4403 136.938 57.7893C137.404 57.5355 137.953 57.2818 138.45 57.566C138.588 57.6723 138.703 57.8053 138.788 57.957C138.874 58.1087 138.928 58.276 138.947 58.449C139.11 59.9092 138.75 61.3798 137.932 62.6004C135.679 66.5893 131.842 69.2994 127.995 71.5933C126.128 72.6996 124.514 73.9887 122.697 75.1864C122.342 75.43 119.023 77.2164 119.033 77.6122L118.576 67.2186Z" fill="white"/>
<path d="M119.033 78.0789C118.9 78.079 118.771 78.0273 118.674 77.9345C118.578 77.8418 118.521 77.7153 118.516 77.5815L118.049 67.2793C118.049 66.5992 118.912 65.9496 120.942 64.6403C121.352 64.3877 121.748 64.1133 122.129 63.8181L126.108 59.9713L128.138 57.9413C128.779 57.1862 129.675 56.6916 130.655 56.5507C130.922 56.5299 131.188 56.5938 131.416 56.7334C131.964 57.109 132.025 57.8702 131.548 58.6822C131.071 59.4942 130.533 60.3265 130.026 61.1182C132.218 59.7987 134.451 58.5097 136.684 57.2815C136.974 57.0699 137.314 56.9387 137.67 56.9013C138.027 56.8638 138.387 56.9215 138.714 57.0684C138.916 57.2095 139.086 57.392 139.212 57.6038C139.338 57.8155 139.417 58.0517 139.445 58.2965C139.666 59.8754 139.305 61.4808 138.43 62.8133C136.075 66.9849 131.985 69.7965 128.28 71.9483C127.164 72.608 126.159 73.3287 125.103 74.0798C124.413 74.567 123.733 75.0948 123.012 75.5312C122.931 75.5921 122.698 75.7241 122.383 75.8966C121.399 76.4258 120.452 77.0227 119.551 77.683C119.518 77.7825 119.456 77.8698 119.373 77.9332C119.289 77.9966 119.189 78.0333 119.084 78.0383L119.033 78.0789ZM119.104 67.259L119.51 76.394C120.018 76.0489 120.759 75.6124 121.845 74.9831C122.129 74.8309 122.342 74.7091 122.413 74.6583C123.124 74.1914 123.794 73.7144 124.443 73.2272C125.458 72.4964 126.544 71.7351 127.691 71.0449C131.264 68.9236 135.212 66.2135 137.445 62.255C138.198 61.1411 138.526 59.7941 138.369 58.4589C138.356 58.2509 138.266 58.0553 138.115 57.9108C137.862 57.7586 137.314 58.0631 137.1 58.1544C134.106 59.7987 131.122 61.5445 128.239 63.3614C128.135 63.427 128.01 63.4538 127.888 63.4371C127.766 63.4204 127.653 63.3613 127.57 63.27C127.488 63.1774 127.443 63.0584 127.443 62.9351C127.443 62.8118 127.488 62.6928 127.57 62.6001C128.697 61.1862 129.728 59.6975 130.655 58.1443C130.763 57.9735 130.826 57.7778 130.838 57.5759C130.838 57.5759 130.838 57.5759 130.746 57.5759C130.037 57.7237 129.401 58.1151 128.95 58.6822L126.92 60.7122L122.941 64.5591C122.517 64.9095 122.066 65.2252 121.591 65.503C120.7 66.0029 119.866 66.5985 119.104 67.2793V67.259Z" fill="#14142B"/>
<path d="M72.5564 53.5156C72.5564 53.5156 89.5374 67.4719 92.7955 69.0857C96.0536 70.6996 120.201 63.3916 120.201 63.3916L126.646 74.7697C126.646 74.7697 101.667 87.1629 91.6181 86.7772C81.5696 86.3915 69.0039 69.0959 69.0039 69.0959" fill="#6A96FF"/>
<path d="M126.778 69.0754C126.668 69.0762 126.561 69.0405 126.474 68.9739C126.362 68.8925 126.286 68.7702 126.263 68.6335C126.24 68.4967 126.272 68.3565 126.352 68.2431C128.544 65.1981 127.6 63.2798 127.56 63.1681C127.511 63.0477 127.509 62.9136 127.553 62.7916C127.597 62.6695 127.685 62.568 127.799 62.5065C127.914 62.4449 128.046 62.4276 128.173 62.458C128.299 62.4883 128.41 62.564 128.483 62.6708C128.483 62.7621 129.803 65.1778 127.205 68.7608C127.168 68.8461 127.109 68.9202 127.034 68.9755C126.959 69.0307 126.871 69.0652 126.778 69.0754Z" fill="#14142B"/>
<path d="M56.7638 44.5121C55.6181 44.511 54.492 44.2143 53.4945 43.6506C52.4969 43.087 51.6617 42.2754 51.0697 41.2945C51.0312 41.2394 51.0041 41.1771 50.9899 41.1114C50.9758 41.0457 50.9748 40.9778 50.987 40.9117C50.9993 40.8456 51.0246 40.7826 51.0614 40.7263C51.0983 40.6701 51.1459 40.6217 51.2016 40.584C51.3151 40.51 51.453 40.4835 51.5859 40.5101C51.7187 40.5366 51.8358 40.6142 51.9121 40.7261C52.6181 41.9043 53.7242 42.7894 55.0286 43.2198C56.3329 43.6502 57.7485 43.5973 59.0171 43.0708C59.1379 43.0251 59.2716 43.0272 59.391 43.0766C59.5103 43.1261 59.6063 43.2192 59.6594 43.337C59.7124 43.4548 59.7186 43.5884 59.6766 43.7105C59.6346 43.8327 59.5475 43.9342 59.4333 43.9944C58.5847 44.336 57.6785 44.5117 56.7638 44.5121Z" fill="#14142B"/>
<path d="M74.3934 91.9025C74.3253 91.8961 74.2592 91.8763 74.1988 91.8443C74.1383 91.8122 74.0849 91.7685 74.0415 91.7156C73.9981 91.6628 73.9655 91.6018 73.9458 91.5364C73.9261 91.4709 73.9195 91.4021 73.9265 91.3341L76.5249 64.6193C76.5659 64.5104 76.6417 64.4181 76.7405 64.3567C76.8394 64.2954 76.9557 64.2684 77.0715 64.28C77.1872 64.2915 77.2959 64.341 77.3806 64.4207C77.4653 64.5005 77.5213 64.6059 77.5399 64.7208L74.9415 91.4356C74.924 91.5674 74.8583 91.688 74.7571 91.7742C74.6559 91.8605 74.5264 91.9061 74.3934 91.9025Z" fill="#14142B"/>
<path d="M45.0801 104.367L51.4847 73.6836L80.0773 75.876L72.1806 107.28L45.0801 104.367Z" fill="white"/>
<path d="M72.1801 107.808H72.1192L45.0187 104.895C44.874 104.873 44.7431 104.797 44.6533 104.681C44.6094 104.622 44.5786 104.555 44.5628 104.483C44.5471 104.411 44.5468 104.337 44.5619 104.265L50.9767 73.5818C51.0012 73.4573 51.0706 73.3461 51.1716 73.2694C51.2727 73.1927 51.3984 73.1558 51.5248 73.1656L80.1174 75.3986C80.1932 75.4043 80.267 75.4262 80.3336 75.463C80.4001 75.4998 80.458 75.5505 80.5031 75.6118C80.5481 75.6739 80.5788 75.7454 80.5929 75.8208C80.6069 75.8963 80.604 75.974 80.5843 76.0482L72.6876 107.452C72.6512 107.557 72.5826 107.648 72.4914 107.712C72.4003 107.776 72.2913 107.809 72.1801 107.808ZM45.7089 103.91L71.7842 106.711L79.417 76.3527L51.9004 74.2415L45.7089 103.91Z" fill="#14142B"/>
<path d="M38.8477 90.2393C38.8477 90.2393 45.6786 85.6414 48.1451 84.738C51.4946 83.52 54.5903 83.1546 55.0268 84.8903C55.4632 86.6259 54.2046 90.9803 52.8648 91.9953C51.525 93.0103 48.612 93.8832 46.988 95.4666C45.364 97.05 38.868 99.08 38.868 99.08L38.8477 90.2393Z" fill="white"/>
<path d="M38.848 99.5757C38.7114 99.5682 38.5825 99.5099 38.4868 99.4122C38.391 99.3146 38.3352 99.1846 38.3303 99.0479V90.2377C38.3277 90.152 38.3467 90.0671 38.3858 89.9908C38.4248 89.9144 38.4826 89.8493 38.5536 89.8013C38.8378 89.6084 45.4658 85.1627 47.9728 84.2492C49.7186 83.5996 52.9057 82.6557 54.5602 83.5387C54.8088 83.6543 55.0287 83.8234 55.2042 84.034C55.3796 84.2446 55.5063 84.4914 55.5752 84.7567C56.0421 86.6142 54.8038 91.1715 53.2204 92.3794C52.4808 92.8871 51.6918 93.319 50.8656 93.6684C49.5923 94.1986 48.4079 94.9209 47.3537 95.8101C45.6485 97.4645 39.2337 99.4641 39.0104 99.5453C38.9585 99.5652 38.9035 99.5755 38.848 99.5757ZM39.3758 90.5118V98.3273C41.487 97.6269 45.4658 96.1552 46.6229 95.059C47.7581 94.0918 49.0349 93.3045 50.4088 92.7245C51.1557 92.3993 51.8724 92.0087 52.5505 91.5572C53.6873 90.6843 54.9154 86.5939 54.5196 85.0105C54.4906 84.8917 54.4355 84.7808 54.3582 84.686C54.2809 84.5911 54.1835 84.5148 54.073 84.4624C53.1392 83.965 51.028 84.2594 48.3281 85.2338C46.1966 86.0153 40.5836 89.7099 39.3758 90.5118Z" fill="#14142B"/>
<path d="M32.0072 53.5156C32.0072 53.5156 0.613281 86.7873 0.613281 101.434C0.613281 116.08 39.843 100.774 39.843 100.774L40.5941 87.0918L20.6088 92.654L39.8938 73.7141L32.0072 53.5156Z" fill="#6A96FF"/>
<path d="M15.9607 94.4617C15.8452 94.4633 15.7325 94.4262 15.6406 94.3563C15.5486 94.2864 15.4827 94.1877 15.4532 94.076C15.4333 94.0101 15.4271 93.9407 15.4349 93.8723C15.4427 93.8038 15.4643 93.7376 15.4985 93.6778C15.5327 93.618 15.5787 93.5657 15.6338 93.5243C15.6888 93.4828 15.7517 93.453 15.8186 93.4366L40.4628 86.565C40.5295 86.5471 40.599 86.5424 40.6675 86.5512C40.7359 86.5601 40.802 86.5824 40.8618 86.6168C40.9217 86.6512 40.9742 86.6971 41.0163 86.7517C41.0584 86.8064 41.0894 86.8689 41.1074 86.9355C41.1254 87.0022 41.13 87.0717 41.1212 87.1402C41.1123 87.2086 41.09 87.2747 41.0556 87.3345C41.0212 87.3944 40.9754 87.4469 40.9207 87.489C40.866 87.5311 40.8035 87.5621 40.7369 87.58L16.0419 94.4617H15.9607Z" fill="#14142B"/>
<path d="M25.5525 89.9027C25.4506 89.9018 25.3511 89.8715 25.2661 89.8153C25.1811 89.7591 25.1142 89.6796 25.0734 89.5862C25.0326 89.4928 25.0198 89.3897 25.0363 89.2891C25.0529 89.1886 25.0982 89.095 25.1668 89.0197L36.89 76.1596C36.9881 76.0749 37.1139 76.0293 37.2435 76.0313C37.373 76.0334 37.4973 76.083 37.5926 76.1708C37.6879 76.2586 37.7476 76.3784 37.7603 76.5074C37.773 76.6363 37.7378 76.7654 37.6614 76.8701L25.9382 89.7302C25.8892 89.784 25.8297 89.827 25.7633 89.8567C25.697 89.8864 25.6252 89.9021 25.5525 89.9027Z" fill="#14142B"/>
<path d="M26.8908 220.118C26.6408 221.764 26.6067 223.436 26.7893 225.091C27.1243 227.233 51.9613 234.226 52.3876 229.649C52.8139 225.071 38.1776 218.402 38.1776 218.402C38.1776 218.402 29.6415 221.559 26.8908 220.118Z" fill="#14142B"/>
<path d="M48.6827 231.709C42.2679 231.709 26.6572 227.558 26.2817 225.213C26.0937 223.504 26.1312 221.777 26.3933 220.077C26.4031 219.998 26.4323 219.922 26.4783 219.856C26.5243 219.791 26.5858 219.738 26.6572 219.702C26.7301 219.667 26.8099 219.648 26.8907 219.648C26.9715 219.648 27.0513 219.667 27.1241 219.702C29.215 220.788 35.6907 218.819 38.0049 217.966C38.1294 217.92 38.2662 217.92 38.3906 217.966C39.9233 218.666 53.3314 224.939 52.8848 229.72C52.7732 230.948 51.5044 231.608 49.109 231.679L48.6827 231.709ZM27.3677 220.849C27.197 222.247 27.197 223.662 27.3677 225.061C28.0681 226.462 44.6227 231.638 50.4996 230.562C51.4232 230.39 51.9206 230.075 51.9612 229.638C52.2758 226.248 42.339 220.899 38.2384 218.991C36.7463 219.458 30.3924 221.62 27.317 220.808L27.3677 220.849Z" fill="#14142B"/>
<path d="M67.7247 217.906C67.7247 217.906 65.1669 223.336 67.7247 225.609C70.2825 227.883 93.7797 232.014 93.2113 228.736C92.6429 225.457 77.7021 216.789 77.7021 216.789C77.7021 216.789 70.8204 218.738 67.7247 217.906Z" fill="#14142B"/>
<path d="M89.2936 230.451C82.4626 230.451 69.4605 227.863 67.3493 225.985C64.5377 223.488 67.1158 217.926 67.2275 217.692C67.2781 217.585 67.3647 217.499 67.4723 217.449C67.5798 217.399 67.7015 217.388 67.8162 217.418C70.78 218.21 77.4587 216.322 77.5196 216.302C77.5819 216.274 77.6493 216.26 77.7175 216.26C77.7857 216.26 77.8531 216.274 77.9154 216.302C79.4684 217.205 93.0795 225.203 93.6682 228.614C93.7162 228.87 93.6748 229.134 93.551 229.363C93.4272 229.592 93.2285 229.772 92.9882 229.872C91.8132 230.331 90.5525 230.528 89.2936 230.451ZM67.9786 218.494C67.4812 219.702 66.1211 223.569 67.9786 225.224C70.2623 227.254 89.4763 230.684 92.4502 229.03C92.6431 228.918 92.6329 228.857 92.6329 228.827C92.2472 226.634 83.2645 220.707 77.55 217.327C76.4437 217.642 71.0439 219.042 67.9887 218.514L67.9786 218.494Z" fill="#14142B"/>
<path d="M69.8053 16.9348C70.6686 16.9348 71.3684 16.235 71.3684 15.3717C71.3684 14.5084 70.6686 13.8086 69.8053 13.8086C68.942 13.8086 68.2422 14.5084 68.2422 15.3717C68.2422 16.235 68.942 16.9348 69.8053 16.9348Z" fill="#6A96FF"/>
<path d="M74.8815 16.9348C75.7447 16.9348 76.4446 16.235 76.4446 15.3717C76.4446 14.5084 75.7447 13.8086 74.8815 13.8086C74.0182 13.8086 73.3184 14.5084 73.3184 15.3717C73.3184 16.235 74.0182 16.9348 74.8815 16.9348Z" fill="#6A96FF"/>
<path d="M79.9557 16.9348C80.819 16.9348 81.5188 16.235 81.5188 15.3717C81.5188 14.5084 80.819 13.8086 79.9557 13.8086C79.0924 13.8086 78.3926 14.5084 78.3926 15.3717C78.3926 16.235 79.0924 16.9348 79.9557 16.9348Z" fill="#6A96FF"/>
<path d="M271.852 172.98C271.852 172.98 274.805 205.917 278.622 220.117C279.281 222.563 287.757 222.705 289.929 221.294C292.101 219.884 288.295 175.153 288.284 175.082L271.852 172.98Z" fill="white"/>
<path d="M285.006 222.716C283.332 222.757 281.664 222.51 280.073 221.985C279.632 221.873 279.224 221.657 278.883 221.355C278.542 221.053 278.279 220.674 278.114 220.249C274.329 206.171 271.365 173.356 271.334 173.032C271.327 172.954 271.337 172.875 271.363 172.802C271.39 172.728 271.432 172.661 271.487 172.605C271.544 172.551 271.613 172.51 271.689 172.485C271.764 172.461 271.844 172.453 271.923 172.463L288.346 174.554C288.455 174.567 288.557 174.615 288.637 174.689C288.717 174.764 288.772 174.863 288.792 174.97C288.884 175.386 292.852 220.036 290.213 221.731C288.585 222.481 286.796 222.819 285.006 222.716ZM272.441 173.59C272.877 178.279 275.658 207.085 279.119 219.986C279.221 220.351 279.688 220.716 280.439 221.001C283.108 222.016 288.204 221.782 289.645 220.848C291.198 218.818 288.376 181.619 287.798 175.539L272.441 173.59Z" fill="#14142B"/>
<path d="M242.031 170.008L241.016 215.287C241.016 215.287 247.522 220.22 252.434 219.083L258.392 172.312L242.031 170.008Z" fill="white"/>
<path d="M250.892 219.783C246.152 219.783 240.955 215.885 240.742 215.723C240.677 215.67 240.625 215.604 240.59 215.528C240.555 215.452 240.538 215.37 240.539 215.286L241.554 170.017C241.555 169.944 241.572 169.871 241.604 169.805C241.635 169.738 241.681 169.679 241.737 169.632C241.794 169.584 241.861 169.549 241.932 169.528C242.004 169.507 242.079 169.501 242.153 169.51L258.474 171.824C258.611 171.844 258.734 171.917 258.818 172.027C258.901 172.137 258.938 172.276 258.921 172.413L252.973 219.194C252.958 219.301 252.911 219.4 252.838 219.48C252.766 219.559 252.671 219.615 252.567 219.641C252.016 219.749 251.454 219.797 250.892 219.783ZM241.554 215.023C242.661 215.814 247.888 219.316 251.978 218.646L257.814 172.758L242.589 170.616L241.554 215.023Z" fill="#14142B"/>
<path d="M241.929 110.213L237.514 183.587C237.514 183.587 277.099 193.555 293.521 185.8C293.521 185.8 288.72 128.798 279.179 110.599L241.929 110.213Z" fill="#14142B"/>
<path d="M275.698 189.272C270.211 189.214 264.733 188.811 259.296 188.064C251.928 187.1 244.616 185.745 237.392 184.004C237.277 183.974 237.176 183.905 237.106 183.809C237.035 183.713 237 183.595 237.007 183.476L241.422 110.102C241.43 109.973 241.486 109.851 241.581 109.763C241.675 109.674 241.8 109.625 241.929 109.625L279.18 110.011C279.272 110.013 279.362 110.039 279.44 110.087C279.519 110.135 279.583 110.203 279.626 110.285C289.117 128.362 293.979 185.111 294.029 185.679C294.038 185.782 294.015 185.886 293.962 185.975C293.909 186.064 293.83 186.134 293.735 186.176C289.482 188.267 283.443 189.272 275.698 189.272ZM238.042 183.182C242.254 184.197 277.627 192.378 292.984 185.466C292.558 180.645 287.777 128.514 278.865 111.087L242.406 110.711L238.042 183.182Z" fill="#14142B"/>
<path d="M218.492 105.758C218.492 105.758 215.914 107.524 214.037 107.311C212.159 107.098 207.947 106.407 207.774 108.671C207.601 110.934 212.473 118.232 212.463 118.303C212.453 118.374 223.699 111.675 223.699 111.675L218.492 105.758Z" fill="white"/>
<path d="M212.353 118.791C212.299 118.785 212.247 118.767 212.201 118.74C212.118 118.684 212.052 118.607 212.008 118.517C212.008 118.456 211.886 118.324 211.764 118.121C208.648 113.158 207.176 110.062 207.268 108.641C207.278 108.375 207.344 108.114 207.464 107.876C207.583 107.638 207.751 107.428 207.958 107.26C209.227 106.245 211.916 106.54 213.703 106.753L214.088 106.804C215.773 107.007 218.148 105.352 218.209 105.342C218.311 105.269 218.436 105.237 218.56 105.252C218.684 105.267 218.798 105.328 218.879 105.423L224.086 111.341C224.134 111.398 224.169 111.465 224.19 111.536C224.211 111.608 224.217 111.683 224.208 111.757C224.195 111.83 224.166 111.899 224.124 111.96C224.082 112.022 224.028 112.073 223.964 112.112C214.16 117.948 212.749 118.791 212.353 118.791ZM210.84 107.545C210.056 107.475 209.269 107.648 208.587 108.042C208.49 108.122 208.411 108.223 208.357 108.337C208.302 108.451 208.273 108.575 208.273 108.702C208.273 109.514 208.932 111.747 212.607 117.583C214.058 116.751 219.133 113.736 222.878 111.493L218.362 106.357C217.539 106.865 215.57 107.94 213.936 107.748H213.53C212.639 107.626 211.74 107.558 210.84 107.545Z" fill="#14142B"/>
<path d="M246.863 57.8301C246.863 57.8301 235.201 90.7973 231.303 92.5532C227.405 94.3092 215.824 104.317 215.824 104.317L222.401 114.406C222.401 114.406 236.358 105.657 242.143 100.46C247.929 95.2633 246.863 57.8301 246.863 57.8301Z" fill="#6A96FF"/>
<path d="M207.032 99.7764L185.49 111.6L200.38 138.729L221.922 126.906L207.032 99.7764Z" fill="white"/>
<path d="M200.385 139.242C200.335 139.252 200.283 139.252 200.233 139.242C200.168 139.225 200.108 139.194 200.055 139.152C200.003 139.11 199.96 139.058 199.929 138.999L185.028 111.868C184.963 111.745 184.949 111.602 184.989 111.469C185.029 111.336 185.12 111.224 185.241 111.157L206.78 99.3019C206.91 99.2509 207.055 99.2509 207.186 99.3019C207.251 99.3216 207.312 99.3542 207.364 99.3978C207.416 99.4414 207.459 99.4951 207.49 99.5556L222.39 126.687C222.456 126.809 222.47 126.953 222.43 127.086C222.39 127.219 222.299 127.33 222.177 127.397L200.69 139.181C200.596 139.229 200.49 139.25 200.385 139.242ZM186.175 111.837L200.558 138.055L221.183 126.727L206.8 100.52L186.175 111.837Z" fill="#14142B"/>
<path d="M266.929 30.5367C269.172 32.861 269.558 34.7489 270.33 37.733C271.094 40.4937 272.166 43.1596 273.527 45.6805C276.206 50.857 279.566 55.6985 281.647 61.1897C282.416 63.0319 282.81 65.0093 282.804 67.0056C282.671 68.8272 282.106 70.591 281.157 72.1511C280.207 73.7113 278.9 75.0232 277.343 75.9782C274.189 77.8595 270.513 78.6779 266.858 78.3127C265.448 78.2643 264.065 77.9184 262.798 77.2977C261.38 76.445 260.209 75.2383 259.398 73.796C257.532 70.5167 256.316 66.9086 255.815 63.1689C255.267 59.992 254.8 56.7034 252.313 54.3384C250.476 52.5825 247.888 51.9227 245.736 50.5728C244.04 49.4628 242.635 47.9613 241.641 46.1948C240.646 44.4284 240.091 42.4488 240.022 40.4228C239.9 36.4947 241.646 33.805 243.676 30.6788C244.691 29.1563 247.391 26.0301 248.994 29.1461C248.314 27.8368 251.156 25.7763 252.09 25.5023C254.111 25.1288 256.189 25.1981 258.18 25.7053C261.513 26.4081 264.559 28.0905 266.929 30.5367Z" fill="white"/>
<path d="M268.38 78.8396C267.853 78.8396 267.365 78.8396 266.787 78.7787C265.31 78.711 263.862 78.3414 262.534 77.6926C261.041 76.8079 259.808 75.5437 258.961 74.0285C257.07 70.6899 255.833 67.021 255.317 63.2187L255.267 62.9142C254.749 59.92 254.252 56.8242 251.947 54.6521C250.795 53.6648 249.489 52.8728 248.08 52.3075C247.177 51.9088 246.299 51.4546 245.451 50.9474C243.68 49.7966 242.214 48.233 241.18 46.3908C240.145 44.5486 239.574 42.4829 239.514 40.3711C239.392 36.3111 241.168 33.5706 243.218 30.4038C243.594 29.8354 245.411 27.1964 247.278 27.2979C247.751 27.3157 248.201 27.5031 248.547 27.8257C249.324 26.5489 250.492 25.556 251.876 24.9938C253.977 24.5971 256.138 24.6629 258.21 25.1867C261.644 25.9218 264.78 27.6681 267.213 30.2008C269.426 32.4845 269.923 34.4333 270.613 37.1332L270.735 37.6103C271.493 40.333 272.555 42.9616 273.902 45.4461C274.805 47.2122 275.81 48.958 276.785 50.653C278.81 53.9573 280.558 57.4235 282.012 61.0162C282.809 62.9148 283.213 64.9555 283.199 67.0148C283.064 68.9115 282.478 70.7485 281.489 72.3728C280.5 73.997 279.138 75.3616 277.515 76.3528C274.765 78.0258 271.599 78.8879 268.38 78.8396ZM247.218 28.2317C246.203 28.2317 244.863 29.5918 244.02 30.8707C241.99 33.9157 240.326 36.5851 240.448 40.3508C240.498 42.3095 241.024 44.2265 241.981 45.9364C242.938 47.6463 244.296 49.0979 245.939 50.1658C246.76 50.6517 247.607 51.0921 248.476 51.4853C249.975 52.0887 251.364 52.9358 252.587 53.9924C255.084 56.3776 255.632 59.6256 256.18 62.762L256.231 63.0766C256.729 66.7555 257.921 70.3064 259.743 73.5413C260.51 74.9191 261.627 76.0707 262.981 76.8806C264.189 77.4834 265.509 77.829 266.858 77.8956C270.414 78.2467 273.988 77.4499 277.059 75.622C278.555 74.7102 279.813 73.4546 280.727 71.9595C281.642 70.4644 282.186 68.7727 282.316 67.025C282.319 65.09 281.932 63.1742 281.179 61.3917C279.745 57.8451 278.021 54.4231 276.023 51.1605C275.008 49.4655 273.993 47.6994 273.12 45.9231C271.732 43.3646 270.645 40.6532 269.883 37.8437L269.761 37.3768C269.081 34.7175 268.634 32.9717 266.594 30.8504C264.284 28.4556 261.312 26.8051 258.058 26.1103C256.596 25.8058 253.896 25.3795 252.181 25.887C251.032 26.3849 250.064 27.2249 249.41 28.2926C249.258 28.658 249.349 28.8305 249.41 28.8813C249.464 28.9921 249.473 29.1195 249.435 29.2368C249.397 29.3541 249.316 29.4522 249.207 29.5106C249.096 29.5646 248.969 29.5736 248.851 29.5358C248.734 29.4979 248.636 29.4162 248.578 29.3076C248.222 28.6072 247.806 28.2926 247.319 28.2317H247.218Z" fill="#14142B"/>
<path d="M282.255 113.197C282.133 114.293 259.235 113.836 257.6 113.715C253.388 113.41 245.268 113.309 241.929 110.213C239.584 108.041 241.929 103.585 242.142 100.459C242.342 95.4901 242.135 90.5136 241.523 85.5788C240.882 79.2139 241.138 72.7904 242.284 66.4968C243.025 62.4368 243.888 59.5034 246.862 57.8287C251.571 55.1795 258.534 53.9006 263.954 53.5048C266.573 53.3119 277.647 58.9756 280.093 64.2029C282.539 69.4301 282.265 112.466 282.255 113.197Z" fill="#6A96FF"/>
<path d="M242.854 90.624C242.747 90.6254 242.642 90.5927 242.554 90.5307C242.467 90.4687 242.401 90.3805 242.367 90.2789C237.84 76.7185 243.27 60.7627 243.321 60.6003C243.367 60.4738 243.461 60.3707 243.583 60.3136C243.705 60.2565 243.844 60.2501 243.971 60.2958C244.097 60.3397 244.2 60.4313 244.259 60.551C244.318 60.6707 244.327 60.8087 244.285 60.9353C244.235 61.0977 238.906 76.7287 243.331 89.9541C243.353 90.0174 243.362 90.0844 243.358 90.1512C243.353 90.2181 243.335 90.2833 243.305 90.343C243.275 90.4027 243.233 90.4557 243.181 90.4987C243.13 90.5418 243.07 90.5741 243.006 90.5936C242.958 90.6134 242.906 90.6238 242.854 90.624Z" fill="#14142B"/>
<path d="M262.797 63.2189C262.797 63.2189 255.53 76.7286 253.662 82.6663C251.795 88.6041 247.501 98.5105 247.501 98.5105C247.501 98.5105 245.37 76.7996 252.434 59.0371L262.797 63.2189Z" fill="#14142B"/>
<path d="M247.461 98.9262H247.379C247.282 98.911 247.192 98.8639 247.124 98.7923C247.056 98.7207 247.014 98.6286 247.004 98.5303C247.004 98.3172 244.974 76.5049 251.977 58.8439C251.998 58.7895 252.029 58.7399 252.069 58.698C252.109 58.6561 252.157 58.6228 252.211 58.6003C252.321 58.5551 252.445 58.5551 252.556 58.6003L262.96 62.7821C263.018 62.8046 263.07 62.8394 263.114 62.8841C263.158 62.9287 263.191 62.9821 263.212 63.0408C263.233 63.0995 263.242 63.162 263.237 63.2242C263.232 63.2863 263.213 63.3467 263.183 63.4012C263.112 63.5433 255.916 76.9515 254.048 82.7877C252.18 88.624 247.958 98.5608 247.867 98.6623C247.833 98.7415 247.776 98.8088 247.704 98.8557C247.631 98.9027 247.547 98.9272 247.461 98.9262ZM252.647 59.5848C247.055 73.9877 247.461 91.0498 247.775 96.5816C249.074 93.4858 251.785 86.8782 253.195 82.5035C254.931 77.124 260.889 65.8271 262.168 63.4114L252.647 59.5848Z" fill="#14142B"/>
<path d="M251.135 55.7886L252.597 63.5026C252.597 63.5026 254.312 69.3997 258.027 68.0193C259.596 67.4312 261.028 66.5254 262.231 65.3588C263.434 64.1921 264.384 62.7896 265.02 61.2391L263.711 45.6589C262.869 42.9614 262.441 40.1517 262.442 37.3257C259.885 37.3583 257.355 36.7953 255.053 35.6814C254.14 35.2653 249.186 33.4484 249.471 32.1797C248.77 35.3363 247.978 38.6554 245.786 41.0406C245.452 41.3524 245.18 41.7243 244.984 42.1368C244.892 42.4668 244.861 42.8108 244.893 43.1518C244.944 46.4404 244.893 49.658 245.674 52.8654C246.74 57.0269 251.135 55.7886 251.135 55.7886Z" fill="white"/>
<path d="M256.92 68.7013C256.409 68.6982 255.905 68.5766 255.449 68.346C253.216 67.2194 252.191 63.7785 252.15 63.6364L250.759 56.3386C249.564 56.562 248.328 56.3798 247.248 55.8209C246.729 55.5057 246.282 55.087 245.932 54.591C245.583 54.0951 245.34 53.5325 245.218 52.9383C244.618 50.1617 244.356 47.3229 244.436 44.4834V43.1131C244.395 42.6961 244.456 42.2753 244.615 41.8877C244.775 41.5001 245.027 41.1576 245.349 40.8903L245.461 40.7685C247.633 38.4035 248.384 35.0642 249.034 32.1105C249.061 31.9894 249.135 31.8839 249.24 31.8173C249.344 31.7507 249.471 31.7284 249.592 31.7553C249.713 31.7822 249.819 31.8561 249.885 31.9608C249.952 32.0655 249.974 32.1924 249.947 32.3135C249.947 32.4759 250.14 33.156 254.616 35.0236C254.901 35.1352 255.124 35.2266 255.266 35.2976C257.503 36.349 259.951 36.8734 262.422 36.8303C262.545 36.8271 262.664 36.8706 262.757 36.9521C262.801 36.994 262.836 37.0444 262.861 37.1001C262.885 37.1559 262.898 37.216 262.899 37.2769C262.885 39.8199 263.247 42.351 263.975 44.7879C264.07 45.0433 264.135 45.309 264.168 45.5796C264.168 45.7115 265.487 61.1598 265.487 61.1598C265.498 61.2237 265.498 61.2888 265.487 61.3527C264.841 62.9797 263.86 64.4529 262.608 65.6768C261.356 66.9007 259.861 67.8481 258.22 68.4577C257.805 68.6183 257.365 68.7009 256.92 68.7013ZM253.053 63.4233C253.053 63.4233 253.997 66.5698 255.865 67.4833C256.177 67.6441 256.52 67.7347 256.871 67.7487C257.222 67.7627 257.571 67.6999 257.895 67.5645C259.375 67.0019 260.727 66.1478 261.871 65.0529C263.015 63.9579 263.927 62.6444 264.553 61.1903C263.244 45.6912 263.244 45.7014 263.244 45.6709C263.206 45.4815 263.155 45.295 263.092 45.1127C262.383 42.7542 262.011 40.3077 261.985 37.8453C259.523 37.7938 257.101 37.2158 254.88 36.1502L254.261 35.8863C252.627 35.309 251.086 34.4988 249.684 33.4808C249.054 36.1502 248.181 39.1851 246.151 41.3978L246.03 41.5297C245.787 41.7141 245.599 41.9603 245.485 42.2425C245.37 42.5247 245.334 42.8324 245.38 43.1334V44.5138C245.296 47.278 245.548 50.0421 246.131 52.7455C246.224 53.2183 246.414 53.6669 246.688 54.0633C246.962 54.4597 247.315 54.7954 247.725 55.0495C248.747 55.5469 249.912 55.6656 251.013 55.3845C251.076 55.3649 251.142 55.3593 251.207 55.368C251.272 55.3768 251.334 55.3998 251.389 55.4352C251.493 55.5065 251.566 55.6157 251.592 55.7397L253.063 63.4639L253.053 63.4233Z" fill="#14142B"/>
<path d="M252.129 61.0472C254.112 60.386 255.889 59.2213 257.286 57.6672C257.926 57.0154 258.418 56.2322 258.726 55.3717C259.035 54.5113 259.153 53.5941 259.072 52.6836C256.722 54.3565 253.996 55.4234 251.135 55.7895L252.129 61.0472Z" fill="#14142B"/>
<path d="M252.131 61.4933C252.049 61.4938 251.969 61.4728 251.898 61.4324C251.843 61.3999 251.797 61.3557 251.762 61.3031C251.727 61.2504 251.704 61.1906 251.695 61.1279L250.68 55.8702C250.67 55.8079 250.673 55.7442 250.688 55.683C250.704 55.6219 250.732 55.5647 250.771 55.515C250.809 55.4643 250.858 55.4226 250.914 55.3928C250.971 55.363 251.032 55.3458 251.096 55.3424C253.873 54.968 256.517 53.9229 258.8 52.2974C258.862 52.2529 258.935 52.2242 259.011 52.2136C259.087 52.203 259.164 52.2108 259.236 52.2365C259.306 52.2653 259.368 52.311 259.415 52.3695C259.463 52.4279 259.496 52.4973 259.51 52.5715C259.606 53.5493 259.485 54.536 259.157 55.4621C258.829 56.3881 258.302 57.2308 257.612 57.9307C256.156 59.5474 254.306 60.7606 252.243 61.4527L252.131 61.4933ZM251.664 56.1849L252.476 60.458C254.182 59.7986 255.713 58.7569 256.952 57.413C257.949 56.3586 258.551 54.9928 258.658 53.5459C256.545 54.9213 254.159 55.8217 251.664 56.1849Z" fill="#14142B"/>
<path d="M252.262 40.0059C252.262 40.0059 249.562 44.4617 250.282 45.1824C251.003 45.903 252.911 45.3245 252.911 45.3245" fill="white"/>
<path d="M251.44 45.9645C250.892 46.0021 250.35 45.8277 249.927 45.4773C249.126 44.6755 250.536 41.9147 251.846 39.7426C251.909 39.6415 252.009 39.569 252.124 39.5406C252.24 39.5121 252.362 39.53 252.465 39.5903C252.516 39.6206 252.561 39.6607 252.596 39.7084C252.631 39.7561 252.657 39.8103 252.671 39.868C252.685 39.9256 252.688 39.9855 252.679 40.0441C252.669 40.1028 252.648 40.159 252.617 40.2095C251.369 42.2395 250.415 44.4522 250.587 44.8683C250.963 45.2337 252.211 45.0307 252.749 44.8683C252.861 44.8386 252.979 44.8531 253.08 44.909C253.181 44.9648 253.257 45.0575 253.291 45.1678C253.325 45.278 253.315 45.3972 253.263 45.5003C253.212 45.6034 253.122 45.6825 253.013 45.7209C252.502 45.8733 251.973 45.9552 251.44 45.9645Z" fill="#14142B"/>
<path d="M247.805 43.1327C248.08 43.1314 248.301 42.7122 248.298 42.1965C248.296 41.6808 248.071 41.2638 247.796 41.2651C247.521 41.2665 247.301 41.6857 247.303 42.2014C247.306 42.7171 247.531 43.1341 247.805 43.1327Z" fill="#14142B"/>
<path d="M255.94 42.0683C256.215 42.0669 256.435 41.6478 256.433 41.1321C256.43 40.6163 256.206 40.1994 255.931 40.2007C255.656 40.202 255.436 40.6212 255.438 41.1369C255.441 41.6526 255.665 42.0696 255.94 42.0683Z" fill="#14142B"/>
<path d="M260.494 41.174C261.032 39.5602 263.011 38.8903 264.554 39.144C265.062 39.2037 265.541 39.4132 265.929 39.7458C266.318 40.0783 266.599 40.519 266.736 41.0116C266.892 41.6216 266.926 42.256 266.838 42.8792C266.7 44.0405 266.357 45.1679 265.823 46.2084C265.586 46.7402 265.219 47.2043 264.757 47.5584C264.459 47.7658 264.105 47.8769 263.742 47.8769C263.379 47.8769 263.025 47.7658 262.727 47.5584" fill="white"/>
<path d="M263.873 48.2996C263.404 48.2877 262.948 48.1473 262.554 47.8936C262.449 47.8276 262.374 47.7227 262.347 47.6018C262.319 47.4809 262.34 47.354 262.406 47.2491C262.472 47.1441 262.577 47.0696 262.698 47.042C262.819 47.0144 262.946 47.0359 263.051 47.1019C263.271 47.256 263.533 47.3387 263.802 47.3387C264.071 47.3387 264.333 47.256 264.553 47.1019C264.944 46.7873 265.254 46.3836 265.457 45.9245C265.953 44.9326 266.269 43.8603 266.39 42.7577C266.474 42.1956 266.443 41.6225 266.299 41.0728C266.187 40.664 265.955 40.2983 265.633 40.0231C265.311 39.748 264.913 39.5761 264.492 39.53C263.122 39.327 261.376 39.9258 260.94 41.2656C260.924 41.3282 260.896 41.3869 260.857 41.4381C260.818 41.4892 260.768 41.5317 260.712 41.5628C260.655 41.5939 260.593 41.613 260.529 41.6188C260.465 41.6247 260.4 41.6172 260.339 41.5968C260.278 41.5764 260.221 41.5436 260.174 41.5004C260.126 41.4572 260.087 41.4045 260.061 41.3458C260.034 41.287 260.02 41.2234 260.02 41.159C260.019 41.0945 260.031 41.0306 260.057 40.9713C260.656 39.1544 262.858 38.3424 264.634 38.6165C265.239 38.6955 265.807 38.9546 266.263 39.36C266.719 39.7654 267.043 40.2984 267.192 40.8901C267.363 41.5525 267.405 42.2419 267.314 42.9201C267.191 44.1327 266.847 45.3126 266.299 46.4015C266.032 47.0063 265.617 47.5337 265.091 47.9342C264.731 48.1765 264.307 48.3039 263.873 48.2996Z" fill="#14142B"/>
<path d="M220.99 88.259L222.462 87.4673C222.831 87.1835 223.074 86.7669 223.14 86.3063C223.207 85.8456 223.091 85.3773 222.817 85.0009L211.408 63.8584C211.235 63.4228 210.903 63.0693 210.479 62.8695C210.055 62.6697 209.571 62.6387 209.125 62.7825L207.653 63.5641C207.283 63.8497 207.04 64.2681 206.973 64.7304C206.907 65.1927 207.023 65.6627 207.298 66.0407L218.757 87.173C218.924 87.6021 219.247 87.9523 219.661 88.1537C220.075 88.355 220.549 88.3927 220.99 88.259Z" fill="white"/>
<path d="M220.472 88.8993C220.012 88.8682 219.569 88.7142 219.189 88.4536C218.808 88.193 218.505 87.8352 218.31 87.4174L206.851 66.2648C206.5 65.649 206.402 64.9215 206.577 64.2348C206.711 63.8011 207.01 63.437 207.409 63.2198L208.891 62.4383C209.441 62.2118 210.058 62.208 210.611 62.4277C211.164 62.6474 211.61 63.0733 211.855 63.6157L223.314 84.7581C223.497 85.0724 223.616 85.4202 223.663 85.781C223.71 86.1418 223.685 86.5084 223.588 86.8592C223.523 87.075 223.416 87.2757 223.273 87.45C223.131 87.6242 222.955 87.7684 222.756 87.8742L221.274 88.6659C221.031 88.8106 220.755 88.8909 220.472 88.8993ZM209.683 63.1589C209.573 63.1558 209.465 63.1802 209.368 63.23L207.886 64.0217C207.717 64.12 207.593 64.2802 207.541 64.4683C207.436 64.9211 207.509 65.397 207.744 65.7979L219.203 86.9404C219.589 87.661 220.32 88.0569 220.787 87.8031L222.269 87.0216C222.353 86.9721 222.428 86.9063 222.487 86.8279C222.546 86.7495 222.589 86.66 222.614 86.5648C222.718 86.1152 222.645 85.6427 222.411 85.2453L210.961 64.1029C210.845 63.8503 210.667 63.6312 210.444 63.4661C210.22 63.301 209.958 63.1953 209.683 63.1589Z" fill="#14142B"/>
<path d="M208.8 66.8522L197.533 46.1259L199.705 44.9688" fill="#14142B"/>
<path d="M208.81 67.3614C208.718 67.3627 208.628 67.3388 208.549 67.2923C208.471 67.2457 208.406 67.1783 208.363 67.0975L197.097 46.361C197.046 46.2375 197.046 46.0989 197.097 45.9753C197.139 45.8452 197.23 45.7363 197.35 45.6708L199.512 44.5239C199.631 44.4616 199.77 44.448 199.898 44.4859C200.027 44.5238 200.136 44.6102 200.203 44.7269C200.234 44.7861 200.254 44.851 200.26 44.9179C200.267 44.9848 200.26 45.0523 200.24 45.1165C200.22 45.1807 200.188 45.2404 200.145 45.292C200.102 45.3436 200.049 45.3861 199.989 45.4171L198.274 46.3306L209.297 66.6306C209.329 66.6892 209.349 66.7536 209.357 66.82C209.364 66.8865 209.358 66.9537 209.339 67.0179C209.32 67.082 209.289 67.1418 209.247 67.1938C209.205 67.2457 209.153 67.2889 209.094 67.3208C209.005 67.3598 208.906 67.3738 208.81 67.3614Z" fill="#14142B"/>
<path d="M211.132 65.627C215.713 63.0457 216.834 56.3528 213.637 50.6779C210.439 45.0029 204.133 42.495 199.552 45.0762C194.971 47.6575 193.85 54.3504 197.048 60.0254C200.245 65.7003 206.551 68.2082 211.132 65.627Z" fill="#14142B"/>
<path d="M207.197 67.1266C203.137 67.1266 198.894 64.4876 196.489 60.0216C194.729 56.9438 194.261 53.2935 195.189 49.8716C195.507 48.7329 196.049 47.6689 196.783 46.7418C197.516 45.8147 198.427 45.043 199.463 44.4719C204.345 41.8633 210.952 44.6038 214.19 50.5619C215.947 53.6411 216.41 57.2913 215.479 60.7118C215.163 61.8527 214.622 62.9188 213.888 63.8478C213.155 64.7768 212.243 65.5499 211.206 66.1218C209.972 66.7801 208.595 67.1252 207.197 67.1266ZM197.372 59.5649C200.346 65.0358 206.344 67.5935 210.729 65.2489C211.65 64.7437 212.46 64.0583 213.11 63.2335C213.761 62.4086 214.238 61.4613 214.515 60.4479C215.356 57.2931 214.919 53.9337 213.297 51.0998C210.323 45.6289 204.324 43.0813 199.94 45.4158C199.019 45.9197 198.209 46.6049 197.561 47.43C196.912 48.2551 196.437 49.2031 196.164 50.2168C195.318 53.3702 195.752 56.7299 197.372 59.5649Z" fill="#14142B"/>
<path d="M208.954 66.7891C213.535 64.2078 214.657 57.5149 211.459 51.84C208.261 46.165 201.956 43.6571 197.375 46.2384C192.794 48.8196 191.672 55.5125 194.87 61.1875C198.068 66.8624 204.373 69.3703 208.954 66.7891Z" fill="white"/>
<path d="M205.025 68.2951C200.965 68.2951 196.722 65.6459 194.317 61.1901C192.557 58.1122 192.09 54.4619 193.018 51.0401C193.336 49.8986 193.878 48.8321 194.614 47.9032C195.349 46.9742 196.263 46.2014 197.301 45.6301C202.183 43.0317 208.781 45.7722 212.018 51.7201C213.773 54.7997 214.24 58.4478 213.318 61.8701C212.997 63.0092 212.454 64.0733 211.718 65.0003C210.983 65.9274 210.071 66.6989 209.034 67.2699C207.804 67.9396 206.426 68.292 205.025 68.2951ZM201.32 45.7113C200.085 45.7038 198.868 46.0038 197.778 46.5842C196.854 47.0861 196.043 47.7705 195.392 48.5958C194.741 49.4211 194.265 50.3701 193.992 51.3852C193.151 54.54 193.588 57.8994 195.21 60.7333C198.184 66.2042 204.172 68.7518 208.557 66.4173C209.479 65.9135 210.29 65.2285 210.941 64.4035C211.591 63.5785 212.068 62.6304 212.343 61.6164C213.184 58.4615 212.747 55.1021 211.125 52.2682C208.902 48.1575 204.995 45.7012 201.32 45.7012V45.7113Z" fill="#14142B"/>
<path d="M207.181 63.6398C210.361 61.8484 211.14 57.2051 208.922 53.2688C206.704 49.3325 202.329 47.5937 199.149 49.3852C195.97 51.1766 195.191 55.8199 197.409 59.7562C199.627 63.6925 204.002 65.4313 207.181 63.6398Z" fill="white"/>
<path d="M204.457 64.8225C202.868 64.734 201.332 64.2261 200.004 63.3507C198.675 62.4753 197.603 61.2636 196.895 59.8389C195.668 57.6829 195.339 55.1302 195.981 52.7339C196.209 51.9231 196.596 51.1656 197.118 50.5052C197.641 49.8449 198.29 49.2949 199.026 48.887C202.488 47.0499 207.146 48.9784 209.44 53.1805C210.663 55.3378 210.991 57.8889 210.354 60.2855C210.126 61.0949 209.739 61.8509 209.217 62.5096C208.694 63.1682 208.045 63.7164 207.309 64.1222C206.431 64.59 205.451 64.8307 204.457 64.8225ZM201.889 49.1611C201.057 49.159 200.238 49.3612 199.503 49.7498C198.881 50.0883 198.334 50.5499 197.896 51.1066C197.458 51.6632 197.138 52.3032 196.956 52.9876C196.379 55.1355 196.679 57.4243 197.788 59.3517C199.818 63.0666 203.878 64.8124 206.832 63.229C207.454 62.8905 208.001 62.4289 208.439 61.8722C208.877 61.3155 209.197 60.6755 209.379 59.9911C209.665 58.9277 209.739 57.8183 209.596 56.7263C209.454 55.6343 209.097 54.5812 208.547 53.6271C207.928 52.3626 206.987 51.2837 205.818 50.4995C204.649 49.7154 203.293 49.2537 201.889 49.1611Z" fill="#14142B"/>
<path d="M223.141 80.0787L231.606 87.4983L223.771 93.9334C220.096 87.6607 219.406 83.4383 217.681 83.3165C215.224 83.144 212.179 82.7075 211.448 80.4948C210.881 79.1718 210.763 77.6992 211.113 76.3029C211.171 76.0509 211.282 75.814 211.437 75.6076C211.593 75.4013 211.79 75.23 212.017 75.1052C212.3 75.0239 212.598 75.0031 212.89 75.0443C214.524 75.1356 217.457 75.5112 217.589 75.4401C218.178 75.0849 218.604 74.6992 218.442 74.0293C220.583 75.501 221.081 78.5054 223.141 80.0787Z" fill="white"/>
<path d="M223.771 94.4402H223.689C223.616 94.4288 223.545 94.4011 223.484 94.3589C223.423 94.3167 223.371 94.2613 223.334 94.1966C222.082 92.0322 220.96 89.7953 219.974 87.4976C219.031 85.3966 218.34 83.8741 217.65 83.8233C214.798 83.6305 211.773 83.0925 210.971 80.6667C210.358 79.2409 210.24 77.6506 210.636 76.1499C210.673 75.8949 210.761 75.6499 210.895 75.4297C211.029 75.2096 211.206 75.0188 211.415 74.869C211.625 74.7191 211.863 74.6132 212.115 74.5578C212.366 74.5023 212.626 74.4984 212.88 74.5462C213.681 74.5462 214.717 74.6985 215.63 74.7898C216.351 74.8609 217.143 74.9421 217.427 74.9522C217.934 74.6274 218.005 74.4244 217.944 74.1402C217.925 74.0411 217.934 73.9382 217.972 73.8444C218.01 73.7506 218.074 73.67 218.158 73.6124C218.242 73.5557 218.341 73.5254 218.442 73.5254C218.543 73.5254 218.642 73.5557 218.726 73.6124C219.822 74.4829 220.706 75.5898 221.314 76.8503C221.828 77.9247 222.553 78.8844 223.446 79.672L231.911 87.1018C231.966 87.1495 232.01 87.2087 232.04 87.2754C232.07 87.3421 232.085 87.4145 232.083 87.4875C232.083 87.5613 232.067 87.6342 232.036 87.7009C232.004 87.7676 231.958 87.8265 231.901 87.8732L224.065 94.3083C223.983 94.3819 223.88 94.428 223.771 94.4402ZM212.524 75.5308C212.417 75.5243 212.31 75.5417 212.21 75.5815C211.905 75.6932 211.723 76.1195 211.591 76.4747C211.281 77.7669 211.402 79.125 211.936 80.3419C212.555 82.2095 215.346 82.6358 217.721 82.8083C219.02 82.8997 219.751 84.4729 220.898 87.0713C221.804 89.1542 222.82 91.1872 223.943 93.1613L230.855 87.4875L222.816 80.4738C221.821 79.6053 221.01 78.5457 220.431 77.3578C219.989 76.5033 219.44 75.7086 218.797 74.9928C218.567 75.3675 218.237 75.67 217.843 75.8657C217.65 75.9875 217.589 75.9977 215.529 75.7845C214.636 75.6932 213.61 75.5917 212.859 75.5511L212.524 75.5308Z" fill="#14142B"/>
<path d="M264.798 71.1777C257.917 79.2977 246.873 91.8837 246.873 91.8837L225.163 79.6225L215.195 87.976C215.195 87.976 236.815 111.778 248.487 109.555C260.605 104.426 270.937 95.831 278.186 84.8498" fill="#6A96FF"/>
<path d="M246.923 110.183C234.824 110.183 215.671 89.2542 214.818 88.3204C214.773 88.2696 214.737 88.2102 214.715 88.1458C214.692 88.0813 214.683 88.013 214.686 87.9448C214.694 87.8722 214.716 87.8019 214.753 87.7388C214.79 87.6758 214.84 87.6214 214.9 87.5794L224.857 79.226C224.935 79.1577 225.033 79.1153 225.136 79.1044C225.24 79.0935 225.344 79.1147 225.435 79.1651L246.75 91.2233C248.486 89.244 258.189 78.1805 264.391 70.8319C264.478 70.7283 264.603 70.6636 264.739 70.6522C264.874 70.6408 265.008 70.6835 265.112 70.771C265.215 70.8585 265.28 70.9836 265.291 71.1187C265.303 71.2539 265.26 71.388 265.172 71.4917C258.362 79.5508 247.349 92.0759 247.237 92.2078C247.16 92.2941 247.055 92.3512 246.941 92.3697C246.826 92.3882 246.709 92.3669 246.608 92.3093L225.192 80.2308L215.915 88.026C218.777 91.071 237.93 111.046 248.395 109.047C260.36 103.908 270.565 95.3893 277.758 84.5344C277.794 84.4774 277.84 84.4281 277.894 84.3895C277.949 84.3508 278.011 84.3235 278.076 84.3093C278.142 84.2951 278.209 84.2942 278.275 84.3067C278.341 84.3192 278.403 84.3449 278.459 84.3822C278.572 84.455 278.651 84.5696 278.68 84.7009C278.708 84.8322 278.684 84.9694 278.611 85.0825C271.273 96.1316 260.86 104.791 248.658 109.991C248.087 110.107 247.506 110.172 246.923 110.183Z" fill="#14142B"/>
<path d="M249.543 48.6339L253.136 47.8828C253.136 47.8828 253.968 53.9728 251.938 53.4146C249.908 52.8563 249.543 48.6339 249.543 48.6339Z" fill="white"/>
<path d="M252.172 53.9018C252.057 53.9158 251.941 53.9158 251.827 53.9018C249.553 53.3232 249.137 49.1922 249.096 48.7253C249.084 48.6156 249.114 48.5054 249.18 48.4169C249.246 48.3283 249.343 48.2681 249.452 48.2482L253.045 47.4971C253.106 47.4835 253.169 47.4828 253.23 47.495C253.291 47.5072 253.349 47.5322 253.4 47.5682C253.449 47.6042 253.491 47.6496 253.522 47.7019C253.554 47.7542 253.574 47.8123 253.583 47.8727C253.684 48.6441 254.161 52.5721 252.953 53.648C252.734 53.828 252.455 53.9186 252.172 53.9018ZM250.03 49.0095C250.213 50.2884 250.781 52.6838 252.06 52.9984C252.106 53.0262 252.159 53.0408 252.212 53.0408C252.266 53.0408 252.319 53.0262 252.365 52.9984C252.933 52.4909 252.943 50.2072 252.761 48.4918L250.03 49.0095Z" fill="#14142B"/>
<path d="M212.414 107.381C211.593 107.288 210.762 107.36 209.969 107.592C209.176 107.823 208.437 108.211 207.795 108.731C207.72 108.784 207.657 108.853 207.613 108.934C207.587 109.02 207.587 109.112 207.613 109.198C207.682 109.431 207.813 109.64 207.992 109.804C208.171 109.969 208.39 110.082 208.628 110.132C209.12 110.211 209.624 110.194 210.11 110.081L212.921 109.624C212.854 109.836 212.839 110.061 212.876 110.279C212.913 110.498 213.002 110.705 213.134 110.883C213.406 111.238 213.753 111.529 214.149 111.736C214.704 112.052 215.298 112.295 215.915 112.456" fill="white"/>
<path d="M215.914 112.953H215.782C215.118 112.781 214.48 112.522 213.884 112.182C213.421 111.936 213.019 111.589 212.707 111.167C212.509 110.891 212.383 110.57 212.341 110.233L210.19 110.588C209.637 110.696 209.068 110.696 208.515 110.588C208.171 110.524 207.853 110.364 207.596 110.127C207.34 109.89 207.155 109.586 207.063 109.249C207.002 109.064 207.002 108.865 207.063 108.68C207.136 108.514 207.252 108.37 207.398 108.264C208.096 107.701 208.898 107.281 209.759 107.03C210.62 106.779 211.522 106.702 212.412 106.802C212.487 106.8 212.562 106.813 212.631 106.842C212.7 106.87 212.762 106.914 212.813 106.969C212.864 107.024 212.902 107.089 212.925 107.16C212.948 107.232 212.956 107.307 212.947 107.381C212.938 107.456 212.913 107.527 212.874 107.591C212.834 107.655 212.782 107.709 212.719 107.751C212.657 107.792 212.586 107.82 212.512 107.831C212.438 107.843 212.363 107.838 212.291 107.817C211.538 107.732 210.776 107.798 210.05 108.01C209.323 108.223 208.646 108.578 208.058 109.056C208.117 109.185 208.208 109.297 208.321 109.382C208.435 109.467 208.567 109.522 208.708 109.543C209.138 109.598 209.574 109.577 209.997 109.482L212.808 109.025C212.898 109.009 212.991 109.017 213.077 109.049C213.163 109.082 213.238 109.136 213.296 109.208C213.353 109.28 213.391 109.365 213.405 109.456C213.419 109.547 213.409 109.64 213.377 109.726C213.341 109.859 213.337 109.999 213.363 110.134C213.39 110.269 213.446 110.397 213.529 110.507C213.756 110.796 214.044 111.031 214.371 111.197C214.886 111.496 215.439 111.721 216.016 111.867C216.148 111.905 216.261 111.993 216.331 112.112C216.401 112.231 216.423 112.372 216.391 112.507C216.375 112.625 216.319 112.733 216.232 112.815C216.145 112.896 216.033 112.945 215.914 112.953Z" fill="#14142B"/>
<path d="M252.454 219.083C252.454 219.083 253.469 225.701 252.607 226.127C251.744 226.554 225.019 228.381 225.882 224.899C226.349 223.011 232.601 218.961 241.036 215.287C243.583 219.53 250.475 218.687 252.454 219.083Z" fill="#14142B"/>
<path d="M237.037 227.498C230.805 227.498 227.049 227.011 225.872 226.036C225.676 225.897 225.527 225.704 225.442 225.479C225.357 225.255 225.34 225.011 225.395 224.778C226.014 222.301 233.829 217.876 240.843 214.82C240.956 214.771 241.083 214.764 241.201 214.801C241.319 214.839 241.419 214.918 241.482 215.023C243.34 218.129 247.715 218.312 250.617 218.434C251.297 218.437 251.975 218.488 252.647 218.586C252.749 218.609 252.84 218.662 252.911 218.738C252.982 218.814 253.028 218.91 253.043 219.012C254.129 226.006 253.206 226.442 252.911 226.584C252.292 226.879 245.695 227.335 240.315 227.457C239.097 227.477 238.031 227.498 237.037 227.498ZM240.833 215.927C232.236 219.713 226.735 223.509 226.359 225.062C226.359 225.062 226.359 225.153 226.45 225.255C228.815 227.457 250.425 226.138 252.323 225.721C252.597 225.112 252.384 222.179 252.008 219.571C251.622 219.571 251.105 219.51 250.536 219.489C247.725 219.327 243.086 219.134 240.833 215.927Z" fill="#14142B"/>
<path d="M278.621 220.117L279.321 227.74C282.062 229.618 305.407 233.322 303.316 230.237C301.225 227.151 290.263 218.828 290.263 218.828C288.607 220.048 286.659 220.809 284.615 221.036C282.571 221.262 280.504 220.945 278.621 220.117Z" fill="#14142B"/>
<path d="M300.099 231.902C293.634 231.902 280.885 229.426 279.038 228.157C278.973 228.117 278.92 228.062 278.881 227.996C278.842 227.931 278.819 227.857 278.815 227.781L278.114 220.169C278.105 220.082 278.119 219.993 278.154 219.913C278.19 219.833 278.246 219.764 278.317 219.712C278.387 219.658 278.47 219.624 278.557 219.613C278.645 219.602 278.734 219.615 278.815 219.651C280.616 220.454 282.599 220.765 284.56 220.553C286.521 220.341 288.391 219.613 289.98 218.443C290.068 218.369 290.179 218.328 290.294 218.328C290.409 218.328 290.521 218.369 290.609 218.443C291.055 218.788 301.652 226.858 303.804 229.974C303.947 230.163 304.02 230.397 304.009 230.634C303.998 230.872 303.904 231.098 303.743 231.273C303.205 231.709 301.896 231.902 300.099 231.902ZM279.799 227.436C283.21 229.344 301.855 231.882 302.961 230.481C301.063 227.781 292.05 220.788 290.264 219.418C288.665 220.517 286.827 221.219 284.903 221.464C282.979 221.709 281.023 221.492 279.2 220.829L279.799 227.436Z" fill="#14142B"/>
<path d="M156 117.207H97.3125V167.632H156V117.207Z" fill="white"/>
<path d="M156.03 168.16H97.3126C97.1753 168.16 97.0436 168.106 96.9465 168.009C96.8495 167.912 96.7949 167.78 96.7949 167.643V117.207C96.7949 117.07 96.8495 116.938 96.9465 116.841C97.0436 116.744 97.1753 116.69 97.3126 116.69H156.03C156.099 116.688 156.168 116.701 156.232 116.726C156.296 116.751 156.354 116.789 156.403 116.838C156.452 116.886 156.491 116.943 156.518 117.007C156.544 117.07 156.558 117.138 156.558 117.207V167.643C156.558 167.711 156.544 167.78 156.518 167.843C156.491 167.906 156.452 167.964 156.403 168.012C156.354 168.06 156.296 168.098 156.232 168.124C156.168 168.149 156.099 168.162 156.03 168.16ZM97.8708 167.145H155.513V117.735H97.8404L97.8708 167.145Z" fill="#14142B"/>
<path d="M145.646 160.375H105.808C105.743 160.376 105.679 160.365 105.62 160.341C105.56 160.317 105.506 160.281 105.46 160.235C105.415 160.19 105.379 160.135 105.355 160.076C105.331 160.016 105.319 159.952 105.32 159.888V126.88C105.319 126.816 105.331 126.752 105.355 126.692C105.379 126.632 105.415 126.578 105.46 126.532C105.506 126.487 105.56 126.451 105.62 126.427C105.679 126.403 105.743 126.391 105.808 126.393C105.937 126.393 106.061 126.444 106.152 126.535C106.243 126.627 106.295 126.751 106.295 126.88V159.36H145.646C145.776 159.36 145.9 159.411 145.991 159.503C146.082 159.594 146.134 159.718 146.134 159.847C146.141 159.915 146.134 159.983 146.112 160.048C146.091 160.112 146.056 160.172 146.01 160.222C145.964 160.272 145.907 160.311 145.845 160.338C145.782 160.364 145.714 160.377 145.646 160.375Z" fill="#D9DBE9"/>
<path d="M109.613 157.534C109.539 157.532 109.466 157.513 109.399 157.48C109.332 157.447 109.274 157.399 109.228 157.341C109.15 157.238 109.116 157.109 109.133 156.982C109.15 156.855 109.217 156.739 109.319 156.661L143.403 130.474C143.505 130.396 143.634 130.362 143.761 130.379C143.889 130.396 144.004 130.463 144.083 130.565C144.159 130.667 144.193 130.795 144.178 130.921C144.163 131.048 144.1 131.164 144.001 131.245L109.908 157.432C109.823 157.497 109.72 157.533 109.613 157.534Z" fill="#D9DBE9"/>
<path d="M142.836 136.087H142.745C142.618 136.062 142.507 135.989 142.435 135.882C142.362 135.776 142.335 135.645 142.359 135.518L143.151 131.316L138.258 131.062C138.194 131.06 138.132 131.045 138.073 131.018C138.015 130.991 137.963 130.953 137.92 130.905C137.876 130.858 137.843 130.803 137.821 130.743C137.799 130.683 137.789 130.619 137.791 130.555C137.802 130.426 137.861 130.305 137.957 130.219C138.054 130.132 138.18 130.085 138.309 130.088L143.76 130.382C143.829 130.384 143.897 130.401 143.958 130.433C144.02 130.464 144.073 130.51 144.115 130.565C144.156 130.619 144.186 130.682 144.202 130.748C144.217 130.815 144.219 130.884 144.206 130.951L143.313 135.691C143.29 135.801 143.23 135.9 143.144 135.972C143.057 136.044 142.949 136.084 142.836 136.087Z" fill="#D9DBE9"/>
</svg>
