<svg width="350" height="275" viewBox="0 0 350 275" fill="none" xmlns="http://www.w3.org/2000/svg">
<path d="M322.879 222.283H25.1188C24.9842 222.283 24.8551 222.229 24.76 222.134C24.6648 222.039 24.6113 221.91 24.6113 221.775C24.6113 221.64 24.6648 221.511 24.76 221.416C24.8551 221.321 24.9842 221.268 25.1188 221.268H322.879C323.014 221.268 323.143 221.321 323.238 221.416C323.333 221.511 323.387 221.64 323.387 221.775C323.387 221.91 323.333 222.039 323.238 222.134C323.143 222.229 323.014 222.283 322.879 222.283Z" fill="#D9DBE9"/>
<path d="M288.554 59.8027H217.047V217.848H288.554V59.8027Z" fill="#14142B"/>
<path d="M288.552 218.374H217.045C216.977 218.376 216.908 218.363 216.844 218.338C216.78 218.313 216.722 218.275 216.673 218.226C216.624 218.178 216.585 218.121 216.558 218.057C216.531 217.994 216.518 217.926 216.518 217.857V59.801C216.518 59.7321 216.531 59.664 216.558 59.6005C216.585 59.537 216.624 59.4795 216.673 59.4313C216.722 59.3831 216.78 59.3452 216.844 59.3198C216.908 59.2943 216.977 59.282 217.045 59.2833H288.552C288.621 59.282 288.689 59.2943 288.753 59.3198C288.817 59.3452 288.876 59.3831 288.925 59.4313C288.974 59.4795 289.013 59.537 289.04 59.6005C289.066 59.664 289.08 59.7321 289.08 59.801V217.857C289.08 217.926 289.066 217.994 289.04 218.057C289.013 218.121 288.974 218.178 288.925 218.226C288.876 218.275 288.817 218.313 288.753 218.338C288.689 218.363 288.621 218.376 288.552 218.374ZM217.573 217.359H288.024V60.3288H217.573V217.359Z" fill="#14142B"/>
<path d="M288.533 56.4219H217.067C213.922 56.4219 211.373 58.9712 211.373 62.116V74.2047C211.373 77.3495 213.922 79.8988 217.067 79.8988H288.533C291.678 79.8988 294.228 77.3495 294.228 74.2047V62.116C294.228 58.9712 291.678 56.4219 288.533 56.4219Z" fill="white"/>
<path d="M288.533 80.417H217.067C215.419 80.4143 213.839 79.7576 212.674 78.5911C211.51 77.4245 210.855 75.8435 210.855 74.1951V62.1166C210.855 60.4682 211.51 58.8871 212.674 57.7206C213.839 56.554 215.419 55.8973 217.067 55.8946H288.533C289.353 55.8906 290.165 56.0486 290.924 56.3595C291.682 56.6703 292.372 57.128 292.953 57.7062C293.534 58.2843 293.995 58.9716 294.309 59.7285C294.624 60.4853 294.786 61.2969 294.786 62.1166V74.1951C294.786 75.0147 294.624 75.8263 294.309 76.5831C293.995 77.34 293.534 78.0273 292.953 78.6054C292.372 79.1836 291.682 79.6413 290.924 79.9522C290.165 80.263 289.353 80.421 288.533 80.417ZM217.067 56.9401C215.696 56.9427 214.382 57.4893 213.413 58.4598C212.445 59.4303 211.901 60.7454 211.901 62.1166V74.1951C211.901 75.5662 212.445 76.8813 213.413 77.8518C214.382 78.8223 215.696 79.3689 217.067 79.3716H288.533C289.905 79.3689 291.219 78.8223 292.187 77.8518C293.156 76.8813 293.7 75.5662 293.7 74.1951V62.1166C293.7 60.7454 293.156 59.4303 292.187 58.4598C291.219 57.4893 289.905 56.9427 288.533 56.9401H217.067Z" fill="#14142B"/>
<path d="M221.178 70.6922C220.676 70.6922 220.186 70.5434 219.768 70.2645C219.351 69.9857 219.026 69.5894 218.834 69.1258C218.642 68.6621 218.591 68.1519 218.689 67.6597C218.787 67.1674 219.029 66.7153 219.384 66.3604C219.739 66.0055 220.191 65.7639 220.683 65.6659C221.175 65.568 221.686 65.6183 222.149 65.8103C222.613 66.0024 223.009 66.3276 223.288 66.7449C223.567 67.1622 223.716 67.6528 223.716 68.1547C223.713 68.8269 223.445 69.4707 222.969 69.946C222.494 70.4213 221.85 70.6895 221.178 70.6922ZM221.178 66.6322C220.877 66.6322 220.583 66.7215 220.332 66.8888C220.082 67.0561 219.887 67.2939 219.772 67.5721C219.656 67.8503 219.626 68.1564 219.685 68.4517C219.744 68.7471 219.889 69.0183 220.102 69.2313C220.314 69.4442 220.586 69.5892 220.881 69.6479C221.176 69.7067 221.483 69.6765 221.761 69.5613C222.039 69.4461 222.277 69.2509 222.444 69.0005C222.611 68.7502 222.701 68.4558 222.701 68.1547C222.698 67.7517 222.537 67.366 222.252 67.0811C221.967 66.7961 221.581 66.6349 221.178 66.6322Z" fill="#D9DBE9"/>
<path d="M229.745 70.6922C229.243 70.6922 228.752 70.5434 228.335 70.2645C227.917 69.9857 227.592 69.5894 227.4 69.1258C227.208 68.6621 227.158 68.1519 227.256 67.6597C227.354 67.1674 227.595 66.7153 227.95 66.3604C228.305 66.0055 228.757 65.7639 229.249 65.6659C229.742 65.568 230.252 65.6183 230.716 65.8103C231.179 66.0024 231.576 66.3276 231.854 66.7449C232.133 67.1622 232.282 67.6528 232.282 68.1547C232.282 68.8277 232.015 69.4731 231.539 69.949C231.063 70.4248 230.418 70.6922 229.745 70.6922ZM229.745 66.6322C229.443 66.6322 229.149 66.7215 228.899 66.8888C228.648 67.0561 228.453 67.2939 228.338 67.5721C228.223 67.8503 228.193 68.1564 228.251 68.4517C228.31 68.7471 228.455 69.0183 228.668 69.2313C228.881 69.4442 229.152 69.5892 229.448 69.6479C229.743 69.7067 230.049 69.6765 230.327 69.5613C230.605 69.4461 230.843 69.2509 231.01 69.0005C231.178 68.7502 231.267 68.4558 231.267 68.1547C231.267 67.7509 231.107 67.3636 230.821 67.0781C230.536 66.7926 230.148 66.6322 229.745 66.6322Z" fill="#D9DBE9"/>
<path d="M286.452 69.8292H237.224C237.09 69.8292 236.961 69.7757 236.865 69.6805C236.77 69.5854 236.717 69.4563 236.717 69.3217V66.9567C236.717 66.8221 236.77 66.693 236.865 66.5979C236.961 66.5027 237.09 66.4492 237.224 66.4492H286.452C286.586 66.4492 286.715 66.5027 286.811 66.5979C286.906 66.693 286.959 66.8221 286.959 66.9567V69.3521C286.952 69.4814 286.895 69.6028 286.8 69.6914C286.706 69.7801 286.581 69.8294 286.452 69.8292ZM237.732 68.8142H285.944V67.4642H237.732V68.8142Z" fill="#D9DBE9"/>
<path d="M288.533 85.3496H217.067C213.922 85.3496 211.373 87.899 211.373 91.0438V103.132C211.373 106.277 213.922 108.827 217.067 108.827H288.533C291.678 108.827 294.228 106.277 294.228 103.132V91.0438C294.228 87.899 291.678 85.3496 288.533 85.3496Z" fill="white"/>
<path d="M288.533 109.345H217.067C215.419 109.342 213.839 108.685 212.674 107.519C211.51 106.352 210.855 104.771 210.855 103.123V91.0443C210.855 89.3959 211.51 87.8148 212.674 86.6483C213.839 85.4817 215.419 84.825 217.067 84.8223H288.533C289.353 84.8183 290.165 84.9763 290.924 85.2872C291.682 85.5981 292.372 86.0557 292.953 86.6339C293.534 87.2121 293.995 87.8993 294.309 88.6562C294.624 89.4131 294.786 90.2246 294.786 91.0443V103.123C294.786 103.942 294.624 104.754 294.309 105.511C293.995 106.268 293.534 106.955 292.953 107.533C292.372 108.111 291.682 108.569 290.924 108.88C290.165 109.191 289.353 109.349 288.533 109.345ZM217.067 85.8678C215.696 85.8705 214.382 86.417 213.413 87.3875C212.445 88.358 211.901 89.6732 211.901 91.0443V103.123C211.901 104.494 212.445 105.809 213.413 106.78C214.382 107.75 215.696 108.297 217.067 108.299H288.533C289.905 108.297 291.219 107.75 292.187 106.78C293.156 105.809 293.7 104.494 293.7 103.123V91.0443C293.7 89.6732 293.156 88.358 292.187 87.3875C291.219 86.417 289.905 85.8705 288.533 85.8678H217.067Z" fill="#14142B"/>
<path d="M221.178 99.6199C220.676 99.6199 220.186 99.4711 219.768 99.1923C219.351 98.9135 219.026 98.5172 218.834 98.0535C218.642 97.5898 218.591 97.0796 218.689 96.5874C218.787 96.0952 219.029 95.643 219.384 95.2881C219.739 94.9333 220.191 94.6916 220.683 94.5937C221.175 94.4958 221.686 94.546 222.149 94.7381C222.613 94.9301 223.009 95.2554 223.288 95.6727C223.567 96.09 223.716 96.5806 223.716 97.0824C223.713 97.7546 223.445 98.3985 222.969 98.8738C222.494 99.3491 221.85 99.6173 221.178 99.6199ZM221.178 95.5599C220.877 95.5599 220.583 95.6492 220.332 95.8165C220.082 95.9838 219.887 96.2216 219.772 96.4998C219.656 96.778 219.626 97.0841 219.685 97.3795C219.744 97.6748 219.889 97.9461 220.102 98.159C220.314 98.3719 220.586 98.5169 220.881 98.5757C221.176 98.6344 221.483 98.6043 221.761 98.489C222.039 98.3738 222.277 98.1787 222.444 97.9283C222.611 97.6779 222.701 97.3835 222.701 97.0824C222.698 96.6795 222.537 96.2937 222.252 96.0088C221.967 95.7238 221.581 95.5626 221.178 95.5599Z" fill="#D9DBE9"/>
<path d="M229.745 99.6199C229.243 99.6199 228.752 99.4711 228.335 99.1923C227.917 98.9135 227.592 98.5172 227.4 98.0535C227.208 97.5898 227.158 97.0796 227.256 96.5874C227.354 96.0952 227.595 95.643 227.95 95.2881C228.305 94.9333 228.757 94.6916 229.249 94.5937C229.742 94.4958 230.252 94.546 230.716 94.7381C231.179 94.9301 231.576 95.2554 231.854 95.6727C232.133 96.09 232.282 96.5806 232.282 97.0824C232.282 97.7554 232.015 98.4008 231.539 98.8767C231.063 99.3526 230.418 99.6199 229.745 99.6199ZM229.745 95.5599C229.443 95.5599 229.149 95.6492 228.899 95.8165C228.648 95.9838 228.453 96.2216 228.338 96.4998C228.223 96.778 228.193 97.0841 228.251 97.3795C228.31 97.6748 228.455 97.9461 228.668 98.159C228.881 98.3719 229.152 98.5169 229.448 98.5757C229.743 98.6344 230.049 98.6043 230.327 98.489C230.605 98.3738 230.843 98.1787 231.01 97.9283C231.178 97.6779 231.267 97.3835 231.267 97.0824C231.267 96.6786 231.107 96.2914 230.821 96.0059C230.536 95.7203 230.148 95.5599 229.745 95.5599Z" fill="#D9DBE9"/>
<path d="M286.452 98.7874H237.224C237.09 98.7874 236.961 98.7339 236.865 98.6387C236.77 98.5435 236.717 98.4145 236.717 98.2799V95.8845C236.717 95.7499 236.77 95.6208 236.865 95.5256C236.961 95.4304 237.09 95.377 237.224 95.377H286.452C286.586 95.377 286.715 95.4304 286.811 95.5256C286.906 95.6208 286.959 95.7499 286.959 95.8845V98.2494C286.963 98.3186 286.953 98.3879 286.93 98.453C286.906 98.5181 286.869 98.5777 286.822 98.6281C286.774 98.6785 286.717 98.7186 286.653 98.746C286.59 98.7734 286.521 98.7875 286.452 98.7874ZM237.732 97.7724H285.944V96.392H237.732V97.7724Z" fill="#D9DBE9"/>
<path d="M288.533 114.277H217.067C213.922 114.277 211.373 116.827 211.373 119.971V132.06C211.373 135.205 213.922 137.754 217.067 137.754H288.533C291.678 137.754 294.228 135.205 294.228 132.06V119.971C294.228 116.827 291.678 114.277 288.533 114.277Z" fill="white"/>
<path d="M288.533 138.271H217.067C215.419 138.268 213.839 137.611 212.674 136.445C211.51 135.278 210.855 133.697 210.855 132.049V119.97C210.855 118.322 211.51 116.741 212.674 115.574C213.839 114.408 215.419 113.751 217.067 113.748H288.533C289.353 113.744 290.165 113.902 290.924 114.213C291.682 114.524 292.372 114.982 292.953 115.56C293.534 116.138 293.995 116.825 294.309 117.582C294.624 118.339 294.786 119.15 294.786 119.97V132.049C294.786 132.868 294.624 133.68 294.309 134.437C293.995 135.194 293.534 135.881 292.953 136.459C292.372 137.037 291.682 137.495 290.924 137.806C290.165 138.117 289.353 138.275 288.533 138.271ZM217.067 114.794C215.696 114.796 214.382 115.343 213.413 116.313C212.445 117.284 211.901 118.599 211.901 119.97V132.049C211.901 133.42 212.445 134.735 213.413 135.705C214.382 136.676 215.696 137.222 217.067 137.225H288.533C289.905 137.222 291.219 136.676 292.187 135.705C293.156 134.735 293.7 133.42 293.7 132.049V119.97C293.7 118.599 293.156 117.284 292.187 116.313C291.219 115.343 289.905 114.796 288.533 114.794H217.067Z" fill="#14142B"/>
<path d="M221.178 128.548C220.676 128.548 220.186 128.399 219.768 128.12C219.351 127.841 219.026 127.445 218.834 126.981C218.642 126.518 218.591 126.007 218.689 125.515C218.787 125.023 219.029 124.571 219.384 124.216C219.739 123.861 220.191 123.619 220.683 123.521C221.175 123.424 221.686 123.474 222.149 123.666C222.613 123.858 223.009 124.183 223.288 124.6C223.567 125.018 223.716 125.508 223.716 126.01C223.713 126.682 223.445 127.326 222.969 127.801C222.494 128.277 221.85 128.545 221.178 128.548ZM221.178 124.488C220.877 124.488 220.583 124.577 220.332 124.744C220.082 124.912 219.887 125.149 219.772 125.428C219.656 125.706 219.626 126.012 219.685 126.307C219.744 126.603 219.889 126.874 220.102 127.087C220.314 127.3 220.586 127.445 220.881 127.503C221.176 127.562 221.483 127.532 221.761 127.417C222.039 127.302 222.277 127.106 222.444 126.856C222.611 126.606 222.701 126.311 222.701 126.01C222.698 125.607 222.537 125.221 222.252 124.937C221.967 124.652 221.581 124.49 221.178 124.488Z" fill="#D9DBE9"/>
<path d="M229.745 128.548C229.243 128.548 228.752 128.399 228.335 128.12C227.917 127.841 227.592 127.445 227.4 126.981C227.208 126.518 227.158 126.007 227.256 125.515C227.354 125.023 227.595 124.571 227.95 124.216C228.305 123.861 228.757 123.619 229.249 123.521C229.742 123.424 230.252 123.474 230.716 123.666C231.179 123.858 231.576 124.183 231.854 124.6C232.133 125.018 232.282 125.508 232.282 126.01C232.282 126.683 232.015 127.329 231.539 127.804C231.063 128.28 230.418 128.548 229.745 128.548ZM229.745 124.488C229.443 124.488 229.149 124.577 228.899 124.744C228.648 124.912 228.453 125.149 228.338 125.428C228.223 125.706 228.193 126.012 228.251 126.307C228.31 126.603 228.455 126.874 228.668 127.087C228.881 127.3 229.152 127.445 229.448 127.503C229.743 127.562 230.049 127.532 230.327 127.417C230.605 127.302 230.843 127.106 231.01 126.856C231.178 126.606 231.267 126.311 231.267 126.01C231.267 125.606 231.107 125.219 230.821 124.934C230.536 124.648 230.148 124.488 229.745 124.488Z" fill="#D9DBE9"/>
<path d="M286.452 127.686H237.224C237.09 127.686 236.961 127.632 236.865 127.537C236.77 127.442 236.717 127.313 236.717 127.178V124.783C236.717 124.648 236.77 124.519 236.865 124.424C236.961 124.329 237.09 124.275 237.224 124.275H286.452C286.586 124.275 286.715 124.329 286.811 124.424C286.906 124.519 286.959 124.648 286.959 124.783V127.178C286.959 127.313 286.906 127.442 286.811 127.537C286.715 127.632 286.586 127.686 286.452 127.686ZM237.732 126.671H285.944V125.29H237.732V126.671Z" fill="#D9DBE9"/>
<path d="M288.533 143.193H217.067C213.922 143.193 211.373 145.743 211.373 148.888V160.976C211.373 164.121 213.922 166.67 217.067 166.67H288.533C291.678 166.67 294.228 164.121 294.228 160.976V148.888C294.228 145.743 291.678 143.193 288.533 143.193Z" fill="white"/>
<path d="M288.533 167.198H217.067C215.419 167.196 213.839 166.539 212.674 165.372C211.51 164.206 210.855 162.625 210.855 160.976V148.898C210.855 147.249 211.51 145.668 212.674 144.502C213.839 143.335 215.419 142.679 217.067 142.676H288.533C289.353 142.672 290.165 142.83 290.924 143.141C291.682 143.452 292.372 143.909 292.953 144.487C293.534 145.066 293.995 145.753 294.309 146.51C294.624 147.267 294.786 148.078 294.786 148.898V160.976C294.786 161.796 294.624 162.608 294.309 163.364C293.995 164.121 293.534 164.809 292.953 165.387C292.372 165.965 291.682 166.423 290.924 166.733C290.165 167.044 289.353 167.202 288.533 167.198ZM217.067 143.721C215.696 143.724 214.382 144.271 213.413 145.241C212.445 146.212 211.901 147.527 211.901 148.898V160.976C211.901 162.347 212.445 163.663 213.413 164.633C214.382 165.604 215.696 166.15 217.067 166.153H288.533C289.905 166.15 291.219 165.604 292.187 164.633C293.156 163.663 293.7 162.347 293.7 160.976V148.898C293.7 147.527 293.156 146.212 292.187 145.241C291.219 144.271 289.905 143.724 288.533 143.721H217.067Z" fill="#14142B"/>
<path d="M221.178 157.475C220.676 157.475 220.186 157.327 219.768 157.048C219.351 156.769 219.026 156.373 218.834 155.909C218.642 155.445 218.591 154.935 218.689 154.443C218.787 153.951 219.029 153.498 219.384 153.144C219.739 152.789 220.191 152.547 220.683 152.449C221.175 152.351 221.686 152.401 222.149 152.594C222.613 152.786 223.009 153.111 223.288 153.528C223.567 153.945 223.716 154.436 223.716 154.938C223.713 155.61 223.445 156.254 222.969 156.729C222.494 157.205 221.85 157.473 221.178 157.475ZM221.178 153.415C220.877 153.415 220.583 153.505 220.332 153.672C220.082 153.839 219.887 154.077 219.772 154.355C219.656 154.633 219.626 154.94 219.685 155.235C219.744 155.53 219.889 155.802 220.102 156.014C220.314 156.227 220.586 156.372 220.881 156.431C221.176 156.49 221.483 156.46 221.761 156.345C222.039 156.229 222.277 156.034 222.444 155.784C222.611 155.533 222.701 155.239 222.701 154.938C222.698 154.535 222.537 154.149 222.252 153.864C221.967 153.579 221.581 153.418 221.178 153.415Z" fill="#D9DBE9"/>
<path d="M229.745 157.475C229.243 157.475 228.752 157.327 228.335 157.048C227.917 156.769 227.592 156.373 227.4 155.909C227.208 155.445 227.158 154.935 227.256 154.443C227.354 153.951 227.595 153.498 227.95 153.144C228.305 152.789 228.757 152.547 229.249 152.449C229.742 152.351 230.252 152.401 230.716 152.594C231.179 152.786 231.576 153.111 231.854 153.528C232.133 153.945 232.282 154.436 232.282 154.938C232.282 155.611 232.015 156.256 231.539 156.732C231.063 157.208 230.418 157.475 229.745 157.475ZM229.745 153.415C229.443 153.415 229.149 153.505 228.899 153.672C228.648 153.839 228.453 154.077 228.338 154.355C228.223 154.633 228.193 154.94 228.251 155.235C228.31 155.53 228.455 155.802 228.668 156.014C228.881 156.227 229.152 156.372 229.448 156.431C229.743 156.49 230.049 156.46 230.327 156.345C230.605 156.229 230.843 156.034 231.01 155.784C231.178 155.533 231.267 155.239 231.267 154.938C231.267 154.534 231.107 154.147 230.821 153.861C230.536 153.576 230.148 153.415 229.745 153.415Z" fill="#D9DBE9"/>
<path d="M286.452 156.643H237.224C237.09 156.643 236.961 156.589 236.865 156.494C236.77 156.399 236.717 156.27 236.717 156.135V153.74C236.717 153.605 236.77 153.476 236.865 153.381C236.961 153.286 237.09 153.232 237.224 153.232H286.452C286.586 153.232 286.715 153.286 286.811 153.381C286.906 153.476 286.959 153.605 286.959 153.74V156.105C286.963 156.174 286.953 156.243 286.93 156.308C286.906 156.374 286.869 156.433 286.822 156.484C286.774 156.534 286.717 156.574 286.653 156.602C286.59 156.629 286.521 156.643 286.452 156.643ZM237.732 155.628H285.944V154.247H237.732V155.628Z" fill="#D9DBE9"/>
<path d="M288.533 172.121H217.067C213.922 172.121 211.373 174.67 211.373 177.815V189.904C211.373 193.049 213.922 195.598 217.067 195.598H288.533C291.678 195.598 294.228 193.049 294.228 189.904V177.815C294.228 174.67 291.678 172.121 288.533 172.121Z" fill="white"/>
<path d="M288.533 196.126H217.067C215.419 196.123 213.839 195.467 212.674 194.3C211.51 193.133 210.855 191.552 210.855 189.904V177.826C210.855 176.177 211.51 174.596 212.674 173.43C213.839 172.263 215.419 171.606 217.067 171.604H288.533C289.353 171.6 290.165 171.758 290.924 172.068C291.682 172.379 292.372 172.837 292.953 173.415C293.534 173.993 293.995 174.681 294.309 175.437C294.624 176.194 294.786 177.006 294.786 177.826V189.904C294.786 190.724 294.624 191.535 294.309 192.292C293.995 193.049 293.534 193.736 292.953 194.314C292.372 194.893 291.682 195.35 290.924 195.661C290.165 195.972 289.353 196.13 288.533 196.126ZM217.067 172.649C215.696 172.652 214.382 173.198 213.413 174.169C212.445 175.139 211.901 176.454 211.901 177.826V189.904C211.901 191.275 212.445 192.59 213.413 193.561C214.382 194.531 215.696 195.078 217.067 195.081H288.533C289.905 195.078 291.219 194.531 292.187 193.561C293.156 192.59 293.7 191.275 293.7 189.904V177.826C293.7 176.454 293.156 175.139 292.187 174.169C291.219 173.198 289.905 172.652 288.533 172.649H217.067Z" fill="#14142B"/>
<path d="M221.178 186.403C220.676 186.403 220.186 186.254 219.768 185.975C219.351 185.697 219.026 185.3 218.834 184.837C218.642 184.373 218.591 183.863 218.689 183.371C218.787 182.878 219.029 182.426 219.384 182.071C219.739 181.716 220.191 181.475 220.683 181.377C221.175 181.279 221.686 181.329 222.149 181.521C222.613 181.713 223.009 182.039 223.288 182.456C223.567 182.873 223.716 183.364 223.716 183.866C223.713 184.538 223.445 185.182 222.969 185.657C222.494 186.132 221.85 186.4 221.178 186.403ZM221.178 182.343C220.877 182.343 220.583 182.432 220.332 182.6C220.082 182.767 219.887 183.005 219.772 183.283C219.656 183.561 219.626 183.867 219.685 184.163C219.744 184.458 219.889 184.729 220.102 184.942C220.314 185.155 220.586 185.3 220.881 185.359C221.176 185.418 221.483 185.387 221.761 185.272C222.039 185.157 222.277 184.962 222.444 184.711C222.611 184.461 222.701 184.167 222.701 183.866C222.698 183.463 222.537 183.077 222.252 182.792C221.967 182.507 221.581 182.346 221.178 182.343Z" fill="#D9DBE9"/>
<path d="M229.745 186.403C229.243 186.403 228.752 186.254 228.335 185.975C227.917 185.697 227.592 185.3 227.4 184.837C227.208 184.373 227.158 183.863 227.256 183.371C227.354 182.878 227.595 182.426 227.95 182.071C228.305 181.716 228.757 181.475 229.249 181.377C229.742 181.279 230.252 181.329 230.716 181.521C231.179 181.713 231.576 182.039 231.854 182.456C232.133 182.873 232.282 183.364 232.282 183.866C232.282 184.539 232.015 185.184 231.539 185.66C231.063 186.136 230.418 186.403 229.745 186.403ZM229.745 182.343C229.443 182.343 229.149 182.432 228.899 182.6C228.648 182.767 228.453 183.005 228.338 183.283C228.223 183.561 228.193 183.867 228.251 184.163C228.31 184.458 228.455 184.729 228.668 184.942C228.881 185.155 229.152 185.3 229.448 185.359C229.743 185.418 230.049 185.387 230.327 185.272C230.605 185.157 230.843 184.962 231.01 184.711C231.178 184.461 231.267 184.167 231.267 183.866C231.267 183.462 231.107 183.075 230.821 182.789C230.536 182.504 230.148 182.343 229.745 182.343Z" fill="#D9DBE9"/>
<path d="M286.452 185.539H237.224C237.09 185.539 236.961 185.486 236.865 185.391C236.77 185.295 236.717 185.166 236.717 185.032V182.636C236.717 182.502 236.77 182.373 236.865 182.278C236.961 182.182 237.09 182.129 237.224 182.129H286.452C286.586 182.129 286.715 182.182 286.811 182.278C286.906 182.373 286.959 182.502 286.959 182.636V185.032C286.959 185.166 286.906 185.295 286.811 185.391C286.715 185.486 286.586 185.539 286.452 185.539ZM237.732 184.524H285.944V183.144H237.732V184.524Z" fill="#D9DBE9"/>
<path d="M288.533 201.049H217.067C213.922 201.049 211.373 203.598 211.373 206.743V218.832C211.373 221.976 213.922 224.526 217.067 224.526H288.533C291.678 224.526 294.228 221.976 294.228 218.832V206.743C294.228 203.598 291.678 201.049 288.533 201.049Z" fill="white"/>
<path d="M288.533 225.054H217.067C215.419 225.051 213.839 224.394 212.674 223.228C211.51 222.061 210.855 220.48 210.855 218.832V206.753C210.855 205.105 211.51 203.524 212.674 202.357C213.839 201.191 215.419 200.534 217.067 200.531H288.533C289.353 200.527 290.165 200.685 290.924 200.996C291.682 201.307 292.372 201.765 292.953 202.343C293.534 202.921 293.995 203.608 294.309 204.365C294.624 205.122 294.786 205.934 294.786 206.753V218.832C294.786 219.651 294.624 220.463 294.309 221.22C293.995 221.977 293.534 222.664 292.953 223.242C292.372 223.82 291.682 224.278 290.924 224.589C290.165 224.9 289.353 225.058 288.533 225.054ZM217.067 201.577C215.696 201.579 214.382 202.126 213.413 203.097C212.445 204.067 211.901 205.382 211.901 206.753V218.832C211.901 220.203 212.445 221.518 213.413 222.489C214.382 223.459 215.696 224.006 217.067 224.008H288.533C289.905 224.006 291.219 223.459 292.187 222.489C293.156 221.518 293.7 220.203 293.7 218.832V206.753C293.7 205.382 293.156 204.067 292.187 203.097C291.219 202.126 289.905 201.579 288.533 201.577H217.067Z" fill="#14142B"/>
<path d="M221.178 215.331C220.676 215.331 220.186 215.182 219.768 214.903C219.351 214.624 219.026 214.228 218.834 213.764C218.642 213.301 218.591 212.791 218.689 212.298C218.787 211.806 219.029 211.354 219.384 210.999C219.739 210.644 220.191 210.403 220.683 210.305C221.175 210.207 221.686 210.257 222.149 210.449C222.613 210.641 223.009 210.966 223.288 211.384C223.567 211.801 223.716 212.291 223.716 212.793C223.713 213.466 223.445 214.109 222.969 214.585C222.494 215.06 221.85 215.328 221.178 215.331ZM221.178 211.271C220.877 211.271 220.583 211.36 220.332 211.527C220.082 211.695 219.887 211.933 219.772 212.211C219.656 212.489 219.626 212.795 219.685 213.09C219.744 213.386 219.889 213.657 220.102 213.87C220.314 214.083 220.586 214.228 220.881 214.287C221.176 214.345 221.483 214.315 221.761 214.2C222.039 214.085 222.277 213.89 222.444 213.639C222.611 213.389 222.701 213.094 222.701 212.793C222.698 212.39 222.537 212.005 222.252 211.72C221.967 211.435 221.581 211.274 221.178 211.271Z" fill="#D9DBE9"/>
<path d="M229.745 215.331C229.243 215.331 228.752 215.182 228.335 214.903C227.917 214.624 227.592 214.228 227.4 213.764C227.208 213.301 227.158 212.791 227.256 212.298C227.354 211.806 227.595 211.354 227.95 210.999C228.305 210.644 228.757 210.403 229.249 210.305C229.742 210.207 230.252 210.257 230.716 210.449C231.179 210.641 231.576 210.966 231.854 211.384C232.133 211.801 232.282 212.291 232.282 212.793C232.282 213.466 232.015 214.112 231.539 214.588C231.063 215.064 230.418 215.331 229.745 215.331ZM229.745 211.271C229.443 211.271 229.149 211.36 228.899 211.527C228.648 211.695 228.453 211.933 228.338 212.211C228.223 212.489 228.193 212.795 228.251 213.09C228.31 213.386 228.455 213.657 228.668 213.87C228.881 214.083 229.152 214.228 229.448 214.287C229.743 214.345 230.049 214.315 230.327 214.2C230.605 214.085 230.843 213.89 231.01 213.639C231.178 213.389 231.267 213.094 231.267 212.793C231.267 212.39 231.107 212.002 230.821 211.717C230.536 211.431 230.148 211.271 229.745 211.271Z" fill="#D9DBE9"/>
<path d="M286.452 214.498H237.224C237.09 214.498 236.961 214.445 236.865 214.35C236.77 214.254 236.717 214.125 236.717 213.991V211.595C236.717 211.461 236.77 211.332 236.865 211.237C236.961 211.141 237.09 211.088 237.224 211.088H286.452C286.586 211.088 286.715 211.141 286.811 211.237C286.906 211.332 286.959 211.461 286.959 211.595V213.96C286.963 214.03 286.953 214.099 286.93 214.164C286.906 214.229 286.869 214.289 286.822 214.339C286.774 214.389 286.717 214.43 286.653 214.457C286.59 214.484 286.521 214.498 286.452 214.498ZM237.732 213.483H285.944V212.103H237.732V213.483Z" fill="#D9DBE9"/>
<path d="M228.151 224.525H219.574V228.017H228.151V224.525Z" fill="#14142B"/>
<path d="M228.151 228.545H219.574C219.437 228.545 219.305 228.49 219.208 228.393C219.111 228.296 219.057 228.165 219.057 228.027V224.525C219.057 224.388 219.111 224.257 219.208 224.159C219.305 224.062 219.437 224.008 219.574 224.008H228.151C228.288 224.008 228.42 224.062 228.517 224.159C228.614 224.257 228.669 224.388 228.669 224.525V228.027C228.669 228.165 228.614 228.296 228.517 228.393C228.42 228.49 228.288 228.545 228.151 228.545ZM220.102 227.53H227.623V225.084H220.102V227.53Z" fill="#14142B"/>
<path d="M286.026 224.525H277.449V228.017H286.026V224.525Z" fill="#14142B"/>
<path d="M286.026 228.545H277.449C277.312 228.545 277.18 228.49 277.083 228.393C276.986 228.296 276.932 228.165 276.932 228.027V224.525C276.932 224.388 276.986 224.257 277.083 224.159C277.18 224.062 277.312 224.008 277.449 224.008H286.026C286.163 224.008 286.295 224.062 286.392 224.159C286.489 224.257 286.544 224.388 286.544 224.525V228.027C286.544 228.165 286.489 228.296 286.392 228.393C286.295 228.49 286.163 228.545 286.026 228.545ZM277.977 227.53H285.498V225.084H277.977V227.53Z" fill="#14142B"/>
<path d="M192.981 119.84H121.475V217.858H192.981V119.84Z" fill="#14142B"/>
<path d="M192.98 218.375H121.473C121.336 218.375 121.204 218.32 121.107 218.223C121.01 218.126 120.955 217.994 120.955 217.857V119.838C120.954 119.77 120.966 119.701 120.992 119.637C121.017 119.573 121.055 119.515 121.103 119.466C121.151 119.417 121.209 119.378 121.272 119.351C121.336 119.324 121.404 119.311 121.473 119.311H192.98C193.12 119.311 193.254 119.366 193.353 119.465C193.452 119.564 193.507 119.698 193.507 119.838V217.857C193.507 217.926 193.494 217.994 193.467 218.057C193.44 218.121 193.401 218.178 193.352 218.227C193.303 218.275 193.245 218.313 193.181 218.338C193.117 218.364 193.048 218.376 192.98 218.375ZM122.001 217.36H192.462V120.366H122.001V217.36Z" fill="#14142B"/>
<path d="M192.961 114.277H121.495C118.35 114.277 115.801 116.827 115.801 119.971V132.06C115.801 135.205 118.35 137.754 121.495 137.754H192.961C196.106 137.754 198.655 135.205 198.655 132.06V119.971C198.655 116.827 196.106 114.277 192.961 114.277Z" fill="white"/>
<path d="M192.961 138.272H121.505C119.856 138.27 118.275 137.613 117.109 136.447C115.942 135.281 115.286 133.7 115.283 132.05V119.972C115.286 118.323 115.942 116.742 117.109 115.575C118.275 114.409 119.856 113.753 121.505 113.75H192.961C194.61 113.753 196.192 114.409 197.358 115.575C198.524 116.742 199.18 118.323 199.183 119.972V132.05C199.18 133.7 198.524 135.281 197.358 136.447C196.192 137.613 194.61 138.27 192.961 138.272ZM121.505 114.795C120.133 114.798 118.818 115.344 117.848 116.315C116.878 117.285 116.331 118.6 116.329 119.972V132.05C116.331 133.423 116.878 134.738 117.848 135.708C118.818 136.678 120.133 137.224 121.505 137.227H192.961C194.333 137.224 195.648 136.678 196.619 135.708C197.589 134.738 198.135 133.423 198.138 132.05V119.972C198.135 118.6 197.589 117.285 196.619 116.315C195.648 115.344 194.333 114.798 192.961 114.795H121.505Z" fill="#14142B"/>
<path d="M125.604 128.548C125.102 128.548 124.611 128.399 124.194 128.12C123.777 127.841 123.452 127.445 123.26 126.981C123.068 126.518 123.017 126.007 123.115 125.515C123.213 125.023 123.455 124.571 123.81 124.216C124.164 123.861 124.617 123.619 125.109 123.521C125.601 123.424 126.111 123.474 126.575 123.666C127.039 123.858 127.435 124.183 127.714 124.6C127.993 125.018 128.141 125.508 128.141 126.01C128.141 126.683 127.874 127.329 127.398 127.804C126.922 128.28 126.277 128.548 125.604 128.548ZM125.604 124.488C125.303 124.488 125.008 124.577 124.758 124.744C124.508 124.912 124.313 125.149 124.197 125.428C124.082 125.706 124.052 126.012 124.111 126.307C124.169 126.603 124.314 126.874 124.527 127.087C124.74 127.3 125.012 127.445 125.307 127.503C125.602 127.562 125.908 127.532 126.187 127.417C126.465 127.302 126.703 127.106 126.87 126.856C127.037 126.606 127.126 126.311 127.126 126.01C127.126 125.606 126.966 125.219 126.68 124.934C126.395 124.648 126.008 124.488 125.604 124.488Z" fill="#D9DBE9"/>
<path d="M134.182 128.548C133.68 128.548 133.19 128.399 132.772 128.12C132.355 127.841 132.03 127.445 131.838 126.981C131.646 126.518 131.595 126.007 131.693 125.515C131.791 125.023 132.033 124.571 132.388 124.216C132.743 123.861 133.195 123.619 133.687 123.521C134.179 123.424 134.689 123.474 135.153 123.666C135.617 123.858 136.013 124.183 136.292 124.6C136.571 125.018 136.72 125.508 136.72 126.01C136.717 126.682 136.449 127.326 135.973 127.801C135.498 128.277 134.854 128.545 134.182 128.548ZM134.182 124.488C133.881 124.488 133.587 124.577 133.336 124.744C133.086 124.912 132.891 125.149 132.775 125.428C132.66 125.706 132.63 126.012 132.689 126.307C132.748 126.603 132.893 126.874 133.105 127.087C133.318 127.3 133.59 127.445 133.885 127.503C134.18 127.562 134.486 127.532 134.765 127.417C135.043 127.302 135.281 127.106 135.448 126.856C135.615 126.606 135.705 126.311 135.705 126.01C135.702 125.607 135.541 125.221 135.256 124.937C134.971 124.652 134.585 124.49 134.182 124.488Z" fill="#D9DBE9"/>
<path d="M190.89 127.686H141.652C141.517 127.686 141.388 127.632 141.293 127.537C141.198 127.442 141.145 127.313 141.145 127.178V124.783C141.145 124.648 141.198 124.519 141.293 124.424C141.388 124.329 141.517 124.275 141.652 124.275H190.89C191.024 124.275 191.153 124.329 191.249 124.424C191.344 124.519 191.397 124.648 191.397 124.783V127.178C191.395 127.312 191.34 127.44 191.246 127.534C191.151 127.629 191.023 127.683 190.89 127.686ZM142.17 126.671H190.392V125.29H142.16L142.17 126.671Z" fill="#D9DBE9"/>
<path d="M192.961 143.193H121.495C118.35 143.193 115.801 145.743 115.801 148.888V160.976C115.801 164.121 118.35 166.67 121.495 166.67H192.961C196.106 166.67 198.655 164.121 198.655 160.976V148.888C198.655 145.743 196.106 143.193 192.961 143.193Z" fill="white"/>
<path d="M192.961 167.198H121.505C119.856 167.195 118.275 166.539 117.109 165.373C115.942 164.207 115.286 162.626 115.283 160.976V148.898C115.286 147.248 115.942 145.667 117.109 144.501C118.275 143.335 119.856 142.678 121.505 142.676H192.961C194.61 142.678 196.192 143.335 197.358 144.501C198.524 145.667 199.18 147.248 199.183 148.898V160.976C199.18 162.626 198.524 164.207 197.358 165.373C196.192 166.539 194.61 167.195 192.961 167.198ZM121.505 143.721C120.133 143.724 118.818 144.27 117.848 145.24C116.878 146.211 116.331 147.526 116.329 148.898V160.976C116.331 162.348 116.878 163.663 117.848 164.634C118.818 165.604 120.133 166.15 121.505 166.153H192.961C194.333 166.15 195.648 165.604 196.619 164.634C197.589 163.663 198.135 162.348 198.138 160.976V148.898C198.135 147.526 197.589 146.211 196.619 145.24C195.648 144.27 194.333 143.724 192.961 143.721H121.505Z" fill="#14142B"/>
<path d="M125.604 157.475C125.102 157.475 124.611 157.327 124.194 157.048C123.777 156.769 123.452 156.373 123.26 155.909C123.068 155.445 123.017 154.935 123.115 154.443C123.213 153.951 123.455 153.498 123.81 153.144C124.164 152.789 124.617 152.547 125.109 152.449C125.601 152.351 126.111 152.401 126.575 152.594C127.039 152.786 127.435 153.111 127.714 153.528C127.993 153.945 128.141 154.436 128.141 154.938C128.141 155.611 127.874 156.256 127.398 156.732C126.922 157.208 126.277 157.475 125.604 157.475ZM125.604 153.415C125.303 153.415 125.008 153.505 124.758 153.672C124.508 153.839 124.313 154.077 124.197 154.355C124.082 154.633 124.052 154.94 124.111 155.235C124.169 155.53 124.314 155.802 124.527 156.014C124.74 156.227 125.012 156.372 125.307 156.431C125.602 156.49 125.908 156.46 126.187 156.345C126.465 156.229 126.703 156.034 126.87 155.784C127.037 155.533 127.126 155.239 127.126 154.938C127.126 154.534 126.966 154.147 126.68 153.861C126.395 153.576 126.008 153.415 125.604 153.415Z" fill="#D9DBE9"/>
<path d="M134.182 157.475C133.68 157.475 133.19 157.327 132.772 157.048C132.355 156.769 132.03 156.373 131.838 155.909C131.646 155.445 131.595 154.935 131.693 154.443C131.791 153.951 132.033 153.498 132.388 153.144C132.743 152.789 133.195 152.547 133.687 152.449C134.179 152.351 134.689 152.401 135.153 152.594C135.617 152.786 136.013 153.111 136.292 153.528C136.571 153.945 136.72 154.436 136.72 154.938C136.717 155.61 136.449 156.254 135.973 156.729C135.498 157.205 134.854 157.473 134.182 157.475ZM134.182 153.415C133.881 153.415 133.587 153.505 133.336 153.672C133.086 153.839 132.891 154.077 132.775 154.355C132.66 154.633 132.63 154.94 132.689 155.235C132.748 155.53 132.893 155.802 133.105 156.014C133.318 156.227 133.59 156.372 133.885 156.431C134.18 156.49 134.486 156.46 134.765 156.345C135.043 156.229 135.281 156.034 135.448 155.784C135.615 155.533 135.705 155.239 135.705 154.938C135.702 154.535 135.541 154.149 135.256 153.864C134.971 153.579 134.585 153.418 134.182 153.415Z" fill="#D9DBE9"/>
<path d="M190.89 156.643H141.652C141.517 156.643 141.388 156.589 141.293 156.494C141.198 156.399 141.145 156.27 141.145 156.135V153.74C141.145 153.605 141.198 153.476 141.293 153.381C141.388 153.286 141.517 153.232 141.652 153.232H190.89C191.024 153.232 191.153 153.286 191.249 153.381C191.344 153.476 191.397 153.605 191.397 153.74V156.105C191.4 156.174 191.389 156.242 191.365 156.307C191.341 156.371 191.304 156.43 191.256 156.48C191.209 156.531 191.152 156.571 191.089 156.599C191.026 156.626 190.959 156.642 190.89 156.643ZM142.17 155.628H190.392V154.247H142.16L142.17 155.628Z" fill="#D9DBE9"/>
<path d="M192.961 172.121H121.495C118.35 172.121 115.801 174.67 115.801 177.815V189.904C115.801 193.049 118.35 195.598 121.495 195.598H192.961C196.106 195.598 198.655 193.049 198.655 189.904V177.815C198.655 174.67 196.106 172.121 192.961 172.121Z" fill="white"/>
<path d="M192.961 196.126H121.505C119.856 196.123 118.275 195.467 117.109 194.301C115.942 193.134 115.286 191.553 115.283 189.904V177.825C115.286 176.176 115.942 174.595 117.109 173.429C118.275 172.263 119.856 171.606 121.505 171.604H192.961C194.61 171.606 196.192 172.263 197.358 173.429C198.524 174.595 199.18 176.176 199.183 177.825V189.904C199.18 191.553 198.524 193.134 197.358 194.301C196.192 195.467 194.61 196.123 192.961 196.126ZM121.505 172.649C120.133 172.652 118.818 173.198 117.848 174.168C116.878 175.138 116.331 176.453 116.329 177.825V189.904C116.331 191.276 116.878 192.591 117.848 193.561C118.818 194.532 120.133 195.078 121.505 195.08H192.961C194.333 195.078 195.648 194.532 196.619 193.561C197.589 192.591 198.135 191.276 198.138 189.904V177.825C198.135 176.453 197.589 175.138 196.619 174.168C195.648 173.198 194.333 172.652 192.961 172.649H121.505Z" fill="#14142B"/>
<path d="M125.604 186.403C125.102 186.403 124.611 186.254 124.194 185.975C123.777 185.697 123.452 185.3 123.26 184.837C123.068 184.373 123.017 183.863 123.115 183.371C123.213 182.878 123.455 182.426 123.81 182.071C124.164 181.716 124.617 181.475 125.109 181.377C125.601 181.279 126.111 181.329 126.575 181.521C127.039 181.713 127.435 182.039 127.714 182.456C127.993 182.873 128.141 183.364 128.141 183.866C128.141 184.539 127.874 185.184 127.398 185.66C126.922 186.136 126.277 186.403 125.604 186.403ZM125.604 182.343C125.303 182.343 125.008 182.432 124.758 182.6C124.508 182.767 124.313 183.005 124.197 183.283C124.082 183.561 124.052 183.867 124.111 184.163C124.169 184.458 124.314 184.729 124.527 184.942C124.74 185.155 125.012 185.3 125.307 185.359C125.602 185.418 125.908 185.387 126.187 185.272C126.465 185.157 126.703 184.962 126.87 184.711C127.037 184.461 127.126 184.167 127.126 183.866C127.126 183.462 126.966 183.075 126.68 182.789C126.395 182.504 126.008 182.343 125.604 182.343Z" fill="#D9DBE9"/>
<path d="M134.182 186.403C133.68 186.403 133.19 186.254 132.772 185.975C132.355 185.697 132.03 185.3 131.838 184.837C131.646 184.373 131.595 183.863 131.693 183.371C131.791 182.878 132.033 182.426 132.388 182.071C132.743 181.716 133.195 181.475 133.687 181.377C134.179 181.279 134.689 181.329 135.153 181.521C135.617 181.713 136.013 182.039 136.292 182.456C136.571 182.873 136.72 183.364 136.72 183.866C136.717 184.538 136.449 185.182 135.973 185.657C135.498 186.132 134.854 186.4 134.182 186.403ZM134.182 182.343C133.881 182.343 133.587 182.432 133.336 182.6C133.086 182.767 132.891 183.005 132.775 183.283C132.66 183.561 132.63 183.867 132.689 184.163C132.748 184.458 132.893 184.729 133.105 184.942C133.318 185.155 133.59 185.3 133.885 185.359C134.18 185.418 134.486 185.387 134.765 185.272C135.043 185.157 135.281 184.962 135.448 184.711C135.615 184.461 135.705 184.167 135.705 183.866C135.702 183.463 135.541 183.077 135.256 182.792C134.971 182.507 134.585 182.346 134.182 182.343Z" fill="#D9DBE9"/>
<path d="M190.89 185.539H141.652C141.517 185.539 141.388 185.486 141.293 185.391C141.198 185.295 141.145 185.166 141.145 185.032V182.636C141.145 182.502 141.198 182.373 141.293 182.278C141.388 182.182 141.517 182.129 141.652 182.129H190.89C191.024 182.129 191.153 182.182 191.249 182.278C191.344 182.373 191.397 182.502 191.397 182.636V185.032C191.395 185.166 191.34 185.293 191.246 185.388C191.151 185.482 191.023 185.537 190.89 185.539ZM142.17 184.524H190.392V183.144H142.16L142.17 184.524Z" fill="#D9DBE9"/>
<path d="M192.961 201.049H121.495C118.35 201.049 115.801 203.598 115.801 206.743V218.832C115.801 221.976 118.35 224.526 121.495 224.526H192.961C196.106 224.526 198.655 221.976 198.655 218.832V206.743C198.655 203.598 196.106 201.049 192.961 201.049Z" fill="white"/>
<path d="M192.961 225.054H121.505C119.856 225.051 118.275 224.395 117.109 223.228C115.942 222.062 115.286 220.481 115.283 218.832V206.753C115.286 205.104 115.942 203.523 117.109 202.357C118.275 201.19 119.856 200.534 121.505 200.531H192.961C194.61 200.534 196.192 201.19 197.358 202.357C198.524 203.523 199.18 205.104 199.183 206.753V218.832C199.18 220.481 198.524 222.062 197.358 223.228C196.192 224.395 194.61 225.051 192.961 225.054ZM121.505 201.577C120.133 201.579 118.818 202.126 117.848 203.096C116.878 204.066 116.331 205.381 116.329 206.753V218.832C116.331 220.204 116.878 221.519 117.848 222.489C118.818 223.459 120.133 224.006 121.505 224.008H192.961C194.333 224.006 195.648 223.459 196.619 222.489C197.589 221.519 198.135 220.204 198.138 218.832V206.753C198.135 205.381 197.589 204.066 196.619 203.096C195.648 202.126 194.333 201.579 192.961 201.577H121.505Z" fill="#14142B"/>
<path d="M125.604 215.331C125.102 215.331 124.611 215.182 124.194 214.903C123.777 214.624 123.452 214.228 123.26 213.764C123.068 213.301 123.017 212.791 123.115 212.298C123.213 211.806 123.455 211.354 123.81 210.999C124.164 210.644 124.617 210.403 125.109 210.305C125.601 210.207 126.111 210.257 126.575 210.449C127.039 210.641 127.435 210.966 127.714 211.384C127.993 211.801 128.141 212.291 128.141 212.793C128.141 213.466 127.874 214.112 127.398 214.588C126.922 215.064 126.277 215.331 125.604 215.331ZM125.604 211.271C125.303 211.271 125.008 211.36 124.758 211.527C124.508 211.695 124.313 211.933 124.197 212.211C124.082 212.489 124.052 212.795 124.111 213.09C124.169 213.386 124.314 213.657 124.527 213.87C124.74 214.083 125.012 214.228 125.307 214.287C125.602 214.345 125.908 214.315 126.187 214.2C126.465 214.085 126.703 213.89 126.87 213.639C127.037 213.389 127.126 213.094 127.126 212.793C127.126 212.39 126.966 212.002 126.68 211.717C126.395 211.431 126.008 211.271 125.604 211.271Z" fill="#D9DBE9"/>
<path d="M134.182 215.331C133.68 215.331 133.19 215.182 132.772 214.903C132.355 214.624 132.03 214.228 131.838 213.764C131.646 213.301 131.595 212.791 131.693 212.298C131.791 211.806 132.033 211.354 132.388 210.999C132.743 210.644 133.195 210.403 133.687 210.305C134.179 210.207 134.689 210.257 135.153 210.449C135.617 210.641 136.013 210.966 136.292 211.384C136.571 211.801 136.72 212.291 136.72 212.793C136.717 213.466 136.449 214.109 135.973 214.585C135.498 215.06 134.854 215.328 134.182 215.331ZM134.182 211.271C133.881 211.271 133.587 211.36 133.336 211.527C133.086 211.695 132.891 211.933 132.775 212.211C132.66 212.489 132.63 212.795 132.689 213.09C132.748 213.386 132.893 213.657 133.105 213.87C133.318 214.083 133.59 214.228 133.885 214.287C134.18 214.345 134.486 214.315 134.765 214.2C135.043 214.085 135.281 213.89 135.448 213.639C135.615 213.389 135.705 213.094 135.705 212.793C135.702 212.39 135.541 212.005 135.256 211.72C134.971 211.435 134.585 211.274 134.182 211.271Z" fill="#D9DBE9"/>
<path d="M190.89 214.498H141.652C141.517 214.498 141.388 214.445 141.293 214.35C141.198 214.254 141.145 214.125 141.145 213.991V211.595C141.145 211.461 141.198 211.332 141.293 211.237C141.388 211.141 141.517 211.088 141.652 211.088H190.89C191.024 211.088 191.153 211.141 191.249 211.237C191.344 211.332 191.397 211.461 191.397 211.595V213.96C191.4 214.029 191.389 214.098 191.365 214.162C191.341 214.227 191.304 214.286 191.256 214.336C191.209 214.386 191.152 214.426 191.089 214.454C191.026 214.482 190.959 214.497 190.89 214.498ZM142.17 213.483H190.392V212.103H142.16L142.17 213.483Z" fill="#D9DBE9"/>
<path d="M132.579 224.525H124.002V228.017H132.579V224.525Z" fill="#14142B"/>
<path d="M132.579 228.545H124.002C123.865 228.545 123.733 228.49 123.636 228.393C123.539 228.296 123.484 228.165 123.484 228.027V224.526C123.484 224.388 123.539 224.257 123.636 224.16C123.733 224.062 123.865 224.008 124.002 224.008H132.579C132.648 224.007 132.716 224.019 132.78 224.044C132.844 224.07 132.902 224.108 132.951 224.156C133.001 224.204 133.04 224.262 133.066 224.325C133.093 224.389 133.107 224.457 133.107 224.526V228.027C133.107 228.096 133.093 228.164 133.066 228.228C133.04 228.291 133.001 228.349 132.951 228.397C132.902 228.445 132.844 228.483 132.78 228.509C132.716 228.534 132.648 228.546 132.579 228.545ZM124.53 227.53H132.061V225.084H124.53V227.53Z" fill="#14142B"/>
<path d="M190.454 224.525H181.877V228.017H190.454V224.525Z" fill="#14142B"/>
<path d="M190.454 228.545H181.877C181.74 228.545 181.608 228.49 181.511 228.393C181.414 228.296 181.359 228.165 181.359 228.027V224.526C181.359 224.388 181.414 224.257 181.511 224.16C181.608 224.062 181.74 224.008 181.877 224.008H190.454C190.523 224.007 190.591 224.019 190.655 224.044C190.719 224.07 190.777 224.108 190.826 224.156C190.876 224.204 190.915 224.262 190.941 224.325C190.968 224.389 190.982 224.457 190.982 224.526V228.027C190.982 228.096 190.968 228.164 190.941 228.228C190.915 228.291 190.876 228.349 190.826 228.397C190.777 228.445 190.719 228.483 190.655 228.509C190.591 228.534 190.523 228.546 190.454 228.545ZM182.405 227.53H189.936V225.084H182.405V227.53Z" fill="#14142B"/>
<path d="M317.055 201.243H304.093C303.96 201.24 303.832 201.186 303.737 201.091C303.643 200.997 303.589 200.869 303.586 200.735V190.443C303.586 190.308 303.639 190.179 303.735 190.084C303.83 189.989 303.959 189.936 304.093 189.936H317.055C317.19 189.936 317.319 189.989 317.414 190.084C317.509 190.179 317.562 190.308 317.562 190.443V200.766C317.555 200.895 317.498 201.016 317.403 201.105C317.309 201.194 317.184 201.243 317.055 201.243ZM304.601 200.228H316.547V190.951H304.601V200.228Z" fill="#D9DBE9"/>
<path d="M310.578 198.816C309.937 198.818 309.309 198.629 308.775 198.274C308.241 197.919 307.825 197.414 307.578 196.821C307.332 196.229 307.267 195.578 307.392 194.949C307.516 194.319 307.825 193.742 308.278 193.288C308.732 192.835 309.31 192.526 309.939 192.402C310.568 192.277 311.22 192.342 311.812 192.588C312.404 192.835 312.909 193.251 313.264 193.785C313.619 194.319 313.808 194.947 313.806 195.588C313.806 196.444 313.466 197.265 312.86 197.87C312.255 198.475 311.434 198.816 310.578 198.816ZM310.578 193.365C310.138 193.363 309.707 193.492 309.34 193.735C308.973 193.978 308.687 194.324 308.517 194.73C308.347 195.136 308.302 195.583 308.387 196.015C308.471 196.447 308.682 196.844 308.993 197.156C309.303 197.468 309.699 197.681 310.13 197.767C310.562 197.854 311.009 197.81 311.416 197.642C311.823 197.474 312.171 197.19 312.415 196.824C312.66 196.458 312.791 196.028 312.791 195.588C312.791 195 312.558 194.436 312.143 194.02C311.729 193.603 311.166 193.368 310.578 193.365Z" fill="#D9DBE9"/>
<path d="M77.5743 63.6689C77.0868 62.9284 76.3756 62.363 75.5443 62.055C75.1374 61.9087 74.6895 61.9265 74.2955 62.1045C73.9015 62.2826 73.5922 62.607 73.4331 63.0091C71.4031 59.8423 66.998 59.1318 63.2831 59.8119C57.0916 60.9588 52.7576 63.3542 50.9915 69.7386C50.3317 72.1441 50.1998 74.6918 49.3472 77.0364C48.3814 79.2813 47.1477 81.4011 45.6729 83.3497C45.4938 83.5635 45.3935 83.8322 45.3887 84.111C45.4431 84.3901 45.5985 84.6395 45.8251 84.8113C46.695 85.7746 47.78 86.5188 48.9919 86.9834C49.5966 87.2122 50.2521 87.2727 50.8884 87.1583C51.5248 87.0439 52.1182 86.7589 52.6053 86.3338C52.2949 86.725 52.126 87.2097 52.126 87.7091C52.126 88.2085 52.2949 88.6933 52.6053 89.0845C53.2603 89.8462 54.1309 90.3912 55.1022 90.6476C61.3039 92.6776 68.9874 90.5664 73.8493 86.415C77.0156 83.6744 79.2799 80.0409 80.3453 75.991C81.6343 71.3423 80.4975 67.5259 77.5743 63.6689Z" fill="white"/>
<path d="M60.3195 91.9478C58.5247 91.9619 56.7393 91.6877 55.0314 91.1358C53.9635 90.8419 53.0086 90.2336 52.2909 89.3899C51.8829 88.8463 51.6685 88.1817 51.6819 87.5021C50.7686 87.8012 49.7837 87.8012 48.8703 87.5021C47.5879 87.008 46.4378 86.2227 45.5107 85.2082C45.1992 84.9513 44.9903 84.5911 44.922 84.1932C44.9173 83.8002 45.0462 83.4173 45.2874 83.1071L45.937 82.153C47.1395 80.5286 48.1382 78.7628 48.9109 76.8953C49.364 75.5733 49.7036 74.215 49.9259 72.8353C50.1086 71.8203 50.3015 70.7241 50.5857 69.6787C52.6157 62.2996 58.1474 60.3305 63.2732 59.3866C66.5415 58.7776 71.0379 59.1836 73.4232 62.1677C73.5555 62.0427 73.7019 61.9337 73.8596 61.8429C74.1405 61.6879 74.4492 61.5902 74.768 61.5553C75.0869 61.5205 75.4094 61.5492 75.7171 61.6399C76.6303 61.9865 77.4114 62.6114 77.9501 63.4263C81.2285 67.6994 82.1522 71.6376 80.9951 76.195C79.8961 80.3412 77.5763 84.0614 74.3367 86.8728C70.3937 90.1378 65.4389 91.9317 60.3195 91.9478ZM52.6461 85.8578C52.7782 85.859 52.9049 85.9097 53.0014 85.9999C53.092 86.0959 53.1425 86.223 53.1425 86.3551C53.1425 86.4872 53.092 86.6143 53.0014 86.7104C52.7815 87.0206 52.6703 87.3947 52.685 87.7747C52.6997 88.1546 52.8395 88.5191 53.0826 88.8114C53.6932 89.4614 54.4796 89.9199 55.346 90.1309C61.0199 92.029 68.541 90.3238 73.616 85.9897C76.6993 83.3179 78.9093 79.7819 79.9598 75.8397C81.0864 71.6173 80.2135 67.9532 77.1482 63.9541C76.7344 63.3145 76.1363 62.8155 75.4329 62.5229C75.0732 62.4212 74.6882 62.4611 74.357 62.6346C74.2598 62.6839 74.1736 62.7525 74.1038 62.8363C74.034 62.9201 73.982 63.0172 73.951 63.1218C73.9239 63.2171 73.8705 63.3029 73.7969 63.3693C73.7233 63.4358 73.6325 63.4801 73.5348 63.4973C73.4382 63.5116 73.3395 63.497 73.251 63.4555C73.1626 63.414 73.0883 63.3473 73.0375 63.2639C71.0075 60.1275 66.6125 59.7012 63.4254 60.2899C56.5031 61.5688 53.0623 64.3499 51.5296 69.8614C51.2556 70.8764 51.0729 71.8914 50.8902 72.9064C50.6797 74.3548 50.34 75.7815 49.8752 77.1694C49.0898 79.1148 48.0671 80.9558 46.8302 82.6504L46.1095 83.6349C46.0385 83.7567 45.8964 83.9597 45.9167 84.0612C45.937 84.1627 46.0994 84.3556 46.2009 84.4571C47.0262 85.345 48.0386 86.0383 49.1647 86.4871C49.6831 86.6798 50.2432 86.7325 50.7885 86.6399C51.3337 86.5472 51.845 86.3124 52.2706 85.9593C52.3195 85.9139 52.3771 85.8788 52.4399 85.8561C52.5027 85.8335 52.5694 85.8237 52.636 85.8273L52.6461 85.8578Z" fill="#14142B"/>
<path d="M77.2612 75.625C77.2612 75.625 80.9254 80.8929 80.225 82.0195C79.5247 83.1462 77.0684 82.4762 77.0684 82.4762" fill="white"/>
<path d="M78.5892 83.1872C78.0374 83.1804 77.4885 83.1054 76.9551 82.9639C76.8205 82.9275 76.7058 82.8392 76.6363 82.7183C76.5669 82.5975 76.5482 82.4539 76.5846 82.3193C76.6209 82.1847 76.7092 82.0701 76.8301 82.0006C76.951 81.9311 77.0945 81.9125 77.2291 81.9489C77.9092 82.1316 79.4418 82.3244 79.8275 81.7154C80.2132 81.1064 78.6806 78.4776 76.8739 75.8792C76.8349 75.8246 76.8072 75.7629 76.7922 75.6976C76.7772 75.6322 76.7754 75.5646 76.7867 75.4985C76.798 75.4325 76.8223 75.3693 76.8582 75.3127C76.894 75.2561 76.9408 75.2071 76.9957 75.1687C77.1067 75.0926 77.243 75.0628 77.3756 75.0856C77.5082 75.1083 77.6268 75.1818 77.7062 75.2905C78.8633 76.9652 81.482 80.9745 80.6801 82.2534C80.4412 82.5755 80.1232 82.8307 79.757 82.9942C79.3908 83.1578 78.9886 83.2243 78.5892 83.1872Z" fill="#14142B"/>
<path d="M76.3258 68.5607C78.6298 70.3471 78.0716 74.2549 78.1122 76.7822C78.1731 80.3449 78.1122 83.8872 78.0411 87.46C77.9802 89.7235 72.1338 89.9062 71.0884 89.2566L72.2252 98.148C72.2252 98.148 69.4339 98.9904 64.6736 96.9198C59.9132 94.8492 59.832 93.7429 59.832 93.7429L59.9741 83.4406C59.9741 83.4406 63.8311 83.3797 66.0032 78.731C68.1753 74.0823 67.9013 67.0179 67.9013 67.0179C67.9013 67.0179 74.0826 66.7845 76.3258 68.5607Z" fill="white"/>
<path d="M70.6227 98.8285C68.4958 98.7709 66.4029 98.2804 64.4718 97.3872C59.9145 95.3572 59.3968 94.2001 59.3359 93.7738L59.4679 83.4411C59.4704 83.309 59.5233 83.1829 59.6157 83.0885C59.7082 82.9942 59.8332 82.9387 59.9652 82.9336C60.1073 82.9336 63.5482 82.8016 65.5477 78.5183C67.6386 74.0219 67.4255 67.0996 67.4255 67.0285C67.4262 66.8934 67.4768 66.7632 67.5676 66.6631C67.6619 66.5684 67.7892 66.5139 67.9228 66.5109C68.1766 66.5109 74.3072 66.3282 76.6721 68.1653C78.7833 69.7995 78.7021 72.9155 78.7021 75.4124C78.7021 75.8996 78.7021 76.3564 78.7021 76.7725C78.7021 80.3352 78.7021 83.9384 78.6311 87.4808C78.6029 87.8701 78.4662 88.2438 78.2366 88.5595C78.007 88.8753 77.6936 89.1204 77.3319 89.2672C75.5844 90.0197 73.6605 90.2659 71.7798 89.9777L72.7948 98.0977C72.8096 98.2162 72.7821 98.3362 72.7171 98.4365C72.6521 98.5367 72.5539 98.6109 72.4396 98.6458C71.8462 98.7954 71.234 98.857 70.6227 98.8285ZM60.3205 93.6621C60.4118 93.8448 61.0919 94.8192 64.8474 96.4534C66.9504 97.485 69.2927 97.9304 71.6276 97.7424L70.6126 89.3281C70.5971 89.2331 70.6096 89.1356 70.6484 89.0475C70.6873 88.9594 70.7509 88.8845 70.8315 88.8318C70.9121 88.7792 71.0062 88.751 71.1025 88.7508C71.1988 88.7506 71.293 88.7784 71.3738 88.8307C73.1792 89.2668 75.0772 89.1066 76.7838 88.374C77.2913 88.1101 77.545 87.7954 77.5552 87.4503C77.6567 83.9181 77.677 80.3453 77.6262 76.7928C77.6262 76.3564 77.6262 75.8895 77.6262 75.3921C77.6262 73.1185 77.7379 70.3171 76.0225 68.9672C74.4594 67.739 70.3994 67.5056 68.4303 67.5157C68.4405 69.2514 68.339 74.9049 66.4612 78.9649C64.5835 83.0249 61.6501 83.7456 60.4727 83.9181L60.3205 93.6621Z" fill="#14142B"/>
<path d="M77.8896 84.8119C77.8896 84.8119 75.1795 86.578 73.6367 83.7969L77.8896 84.8119Z" fill="white"/>
<path d="M76.0432 85.8664C75.7901 85.8655 75.538 85.8349 75.2921 85.7751C74.8403 85.648 74.4201 85.428 74.0583 85.1291C73.6965 84.8302 73.4011 84.4591 73.191 84.0394C73.1264 83.921 73.1115 83.7817 73.1496 83.6523C73.1876 83.5228 73.2756 83.4138 73.394 83.3492C73.5125 83.2846 73.6517 83.2697 73.7812 83.3078C73.9106 83.3459 74.0196 83.4338 74.0842 83.5522C74.23 83.8477 74.435 84.1101 74.6864 84.3231C74.9379 84.5362 75.2304 84.6952 75.5458 84.7905C76.2656 84.9088 77.004 84.7647 77.6266 84.3845C77.6822 84.3473 77.7447 84.3216 77.8104 84.3091C77.8762 84.2966 77.9437 84.2974 78.0091 84.3117C78.0745 84.3259 78.1364 84.3531 78.191 84.3918C78.2456 84.4305 78.2918 84.4798 78.3269 84.5368C78.4004 84.6487 78.4267 84.785 78.4 84.9162C78.3734 85.0474 78.2961 85.1627 78.1848 85.2371C77.5381 85.6303 76.7998 85.8473 76.0432 85.8664Z" fill="#14142B"/>
<path d="M70.4705 78.072C70.3566 77.1898 70.0058 76.355 69.4555 75.6563C69.0918 75.0665 68.6439 74.533 68.1258 74.0729C67.8659 73.8433 67.5574 73.6756 67.2234 73.5824C66.8893 73.4892 66.5385 73.473 66.1973 73.5349C65.9019 73.6175 65.6271 73.7614 65.391 73.9572C65.1549 74.1531 64.9627 74.3966 64.8271 74.6717C64.5589 75.2254 64.4201 75.8328 64.4211 76.448C64.3978 77.7875 64.7257 79.1098 65.3721 80.2833C66.0185 81.4568 66.9609 82.4406 68.1055 83.1368L67.9127 82.9237" fill="white"/>
<path d="M68.0953 83.6442C68.003 83.6412 67.9127 83.6169 67.8314 83.5731C66.6145 82.8328 65.6113 81.7883 64.9208 80.5425C64.2302 79.2967 63.8761 77.8925 63.8932 76.4681C63.8883 75.7655 64.0446 75.071 64.3499 74.4381C64.5189 74.0974 64.7583 73.7963 65.0523 73.5549C65.3462 73.3134 65.688 73.1371 66.0551 73.0374C66.472 72.9564 66.9019 72.9719 67.3118 73.0827C67.7217 73.1936 68.1009 73.3968 68.4201 73.6769C68.9797 74.1667 69.4622 74.7381 69.8512 75.3719C70.4775 76.1398 70.875 77.0684 70.9982 78.0515C71.0009 78.1182 70.9904 78.1847 70.9674 78.2474C70.9444 78.31 70.9093 78.3674 70.864 78.4165C70.8188 78.4655 70.7643 78.5051 70.7037 78.5331C70.6431 78.561 70.5776 78.5767 70.511 78.5793C70.3778 78.5797 70.2493 78.5297 70.1514 78.4394C70.0535 78.349 69.9934 78.225 69.9832 78.0921C69.8476 77.2957 69.4966 76.5515 68.9682 75.9403C68.6385 75.3913 68.2279 74.8951 67.7502 74.4686C67.5481 74.2886 67.3083 74.1559 67.0484 74.0804C66.7885 74.0049 66.5151 73.9884 66.248 74.0321C66.0267 74.0977 65.8219 74.2094 65.647 74.3599C65.472 74.5103 65.3309 74.6961 65.233 74.905C65.0009 75.3932 64.8828 75.9277 64.8879 76.4681C64.874 77.6323 65.1441 78.7824 65.6747 79.8187C66.2052 80.8551 66.9803 81.7466 67.9329 82.416C68.0594 82.4241 68.1786 82.4782 68.2678 82.5683L68.4708 82.7814C68.5514 82.8724 68.596 82.9898 68.596 83.1113C68.596 83.2329 68.5514 83.3502 68.4708 83.4412C68.4267 83.5003 68.3703 83.549 68.3054 83.5841C68.2406 83.6192 68.1689 83.6397 68.0953 83.6442Z" fill="#14142B"/>
<path d="M71.0886 89.2564C69.3384 88.7425 67.7737 87.7346 66.582 86.3535C66.582 86.3535 66.917 91.7635 71.5961 93.2149L71.0886 89.2564Z" fill="#14142B"/>
<path d="M71.5963 93.7235C71.546 93.7333 71.4943 93.7333 71.444 93.7235C66.4806 92.1807 66.0848 86.6185 66.0746 86.4053C66.0702 86.2971 66.1005 86.1902 66.1612 86.1004C66.2218 86.0106 66.3096 85.9426 66.4117 85.9063C66.5138 85.87 66.6248 85.8673 66.7286 85.8987C66.8323 85.93 66.9233 85.9937 66.9881 86.0805C68.1129 87.3724 69.5858 88.3132 71.2309 88.7906C71.3257 88.8201 71.4103 88.8757 71.4749 88.9511C71.5396 89.0265 71.5816 89.1186 71.5963 89.2169L72.0936 93.1754C72.1046 93.2598 72.0947 93.3457 72.0646 93.4254C72.0345 93.505 71.9852 93.5761 71.9211 93.6321C71.8251 93.696 71.7114 93.7279 71.5963 93.7235ZM67.4246 87.9075C67.6573 88.8811 68.1005 89.7918 68.723 90.5757C69.3456 91.3595 70.1323 91.9975 71.0279 92.4446L70.6726 89.6432C69.5006 89.2501 68.4027 88.6635 67.4246 87.9075Z" fill="#14142B"/>
<path d="M75.6499 73.2748C75.7498 72.5812 75.6104 71.9872 75.3386 71.9481C75.0667 71.9089 74.7653 72.4393 74.6653 73.1329C74.5654 73.8264 74.7048 74.4204 74.9766 74.4596C75.2485 74.4988 75.5499 73.9683 75.6499 73.2748Z" fill="#14142B"/>
<path d="M93.9666 107.385C91.5509 108.318 90.2922 106.958 89.2671 103.599C89.1012 103.001 89.0462 102.379 89.1047 101.761C89.2012 100.858 89.3641 99.9619 89.5919 99.0819C90.2436 96.6164 91.0991 94.2093 92.1497 91.8855C92.4035 91.2968 92.9008 90.5965 93.4997 90.7995C94.0985 91.0025 94.0985 91.6521 94.0883 92.19C94.0883 93.7125 93.8346 95.235 93.8752 96.7677C97.0826 95.9455 99.0923 92.5554 102.137 91.8348C103 91.6216 104.056 91.5607 104.167 92.6772C104.279 94.0475 101.792 95.1234 100.97 95.844C101.894 95.0446 102.957 94.4218 104.106 94.0069C104.425 93.8666 104.775 93.8106 105.121 93.8445C105.296 93.8675 105.459 93.9477 105.584 94.0725C105.708 94.1972 105.789 94.3597 105.812 94.5347C105.803 94.6778 105.767 94.8178 105.704 94.9468C105.641 95.0757 105.554 95.1909 105.446 95.2858C104.977 95.8295 104.45 96.3197 103.873 96.7474C104.446 96.0743 105.229 95.6133 106.096 95.438C106.308 95.3673 106.537 95.3604 106.753 95.4181C106.97 95.4758 107.165 95.5957 107.314 95.7628C107.669 96.3515 106.989 97.0011 106.39 97.3361C106.862 96.9181 107.436 96.6342 108.055 96.5139C108.363 96.4625 108.68 96.5319 108.939 96.7076C109.198 96.8834 109.379 97.152 109.445 97.4579C109.433 97.7 109.367 97.9364 109.253 98.1504C109.139 98.3644 108.98 98.5507 108.786 98.6962C105.629 101.792 98.0266 105.801 93.9666 107.385Z" fill="white"/>
<path d="M92.6174 108.166C92.1958 108.169 91.7791 108.076 91.3994 107.892C90.3032 107.354 89.4912 106.075 88.7807 103.731C88.5937 103.071 88.5317 102.383 88.598 101.701C88.6953 100.769 88.8615 99.8465 89.0954 98.9398C89.7489 96.4413 90.6148 94.0031 91.6836 91.6521C92.1505 90.5559 92.9118 90.0383 93.6629 90.292C94.1095 90.4443 94.6779 90.8909 94.5967 92.1698C94.5967 92.8295 94.5358 93.4791 94.485 94.1388C94.4343 94.7986 94.3937 95.4076 94.3734 96.0369C95.61 95.4773 96.7534 94.731 97.7635 93.8242C98.9782 92.6767 100.435 91.8165 102.026 91.307C102.358 91.1936 102.709 91.1495 103.058 91.1775C103.408 91.2054 103.747 91.3048 104.056 91.4694C104.23 91.6049 104.37 91.7772 104.469 91.9738C104.567 92.1704 104.62 92.3864 104.625 92.6062C104.651 92.8503 104.62 93.0971 104.534 93.3269C104.752 93.2861 104.975 93.2861 105.193 93.3269C105.481 93.3706 105.746 93.5092 105.947 93.7206C106.147 93.932 106.271 94.2042 106.3 94.4941C106.324 94.6215 106.324 94.7524 106.3 94.8798C106.578 94.8275 106.866 94.8562 107.128 94.9623C107.391 95.0684 107.618 95.2476 107.782 95.4786C107.875 95.6364 107.93 95.8135 107.944 95.9963H108.025C108.535 95.9449 109.045 96.0941 109.446 96.4125C109.601 96.5357 109.728 96.6894 109.821 96.864C109.913 97.0387 109.969 97.2304 109.984 97.4275C109.982 97.744 109.908 98.056 109.77 98.3405C109.631 98.625 109.43 98.8749 109.182 99.0717C105.934 102.269 98.2507 106.299 94.1805 107.872C93.6821 108.066 93.1522 108.165 92.6174 108.166ZM93.2975 91.2563C93.1046 91.2563 92.8103 91.6014 92.6174 92.0683C91.5742 94.3603 90.7287 96.7373 90.0901 99.1733C89.8617 100.025 89.7021 100.894 89.613 101.772C89.5572 102.327 89.6019 102.887 89.745 103.426C90.3641 105.456 91.034 106.573 91.846 106.968C92.1567 107.092 92.49 107.149 92.824 107.135C93.1581 107.121 93.4855 107.036 93.7847 106.887C97.8447 105.314 105.406 101.284 108.431 98.3105C108.665 98.0872 108.969 97.7523 108.939 97.4681C108.932 97.4096 108.914 97.3531 108.884 97.3024C108.854 97.2516 108.814 97.2078 108.766 97.1737C108.578 97.0297 108.343 96.9609 108.106 96.9809C107.783 97.0423 107.475 97.1702 107.203 97.3564C107.028 97.503 106.841 97.6354 106.645 97.7523C106.532 97.8166 106.399 97.8353 106.272 97.8043C106.146 97.7734 106.037 97.6952 105.966 97.5859C105.896 97.4766 105.87 97.3445 105.895 97.2168C105.919 97.0891 105.991 96.9756 106.097 96.8996L106.584 96.5444C106.725 96.4376 106.834 96.2935 106.898 96.1283C106.915 96.0858 106.915 96.0387 106.898 95.9963C106.827 95.8745 106.543 95.8441 106.218 95.905C105.861 95.982 105.519 96.1156 105.203 96.3008C104.88 96.5926 104.541 96.8671 104.188 97.123C104.087 97.1963 103.964 97.2314 103.839 97.2221C103.715 97.2129 103.597 97.1597 103.508 97.0722C103.424 96.9789 103.378 96.8578 103.378 96.7322C103.378 96.6066 103.424 96.4854 103.508 96.3921C103.796 96.0385 104.139 95.7334 104.523 95.4888C104.706 95.3061 104.889 95.1234 105.061 94.9204C105.234 94.7174 105.305 94.6464 105.295 94.5246C105.285 94.4028 105.163 94.3419 105.021 94.3114C104.756 94.3027 104.493 94.3512 104.249 94.4535C103.845 94.6052 103.448 94.7779 103.062 94.9711C102.757 95.1944 102.432 95.4076 102.128 95.6005C101.83 95.7846 101.542 95.9845 101.265 96.1993C101.163 96.2868 101.03 96.3301 100.896 96.3196C100.762 96.3091 100.637 96.2458 100.55 96.1435C100.462 96.0412 100.419 95.9083 100.429 95.7741C100.44 95.6399 100.503 95.5154 100.605 95.4279C101.192 94.9232 101.832 94.4841 102.514 94.1186C103.123 93.672 103.671 93.1035 103.63 92.6874C103.635 92.6134 103.623 92.5393 103.595 92.4707C103.567 92.4021 103.523 92.3408 103.468 92.2915C103.356 92.2103 103.052 92.1088 102.25 92.2915C100.808 92.7718 99.4909 93.5656 98.3928 94.6159C97.1351 95.7972 95.6354 96.6908 93.9978 97.2346C93.9231 97.2552 93.8445 97.2577 93.7685 97.2418C93.6926 97.2259 93.6216 97.1921 93.5614 97.1433C93.5012 97.0986 93.4524 97.0404 93.4189 96.9734C93.3854 96.9064 93.3681 96.8325 93.3685 96.7575C93.3563 95.8598 93.3902 94.9621 93.47 94.0678C93.47 93.4283 93.5715 92.7991 93.5817 92.1596C93.5918 91.5202 93.5005 91.3172 93.3381 91.2664L93.2975 91.2563Z" fill="#14142B"/>
<path d="M94.0273 96.8906C94.751 97.7771 95.1537 98.8821 95.1703 100.026C95.1869 101.17 94.8163 102.287 94.1187 103.194H94.4333" fill="white"/>
<path d="M94.1191 103.701C94.0223 103.705 93.9264 103.68 93.8433 103.63C93.7602 103.58 93.6935 103.507 93.6515 103.42C93.6094 103.333 93.5938 103.235 93.6066 103.139C93.6193 103.043 93.6599 102.952 93.7233 102.879C94.3499 102.066 94.683 101.065 94.6682 100.038C94.6535 99.0115 94.2918 98.0202 93.6421 97.2254C93.5485 97.1288 93.4961 96.9996 93.4961 96.8651C93.4961 96.7306 93.5485 96.6013 93.6421 96.5047C93.6884 96.4575 93.7437 96.4199 93.8047 96.3943C93.8657 96.3687 93.9312 96.3555 93.9973 96.3555C94.0635 96.3555 94.129 96.3687 94.19 96.3943C94.251 96.4199 94.3063 96.4575 94.3526 96.5047C95.0805 97.3953 95.5183 98.4874 95.6072 99.6342C95.6961 100.781 95.4318 101.927 94.8499 102.92C94.8615 102.98 94.8615 103.042 94.8499 103.102C94.8555 103.235 94.8086 103.365 94.7194 103.464C94.6302 103.562 94.5057 103.622 94.3729 103.63H94.0582L94.1191 103.701Z" fill="#14142B"/>
<path d="M171.127 79.959H99.6609C96.5162 79.959 93.9668 82.5083 93.9668 85.6531V97.7418C93.9668 100.887 96.5162 103.436 99.6609 103.436H171.127C174.272 103.436 176.821 100.887 176.821 97.7418V85.6531C176.821 82.5083 174.272 79.959 171.127 79.959Z" fill="white"/>
<path d="M171.127 103.964H99.661C98.0126 103.962 96.4326 103.305 95.268 102.138C94.1034 100.972 93.4492 99.3906 93.4492 97.7422V85.6536C93.4492 84.0052 94.1034 82.4241 95.268 81.2576C96.4326 80.091 98.0126 79.4343 99.661 79.4316H171.127C172.776 79.4343 174.356 80.091 175.52 81.2576C176.685 82.4241 177.339 84.0052 177.339 85.6536V97.7422C177.339 99.3906 176.685 100.972 175.52 102.138C174.356 103.305 172.776 103.962 171.127 103.964ZM99.661 80.4872C98.2908 80.4872 96.9767 81.0316 96.0079 82.0004C95.039 82.9693 94.4947 84.2834 94.4947 85.6536V97.7422C94.4947 99.1124 95.039 100.427 96.0079 101.395C96.9767 102.364 98.2908 102.909 99.661 102.909H171.127C172.497 102.909 173.811 102.364 174.78 101.395C175.749 100.427 176.294 99.1124 176.294 97.7422V85.6536C176.294 84.2834 175.749 82.9693 174.78 82.0004C173.811 81.0316 172.497 80.4872 171.127 80.4872H99.661Z" fill="#14142B"/>
<path d="M103.773 94.2398C103.268 94.2418 102.775 94.0941 102.354 93.8154C101.934 93.5367 101.606 93.1395 101.412 92.6742C101.217 92.2088 101.165 91.6963 101.263 91.2014C101.36 90.7065 101.602 90.2516 101.957 89.8943C102.313 89.537 102.767 89.2934 103.262 89.1942C103.756 89.0951 104.269 89.145 104.735 89.3375C105.201 89.53 105.6 89.8565 105.88 90.2757C106.16 90.6949 106.31 91.1879 106.31 91.6922C106.307 92.3653 106.04 93.0102 105.565 93.4871C105.09 93.964 104.446 94.2345 103.773 94.2398ZM103.773 90.1798C103.469 90.1778 103.171 90.2662 102.917 90.4339C102.664 90.6015 102.466 90.8408 102.348 91.1212C102.231 91.4017 102.2 91.7107 102.259 92.009C102.318 92.3072 102.464 92.5812 102.679 92.7962C102.894 93.0111 103.168 93.1573 103.466 93.2161C103.764 93.2749 104.073 93.2437 104.354 93.1265C104.634 93.0092 104.873 92.8112 105.041 92.5576C105.209 92.304 105.297 92.0063 105.295 91.7023C105.301 91.4985 105.265 91.2957 105.191 91.1057C105.117 90.9157 105.006 90.7424 104.864 90.5958C104.723 90.4493 104.553 90.3326 104.366 90.2524C104.178 90.1723 103.977 90.1303 103.773 90.1291V90.1798Z" fill="#D9DBE9"/>
<path d="M112.339 94.2398C111.835 94.2418 111.341 94.0941 110.921 93.8154C110.501 93.5367 110.172 93.1395 109.978 92.6742C109.784 92.2088 109.732 91.6963 109.829 91.2014C109.926 90.7065 110.168 90.2516 110.524 89.8943C110.88 89.537 111.334 89.2934 111.828 89.1942C112.323 89.0951 112.835 89.145 113.301 89.3375C113.768 89.53 114.166 89.8565 114.446 90.2757C114.727 90.6949 114.877 91.1879 114.877 91.6922C114.877 92.3661 114.61 93.0126 114.134 93.49C113.658 93.9675 113.013 94.2371 112.339 94.2398ZM112.339 90.1798C112.035 90.1778 111.737 90.2662 111.484 90.4339C111.23 90.6015 111.032 90.8408 110.915 91.1212C110.798 91.4017 110.766 91.7107 110.825 92.009C110.884 92.3072 111.03 92.5812 111.245 92.7962C111.46 93.0111 111.734 93.1573 112.032 93.2161C112.331 93.2749 112.64 93.2437 112.92 93.1265C113.201 93.0092 113.44 92.8112 113.607 92.5576C113.775 92.304 113.864 92.0063 113.862 91.7023C113.867 91.4985 113.832 91.2957 113.758 91.1057C113.684 90.9157 113.573 90.7424 113.431 90.5958C113.289 90.4493 113.119 90.3326 112.932 90.2524C112.744 90.1723 112.543 90.1303 112.339 90.1291V90.1798Z" fill="#D9DBE9"/>
<path d="M169.048 93.3983H119.82C119.685 93.3983 119.556 93.3448 119.461 93.2497C119.366 93.1545 119.312 93.0254 119.312 92.8908V90.5055C119.312 90.3709 119.366 90.2419 119.461 90.1467C119.556 90.0515 119.685 89.998 119.82 89.998H169.048C169.182 89.998 169.311 90.0515 169.406 90.1467C169.502 90.2419 169.555 90.3709 169.555 90.5055V92.8908C169.555 93.0254 169.502 93.1545 169.406 93.2497C169.311 93.3448 169.182 93.3983 169.048 93.3983ZM120.327 92.3833H168.54V91.013H120.327V92.3833Z" fill="#D9DBE9"/>
<path d="M43.9584 233.479L42.9434 240.665C42.9434 240.665 65.1313 239.508 64.37 237.782C63.6088 236.057 57.3462 233.803 57.3462 233.803" fill="white"/>
<path d="M42.974 241.171C42.9035 241.173 42.8335 241.159 42.7688 241.131C42.704 241.103 42.646 241.061 42.5985 241.009C42.5483 240.955 42.5105 240.891 42.4877 240.821C42.4649 240.75 42.4577 240.676 42.4665 240.603L43.4815 233.407C43.4902 233.341 43.5119 233.278 43.5453 233.221C43.5787 233.164 43.6232 233.114 43.6762 233.074C43.7291 233.034 43.7894 233.006 43.8536 232.99C43.9178 232.973 43.9845 232.97 44.0499 232.98C44.1831 232.998 44.3038 233.068 44.3856 233.174C44.4674 233.281 44.5037 233.416 44.4864 233.549L43.583 240.126C52.718 239.629 62.4011 238.654 63.883 237.802C63.0812 236.695 59.4678 235.071 57.2551 234.28C57.1322 234.231 57.033 234.137 56.9786 234.016C56.9242 233.896 56.9189 233.759 56.9639 233.635C57.0088 233.511 57.1004 233.409 57.2193 233.351C57.3381 233.293 57.4747 233.284 57.6002 233.325C58.2599 233.559 64.086 235.701 64.9082 237.578C64.9633 237.683 64.9921 237.8 64.9921 237.918C64.9921 238.037 64.9633 238.153 64.9082 238.258C63.8932 239.913 49.3076 240.847 43.0958 241.171H42.974Z" fill="#14142B"/>
<path d="M89.4808 104.898C89.4808 104.898 100.473 115.921 105.934 114.368C109.141 113.464 124.011 106.004 124.204 105.7C124.904 104.502 126.285 100.625 127.158 99.6097C127.457 99.1283 127.917 98.7686 128.457 98.5947C131.279 98.0974 128.548 103.183 127.817 104.035C130.213 102.543 132.689 101.071 135.227 99.8026C135.351 99.7161 135.493 99.6584 135.642 99.6338C135.791 99.6093 135.944 99.6183 136.09 99.6605C136.235 99.7511 136.342 99.8928 136.389 100.058C136.436 100.223 136.42 100.4 136.343 100.554C136.184 100.857 135.95 101.116 135.663 101.305L131.329 104.725C132.58 103.701 133.903 102.768 135.288 101.934C135.795 101.64 137.206 100.747 137.724 101.325C138.627 102.34 134.009 105.822 133.217 106.4C134.485 105.234 135.901 104.241 137.429 103.446C137.849 103.173 138.355 103.065 138.85 103.142C139.053 103.457 138.729 103.842 138.424 104.076L135.43 106.37C136.932 105.253 138.597 104.096 140.505 104.116C140.505 104.431 140.261 104.685 140.007 104.878C135.562 108.359 131.055 112.845 126.447 116.103C120.357 120.427 113.678 126.436 106.076 127.096C97.0527 127.877 90.4451 121.29 84.3145 115.555" fill="white"/>
<path d="M104.564 127.686C96.4436 127.686 90.1709 121.829 84.6188 116.633L83.8982 115.952C83.8506 115.905 83.8128 115.849 83.7871 115.787C83.7613 115.725 83.748 115.659 83.748 115.592C83.748 115.525 83.7613 115.459 83.7871 115.397C83.8128 115.335 83.8506 115.279 83.8982 115.232C83.9445 115.185 83.9997 115.147 84.0607 115.121C84.1217 115.096 84.1873 115.083 84.2534 115.083C84.3196 115.083 84.3851 115.096 84.4461 115.121C84.5071 115.147 84.5624 115.185 84.6087 115.232L85.3395 115.912C91.3381 121.545 97.5195 127.361 105.985 126.63C112.075 126.102 117.545 122.053 122.813 118.135C123.93 117.313 125.026 116.49 126.102 115.729C128.844 113.711 131.483 111.557 134.009 109.274C135.734 107.772 137.51 106.229 139.266 104.818C137.97 105.276 136.767 105.964 135.714 106.848C135.606 106.929 135.471 106.963 135.338 106.944C135.204 106.925 135.084 106.854 135.003 106.746C134.923 106.639 134.888 106.503 134.907 106.37C134.926 106.237 134.997 106.117 135.105 106.036L138.059 103.752C137.923 103.808 137.791 103.873 137.663 103.945C136.963 104.3 136.285 104.697 135.633 105.133C134.77 105.884 133.907 106.523 133.471 106.848C133.367 106.926 133.236 106.96 133.107 106.943C132.978 106.926 132.861 106.859 132.781 106.757C132.694 106.663 132.645 106.539 132.645 106.411C132.645 106.283 132.694 106.16 132.781 106.066C133.469 105.44 134.198 104.86 134.963 104.331C136.435 103.052 137.297 102.017 137.247 101.671C137.247 101.671 137.247 101.671 137.155 101.671C136.57 101.781 136.017 102.024 135.541 102.382C134.54 102.971 133.574 103.619 132.649 104.321L131.552 105.183C131.5 105.225 131.441 105.257 131.377 105.276C131.312 105.294 131.245 105.301 131.179 105.293C131.112 105.286 131.048 105.266 130.989 105.234C130.931 105.202 130.879 105.159 130.837 105.107C130.795 105.055 130.764 104.995 130.745 104.931C130.726 104.867 130.72 104.8 130.727 104.734C130.734 104.667 130.754 104.603 130.786 104.544C130.818 104.485 130.861 104.434 130.913 104.392C131.278 104.087 131.654 103.793 132.029 103.509L135.257 100.961C135.475 100.824 135.656 100.636 135.785 100.413C135.805 100.375 135.815 100.333 135.815 100.291C135.815 100.249 135.805 100.207 135.785 100.169C135.785 100.169 135.683 100.169 135.369 100.311C132.74 101.621 130.172 103.174 128 104.513C127.898 104.578 127.777 104.604 127.658 104.587C127.539 104.57 127.43 104.512 127.35 104.422C127.271 104.329 127.227 104.21 127.227 104.087C127.227 103.964 127.271 103.846 127.35 103.752C128.01 102.981 129.472 99.9865 129.056 99.2456C128.964 99.0933 128.69 99.1136 128.457 99.1542C128.039 99.2915 127.681 99.5672 127.442 99.9358C126.734 101.097 126.133 102.32 125.645 103.59C125.209 104.605 124.823 105.508 124.539 106.005C124.133 106.696 108.522 114.186 105.974 114.917C100.311 116.511 89.4908 105.782 89.0341 105.305C88.9865 105.258 88.9487 105.202 88.923 105.14C88.8972 105.078 88.8839 105.012 88.8839 104.945C88.8839 104.878 88.8972 104.811 88.923 104.75C88.9487 104.688 88.9865 104.632 89.0341 104.584C89.1289 104.491 89.2565 104.439 89.3893 104.439C89.5222 104.439 89.6497 104.491 89.7446 104.584C89.8562 104.696 100.605 115.394 105.7 113.933C108.745 113.08 122.478 106.219 123.706 105.417C123.96 104.94 124.326 104.097 124.721 103.194C125.231 101.826 125.884 100.516 126.67 99.2862C127.054 98.6975 127.644 98.2738 128.325 98.0986C128.625 97.9979 128.951 98.0012 129.249 98.108C129.547 98.2147 129.801 98.4188 129.969 98.6873C130.487 99.5805 129.908 101.225 129.269 102.524C131.035 101.509 132.973 100.342 134.953 99.3471C135.147 99.2246 135.367 99.1482 135.596 99.1236C135.825 99.0989 136.056 99.1268 136.272 99.205C136.52 99.3461 136.709 99.5707 136.805 99.8386C136.902 100.106 136.9 100.4 136.8 100.667C137.021 100.6 137.256 100.595 137.479 100.653C137.703 100.71 137.907 100.827 138.069 100.991C138.162 101.095 138.231 101.218 138.271 101.351C138.311 101.484 138.322 101.625 138.302 101.763C138.247 102.091 138.118 102.404 137.927 102.676C138.258 102.58 138.61 102.58 138.942 102.676C139.06 102.704 139.162 102.777 139.226 102.879C139.314 103.009 139.367 103.16 139.38 103.316C139.392 103.473 139.364 103.63 139.297 103.772C139.668 103.699 140.045 103.661 140.424 103.661C140.55 103.663 140.67 103.712 140.762 103.798C140.854 103.885 140.911 104.002 140.921 104.128C140.916 104.371 140.85 104.609 140.73 104.82C140.609 105.031 140.438 105.208 140.231 105.336C138.383 106.777 136.475 108.441 134.628 110.055C132.029 112.319 129.35 114.663 126.65 116.572C125.574 117.323 124.488 118.135 123.382 118.967C118.246 122.773 112.44 127.087 106.025 127.655C105.548 127.686 105.051 127.686 104.564 127.686Z" fill="#14142B"/>
<path d="M84.6199 136.17L97.3378 234.747L83.6861 234.402L67.7201 168.843L58.6765 234.564L43.3398 233.478L47.887 131.521L84.6199 136.17Z" fill="#14142B"/>
<path d="M78.5904 94.7188L101.702 110.035L95.0537 127.513C95.0537 127.513 66.6033 108.675 66.4104 104.341C66.2176 100.007 78.5904 94.7188 78.5904 94.7188Z" fill="#6A96FF"/>
<path d="M87.8663 153.72C87.8663 153.72 87.1355 123.665 84.9837 110.602C84.0702 105.061 84.4153 101.173 82.5782 98.1788C76.4171 88.11 52.4124 91.0738 48.9208 98.0976C45.4292 105.121 44.6172 155.547 44.6172 155.547L87.8663 153.72Z" fill="#6A96FF"/>
<path d="M83.6648 234.401C83.6648 234.401 83.2791 240.349 84.0505 241.313C84.8219 242.278 105.792 240.542 104.828 238.268C103.863 235.995 96.1696 234.016 96.1696 234.016" fill="white"/>
<path d="M86.8013 242.076C85.1062 242.076 83.9288 241.944 83.6751 241.629C82.8529 240.614 83.0864 235.813 83.1777 234.372C83.1817 234.305 83.1988 234.24 83.228 234.18C83.2572 234.12 83.298 234.066 83.3479 234.022C83.3979 233.978 83.4561 233.944 83.5192 233.922C83.5823 233.9 83.649 233.891 83.7157 233.895C83.7823 233.899 83.8475 233.916 83.9076 233.945C83.9676 233.974 84.0213 234.015 84.0656 234.065C84.1099 234.115 84.144 234.173 84.1658 234.236C84.1876 234.299 84.1967 234.366 84.1927 234.433C84.0202 237.112 84.0709 240.289 84.4363 240.939C85.8472 241.447 98.6463 240.574 103.204 238.97C104.219 238.615 104.381 238.351 104.381 238.351C103.752 236.93 98.9508 235.204 96.0682 234.473C95.9371 234.44 95.8244 234.356 95.7542 234.241C95.684 234.125 95.6619 233.986 95.6927 233.854C95.7092 233.79 95.7384 233.729 95.7785 233.675C95.8186 233.622 95.8689 233.577 95.9264 233.543C95.9839 233.509 96.0476 233.487 96.1137 233.478C96.1799 233.468 96.2472 233.472 96.3118 233.489C97.1238 233.692 104.29 235.58 105.315 238.046C105.447 238.341 105.518 238.919 104.604 239.457C102.422 240.756 92.1097 242.076 86.8013 242.076Z" fill="#14142B"/>
<path d="M95.0018 128.02C94.908 128.018 94.8167 127.99 94.7379 127.939C94.0883 127.533 78.8633 117.85 73.5954 112.714C73.5479 112.666 73.5101 112.61 73.4843 112.549C73.4586 112.487 73.4453 112.42 73.4453 112.353C73.4453 112.286 73.4586 112.22 73.4843 112.158C73.5101 112.096 73.5479 112.04 73.5954 111.993C73.6417 111.946 73.697 111.908 73.758 111.883C73.819 111.857 73.8845 111.844 73.9507 111.844C74.0169 111.844 74.0823 111.857 74.1433 111.883C74.2044 111.908 74.2596 111.946 74.3059 111.993C79.5027 117.007 95.1337 126.944 95.286 127.045C95.3434 127.079 95.3935 127.123 95.4331 127.177C95.4727 127.23 95.5009 127.291 95.5161 127.356C95.5313 127.42 95.5332 127.487 95.5215 127.553C95.5099 127.618 95.485 127.68 95.4484 127.736C95.4073 127.82 95.3439 127.89 95.2651 127.941C95.1863 127.991 95.0952 128.018 95.0018 128.02Z" fill="#14142B"/>
</svg>
