<svg width="76" height="14" viewBox="0 0 76 14" fill="none" xmlns="http://www.w3.org/2000/svg">
<path d="M2.402 11.344H6.632V13H0.35V0.489999H2.402V11.344ZM8.41405 7.996C8.41405 7 8.61805 6.118 9.02605 5.35C9.44605 4.582 10.01 3.988 10.718 3.568C11.438 3.136 12.23 2.92 13.094 2.92C13.874 2.92 14.552 3.076 15.128 3.388C15.716 3.688 16.184 4.066 16.532 4.522V3.082H18.602V13H16.532V11.524C16.184 11.992 15.71 12.382 15.11 12.694C14.51 13.006 13.826 13.162 13.058 13.162C12.206 13.162 11.426 12.946 10.718 12.514C10.01 12.07 9.44605 11.458 9.02605 10.678C8.61805 9.886 8.41405 8.992 8.41405 7.996ZM16.532 8.032C16.532 7.348 16.388 6.754 16.1 6.25C15.824 5.746 15.458 5.362 15.002 5.098C14.546 4.834 14.054 4.702 13.526 4.702C12.998 4.702 12.506 4.834 12.05 5.098C11.594 5.35 11.222 5.728 10.934 6.232C10.658 6.724 10.52 7.312 10.52 7.996C10.52 8.68 10.658 9.28 10.934 9.796C11.222 10.312 11.594 10.708 12.05 10.984C12.518 11.248 13.01 11.38 13.526 11.38C14.054 11.38 14.546 11.248 15.002 10.984C15.458 10.72 15.824 10.336 16.1 9.832C16.388 9.316 16.532 8.716 16.532 8.032ZM24.4413 4.756V10.246C24.4413 10.618 24.5253 10.888 24.6933 11.056C24.8733 11.212 25.1733 11.29 25.5933 11.29H26.8533V13H25.2333C24.3093 13 23.6013 12.784 23.1093 12.352C22.6173 11.92 22.3713 11.218 22.3713 10.246V4.756H21.2013V3.082H22.3713V0.616H24.4413V3.082H26.8533V4.756H24.4413ZM38.5845 7.798C38.5845 8.17 38.5605 8.506 38.5125 8.806H30.9345C30.9945 9.598 31.2885 10.234 31.8165 10.714C32.3445 11.194 32.9925 11.434 33.7605 11.434C34.8645 11.434 35.6445 10.972 36.1005 10.048H38.3145C38.0145 10.96 37.4685 11.71 36.6765 12.298C35.8965 12.874 34.9245 13.162 33.7605 13.162C32.8125 13.162 31.9605 12.952 31.2045 12.532C30.4605 12.1 29.8725 11.5 29.4405 10.732C29.0205 9.952 28.8105 9.052 28.8105 8.032C28.8105 7.012 29.0145 6.118 29.4225 5.35C29.8425 4.57 30.4245 3.97 31.1685 3.55C31.9245 3.13 32.7885 2.92 33.7605 2.92C34.6965 2.92 35.5305 3.124 36.2625 3.532C36.9945 3.94 37.5645 4.516 37.9725 5.26C38.3805 5.992 38.5845 6.838 38.5845 7.798ZM36.4425 7.15C36.4305 6.394 36.1605 5.788 35.6325 5.332C35.1045 4.876 34.4505 4.648 33.6705 4.648C32.9625 4.648 32.3565 4.876 31.8525 5.332C31.3485 5.776 31.0485 6.382 30.9525 7.15H36.4425ZM45.4399 0.489999C46.7719 0.489999 47.9359 0.747999 48.9319 1.264C49.9399 1.768 50.7139 2.5 51.2539 3.46C51.8059 4.408 52.0819 5.518 52.0819 6.79C52.0819 8.062 51.8059 9.166 51.2539 10.102C50.7139 11.038 49.9399 11.758 48.9319 12.262C47.9359 12.754 46.7719 13 45.4399 13H41.3539V0.489999H45.4399ZM45.4399 11.326C46.9039 11.326 48.0259 10.93 48.8059 10.138C49.5859 9.346 49.9759 8.23 49.9759 6.79C49.9759 5.338 49.5859 4.204 48.8059 3.388C48.0259 2.572 46.9039 2.164 45.4399 2.164H43.4059V11.326H45.4399ZM63.9556 7.798C63.9556 8.17 63.9316 8.506 63.8836 8.806H56.3056C56.3656 9.598 56.6596 10.234 57.1876 10.714C57.7156 11.194 58.3636 11.434 59.1316 11.434C60.2356 11.434 61.0156 10.972 61.4716 10.048H63.6856C63.3856 10.96 62.8396 11.71 62.0476 12.298C61.2676 12.874 60.2956 13.162 59.1316 13.162C58.1836 13.162 57.3316 12.952 56.5756 12.532C55.8316 12.1 55.2436 11.5 54.8116 10.732C54.3916 9.952 54.1816 9.052 54.1816 8.032C54.1816 7.012 54.3856 6.118 54.7936 5.35C55.2136 4.57 55.7956 3.97 56.5396 3.55C57.2956 3.13 58.1596 2.92 59.1316 2.92C60.0676 2.92 60.9016 3.124 61.6336 3.532C62.3656 3.94 62.9356 4.516 63.3436 5.26C63.7516 5.992 63.9556 6.838 63.9556 7.798ZM61.8136 7.15C61.8016 6.394 61.5316 5.788 61.0036 5.332C60.4756 4.876 59.8216 4.648 59.0416 4.648C58.3336 4.648 57.7276 4.876 57.2236 5.332C56.7196 5.776 56.4196 6.382 56.3236 7.15H61.8136ZM70.559 11.164L73.367 3.082H75.545L71.765 13H69.317L65.555 3.082H67.751L70.559 11.164Z" fill="black"/>
</svg>
