<svg width="256" height="258" viewBox="0 0 256 258" fill="none" xmlns="http://www.w3.org/2000/svg">
<path d="M14.0123 128.549L39.3467 143.297L26.6795 165.515L1.05078 150.656L14.0123 128.549Z" fill="white"/>
<path d="M26.6792 166.032C26.5862 166.034 26.4946 166.01 26.4153 165.961L0.786513 151.102C0.726721 151.068 0.674346 151.023 0.63255 150.969C0.590753 150.914 0.560407 150.852 0.543333 150.786C0.526259 150.719 0.522816 150.65 0.533212 150.582C0.543607 150.514 0.56762 150.449 0.603812 150.391L13.5552 128.285C13.5898 128.226 13.6356 128.174 13.69 128.133C13.7445 128.092 13.8065 128.063 13.8725 128.046C13.9385 128.029 14.0072 128.025 14.0747 128.035C14.1422 128.044 14.2071 128.067 14.2657 128.102L39.6407 142.84C39.7591 142.91 39.8455 143.023 39.8815 143.156C39.9175 143.288 39.9003 143.43 39.8336 143.55L27.1359 165.768C27.0625 165.89 26.9469 165.98 26.8111 166.022L26.6792 166.032ZM1.77106 150.462L26.4863 164.794L38.6663 143.479L14.2454 129.269L1.77106 150.462Z" fill="#14142B"/>
<path d="M39.2241 236.717C37.9363 239 36.8821 241.408 36.0776 243.903C35.0118 247.435 37.1535 252.51 38.6557 253.87C39.4536 254.485 40.4351 254.813 41.4423 254.802C42.4494 254.791 43.4234 254.441 44.2077 253.809C45.8622 252.358 44.2077 238.432 44.2077 238.432L39.2241 236.717Z" fill="#14142B"/>
<path d="M41.3047 255.322C40.1907 255.358 39.104 254.974 38.2597 254.246C36.6357 252.774 34.423 247.456 35.5497 243.761C36.3559 241.215 37.4311 238.762 38.7571 236.443C38.8187 236.349 38.91 236.277 39.0166 236.241C39.1232 236.204 39.239 236.204 39.3458 236.24L44.2685 237.955C44.3582 237.986 44.4373 238.041 44.4966 238.115C44.5559 238.188 44.593 238.277 44.6035 238.372C45.0196 241.701 46.2173 252.683 44.4918 254.195C43.5894 254.924 42.4646 255.322 41.3047 255.322ZM39.4574 237.336C38.2813 239.477 37.3159 241.728 36.5748 244.056C35.5598 247.334 37.5898 252.176 39.0007 253.495C39.7069 254.025 40.5689 254.307 41.4521 254.296C42.3353 254.285 43.19 253.982 43.8828 253.434C44.7862 252.653 44.502 245.436 43.7001 238.808L39.4574 237.336Z" fill="#14142B"/>
<path d="M55.4438 185.896C50.6334 192.142 47.0765 199.259 44.969 206.856C41.7312 219.036 40.0158 235.814 39.823 236.382C39.6301 236.95 36.5851 242.289 38.7268 243.294C40.8684 244.299 43.0101 244.867 44.157 238.432C44.157 238.432 66.3043 194.28 67.1569 188.992C68.0095 183.703 55.4438 185.896 55.4438 185.896Z" fill="white"/>
<path d="M40.8172 244.431C40.0075 244.379 39.2183 244.154 38.503 243.772C38.2897 243.673 38.0986 243.533 37.9416 243.358C37.7845 243.184 37.6647 242.979 37.5895 242.757C37.0617 241.285 38.0564 238.879 39.0917 236.727C39.2135 236.484 39.2947 236.311 39.3251 236.23C39.3556 236.149 39.4774 235.144 39.6195 234.038C40.2995 228.76 41.8931 216.407 44.461 206.734C46.6005 199.068 50.1909 191.884 55.0373 185.571C55.1189 185.477 55.2296 185.413 55.352 185.389C55.7174 185.328 64.2434 183.876 66.9027 186.505C67.2373 186.836 67.4834 187.245 67.6182 187.696C67.753 188.146 67.7722 188.623 67.6741 189.083C66.8215 194.341 45.9632 236.017 44.6539 238.615C44.0956 241.742 43.243 243.508 41.9946 244.157C41.6306 244.344 41.2262 244.438 40.8172 244.431ZM55.7275 186.383C51.0367 192.542 47.5548 199.533 45.4659 206.988C42.9182 216.6 41.3348 228.902 40.6548 234.159C40.4213 236.017 40.3706 236.403 40.3198 236.555C40.2691 236.707 40.1777 236.87 40.0356 237.174C39.5078 238.26 38.1274 241.133 38.574 242.391C38.6028 242.485 38.6512 242.571 38.7159 242.645C38.7807 242.718 38.8603 242.777 38.9496 242.817C40.0356 243.325 40.8375 243.569 41.5074 243.223C42.431 242.736 43.1517 241.102 43.6389 238.341C43.6465 238.291 43.6638 238.243 43.6896 238.199C43.9129 237.763 65.8065 194.057 66.6388 188.911C66.7097 188.614 66.7031 188.304 66.6196 188.011C66.536 187.718 66.3783 187.451 66.1617 187.236C64.3246 185.429 58.194 185.977 55.7275 186.383Z" fill="#14142B"/>
<path d="M126.464 236.717C127.751 238.999 128.801 241.407 129.6 243.903C130.676 247.435 128.534 252.51 127.032 253.87C126.234 254.485 125.253 254.813 124.246 254.802C123.238 254.791 122.264 254.441 121.48 253.809C119.815 252.358 121.48 238.432 121.48 238.432L126.464 236.717Z" fill="#14142B"/>
<path d="M124.383 255.302C123.207 255.324 122.061 254.932 121.145 254.195C119.42 252.683 120.617 241.701 121.033 238.372C121.044 238.278 121.081 238.188 121.14 238.115C121.2 238.041 121.279 237.986 121.368 237.955L126.291 236.24C126.398 236.205 126.513 236.207 126.619 236.243C126.726 236.28 126.817 236.35 126.88 236.443C128.195 238.767 129.269 241.219 130.087 243.761C131.214 247.456 128.991 252.774 127.367 254.246C126.535 254.952 125.473 255.328 124.383 255.302ZM121.998 238.808C121.196 245.436 120.912 252.653 121.815 253.434C122.507 253.984 123.362 254.288 124.246 254.299C125.129 254.31 125.991 254.027 126.697 253.495C128.118 252.206 130.118 247.334 129.123 244.056C128.374 241.729 127.405 239.479 126.23 237.336L121.998 238.808Z" fill="#14142B"/>
<path d="M110.244 185.896C115.055 192.142 118.611 199.259 120.719 206.856C123.957 219.036 125.672 235.814 125.865 236.382C126.058 236.95 129.103 242.289 126.961 243.294C124.82 244.299 122.678 244.867 121.531 238.432C121.531 238.432 99.3837 194.28 98.5209 188.992C97.6582 183.703 110.244 185.896 110.244 185.896Z" fill="white"/>
<path d="M124.881 244.431C124.471 244.434 124.067 244.337 123.704 244.146C122.455 243.497 121.603 241.731 121.034 238.605C119.735 236.006 98.8669 194.33 98.0143 189.073C97.9202 188.612 97.9424 188.135 98.0788 187.685C98.2153 187.235 98.4617 186.826 98.7958 186.494C101.455 183.866 109.961 185.317 110.346 185.378C110.469 185.402 110.58 185.466 110.661 185.561C115.508 191.874 119.098 199.058 121.237 206.723C123.805 216.396 125.399 228.749 126.079 234.027C126.221 235.133 126.343 236.057 126.373 236.24L126.607 236.717C127.622 238.868 128.637 241.274 128.109 242.746C128.032 242.967 127.912 243.171 127.755 243.346C127.598 243.52 127.408 243.661 127.195 243.761C126.48 244.146 125.692 244.374 124.881 244.431ZM104.957 185.977C102.734 185.977 100.521 186.271 99.5368 187.235C99.3208 187.451 99.1629 187.717 99.0777 188.01C98.9925 188.303 98.9828 188.613 99.0496 188.91C99.892 194.056 121.786 237.762 122.009 238.199C122.03 238.244 122.047 238.292 122.06 238.341C122.547 241.101 123.267 242.736 124.191 243.223C124.861 243.568 125.663 243.324 126.749 242.817C126.838 242.776 126.918 242.718 126.983 242.644C127.047 242.571 127.096 242.484 127.124 242.391C127.571 241.132 126.181 238.259 125.663 237.173C125.558 236.972 125.463 236.765 125.379 236.554C125.379 236.402 125.277 236.016 125.034 234.159C124.364 228.901 122.78 216.599 120.222 206.987C118.135 199.534 114.657 192.543 109.971 186.383C108.309 186.118 106.629 185.982 104.947 185.977H104.957Z" fill="#14142B"/>
<path d="M62.8742 127.219C62.8742 127.787 54.876 168.753 53.3535 187.043C53.3535 187.043 84.5952 203.425 113.178 185.896C113.178 185.896 106.692 159.607 106.509 153.507C106.326 147.407 103.261 131.411 98.8864 124.742L62.8742 127.219Z" fill="#14142B"/>
<path d="M83.8441 194.452C73.2175 194.371 62.7338 191.996 53.1099 187.489C53.0225 187.444 52.9508 187.373 52.9038 187.286C52.8568 187.199 52.8367 187.1 52.846 187.002C54.0741 172.203 59.5348 142.637 61.5953 131.502C62.0317 129.107 62.3565 127.381 62.3667 127.188C62.3799 127.066 62.4343 126.952 62.5211 126.866C62.6079 126.779 62.7217 126.724 62.8437 126.711L98.8458 124.235C98.9351 124.226 99.025 124.243 99.1056 124.282C99.1862 124.321 99.2543 124.382 99.3025 124.458C103.728 131.197 106.814 147.082 107.006 153.497C107.199 159.465 113.594 185.51 113.665 185.774C113.689 185.879 113.68 185.988 113.64 186.088C113.6 186.188 113.531 186.273 113.441 186.332C104.526 191.746 94.2741 194.559 83.8441 194.452ZM53.8813 186.738C57.1293 188.322 86.1481 201.628 112.599 185.662C111.787 182.353 106.184 159.272 106.002 153.527C105.809 147.437 102.794 131.898 98.6225 125.26L63.3106 127.696C63.2193 128.213 63.0264 129.31 62.5798 131.685C60.5498 142.718 55.1602 171.889 53.8813 186.738Z" fill="#14142B"/>
<path d="M118.791 38.6908L121.197 32.1745C121.197 32.1745 120.08 29.6066 121.329 27.6882C122.577 25.7699 123.359 24.1357 124.374 24.7244C125.389 25.3131 130.464 27.9623 129.641 31.1392C128.819 34.3162 126.596 34.7526 126.596 34.7526C125.534 37.7462 124.202 40.6372 122.618 43.3903L118.791 38.6908Z" fill="white"/>
<path d="M122.596 43.9072C122.519 43.9062 122.442 43.8885 122.372 43.8552C122.302 43.8219 122.24 43.7739 122.19 43.7144L118.364 39.0251C118.306 38.9533 118.269 38.8678 118.254 38.777C118.24 38.6862 118.25 38.5933 118.283 38.5074L120.617 32.184C120.305 31.4175 120.166 30.5917 120.21 29.7653C120.254 28.9389 120.479 28.1324 120.871 27.4033L121.368 26.6218C122.383 24.947 123.398 23.5057 124.606 24.2771L124.911 24.4598C126.403 25.3226 130.95 27.9616 130.107 31.2705C129.967 32.1346 129.605 32.9477 129.057 33.6306C128.509 34.3136 127.794 34.8432 126.981 35.1681C125.919 38.116 124.609 40.9683 123.063 43.6941C123.021 43.7686 122.96 43.8316 122.888 43.8776C122.815 43.9236 122.733 43.9511 122.647 43.958L122.596 43.9072ZM119.369 38.6191L122.515 42.4862C123.921 39.97 125.109 37.3383 126.068 34.62C126.096 34.5292 126.149 34.4479 126.221 34.3853C126.292 34.3226 126.38 34.2809 126.474 34.2647C126.545 34.2647 128.382 33.8384 129.092 31.0472C129.742 28.4995 125.712 26.165 124.383 25.3936L124.058 25.2008C123.672 24.9673 122.952 26.1041 122.261 27.2308C122.089 27.4845 121.926 27.7586 121.744 28.0326C120.668 29.6769 121.652 31.9911 121.663 32.0216C121.708 32.1461 121.708 32.2828 121.663 32.4073L119.369 38.6191Z" fill="#14142B"/>
<path d="M123.795 26.0537C125.268 26.7882 126.519 27.9024 127.418 29.2814C127.538 29.4343 127.599 29.6252 127.591 29.8194C127.591 30.0528 127.307 30.1848 127.093 30.2863C126.807 30.4612 126.475 30.5461 126.139 30.5299C125.925 30.4925 125.72 30.4094 125.54 30.2863C124.8 29.8415 124.118 29.3062 123.51 28.6927C123.789 28.9199 123.998 29.2222 124.111 29.5638C124.224 29.9054 124.237 30.2722 124.148 30.621C124.06 30.9698 123.873 31.286 123.611 31.5324C123.349 31.7788 123.022 31.9451 122.668 32.0118" fill="white"/>
<path d="M122.709 32.5299C122.588 32.5294 122.471 32.4865 122.378 32.4086C122.285 32.3307 122.223 32.2228 122.201 32.1036C122.174 31.9663 122.203 31.824 122.281 31.7079C122.359 31.5918 122.48 31.5114 122.617 31.4844C122.862 31.4225 123.086 31.2955 123.265 31.1168C123.443 30.9381 123.57 30.7144 123.632 30.4694C123.679 30.262 123.679 30.0467 123.631 29.8394C123.584 29.6321 123.491 29.4381 123.358 29.2717C123.277 29.2007 123.206 29.1195 123.125 29.0383C123.074 28.9923 123.033 28.9368 123.004 28.8749C122.975 28.813 122.958 28.746 122.955 28.6777C122.951 28.6094 122.962 28.541 122.985 28.4767C123.008 28.4123 123.043 28.3531 123.089 28.3024C123.135 28.2517 123.191 28.2107 123.253 28.1815C123.315 28.1523 123.382 28.1355 123.45 28.1322C123.518 28.1289 123.587 28.1391 123.651 28.1622C123.715 28.1853 123.775 28.2209 123.825 28.2669C123.934 28.3572 124.036 28.4556 124.13 28.5612C124.629 29.0367 125.177 29.4585 125.764 29.8198C125.884 29.9007 126.018 29.9591 126.16 29.9924C126.39 29.9832 126.614 29.9131 126.809 29.7894C126.883 29.7634 126.951 29.7256 127.012 29.6777C126.98 29.6374 126.952 29.593 126.931 29.5458C126.081 28.2454 124.901 27.1945 123.511 26.5008C123.401 26.4314 123.321 26.3242 123.286 26.1996C123.25 26.0751 123.262 25.9418 123.318 25.8253C123.375 25.7087 123.472 25.6169 123.592 25.5674C123.711 25.5179 123.845 25.5141 123.967 25.5568C125.529 26.3331 126.854 27.5143 127.804 28.9774C127.906 29.1085 127.98 29.2589 128.021 29.4193C128.063 29.5798 128.072 29.7471 128.048 29.9112C127.99 30.0977 127.89 30.2686 127.757 30.4111C127.623 30.5535 127.459 30.6637 127.276 30.7333C126.978 30.9407 126.624 31.0519 126.261 31.0519C125.898 31.0519 125.544 30.9407 125.246 30.7333L124.739 30.3984C124.728 30.5183 124.708 30.6371 124.678 30.7536C124.564 31.188 124.333 31.5829 124.011 31.896C123.689 32.209 123.288 32.4282 122.851 32.5299H122.709Z" fill="#14142B"/>
<path d="M32.2106 120.956L31.1245 129.493C31.0535 130.02 32.2004 131.685 32.3527 132.335C32.7587 134.182 32.8196 136.232 33.0734 138.12C33.0734 138.404 33.1342 138.759 32.9008 138.932C32.6673 139.105 32.2106 138.932 31.8858 138.678L29.5107 136.75C28.3385 138.82 27.3207 140.975 26.4657 143.195C24.4966 143.672 22.5478 142.353 21.137 140.891C20.9793 140.74 20.8457 140.565 20.7411 140.373C20.6464 140.137 20.5915 139.887 20.5787 139.632C20.2133 136.232 19.8073 129.645 23.8267 127.889C24.2738 123.981 25.0755 120.121 26.2221 116.358L32.2106 120.956Z" fill="white"/>
<path d="M25.7145 143.815C24.7713 143.735 23.8536 143.468 23.0152 143.028C22.1769 142.589 21.4347 141.987 20.8323 141.257C20.6344 141.065 20.4697 140.843 20.3451 140.597C20.2202 140.311 20.148 140.005 20.132 139.694C19.8681 137.207 19.117 129.757 23.4104 127.514C23.8817 123.681 24.6762 119.895 25.7855 116.196C25.8079 116.113 25.8514 116.036 25.9118 115.974C25.9722 115.912 26.0475 115.866 26.1306 115.841C26.2108 115.816 26.296 115.81 26.379 115.824C26.462 115.838 26.5404 115.872 26.6077 115.922L32.5352 120.52C32.6066 120.579 32.6625 120.653 32.698 120.738C32.7334 120.823 32.7472 120.916 32.7383 121.008C32.7383 121.008 31.6421 129.503 31.6421 129.544C31.7965 129.996 31.9972 130.432 32.2409 130.843C32.4994 131.271 32.7072 131.727 32.86 132.203C33.1022 133.427 33.2717 134.664 33.3675 135.908C33.4284 136.628 33.4995 137.339 33.5908 138.029C33.6524 138.259 33.65 138.502 33.5838 138.731C33.5176 138.96 33.3902 139.166 33.2153 139.328C32.9616 139.521 32.4134 139.734 31.6014 139.064L29.7034 137.532C28.6852 139.414 27.7901 141.36 27.0238 143.358C26.9936 143.437 26.9446 143.509 26.881 143.565C26.8174 143.622 26.741 143.662 26.6584 143.683C26.3496 143.762 26.033 143.806 25.7145 143.815ZM26.5772 117.252C25.5421 120.745 24.812 124.321 24.395 127.94C24.3845 128.034 24.35 128.123 24.2949 128.199C24.2398 128.276 24.1659 128.337 24.0803 128.376C21.421 129.534 20.4568 133.208 21.1368 139.592C21.1453 139.784 21.1865 139.973 21.2586 140.15C21.334 140.298 21.4374 140.429 21.5631 140.536C22.4868 141.5 24.2731 143.013 26.1204 142.749C26.9587 140.6 27.9422 138.511 29.0639 136.496C29.1011 136.431 29.1522 136.374 29.2135 136.33C29.2749 136.286 29.3451 136.257 29.4192 136.243C29.4957 136.228 29.5745 136.23 29.6499 136.25C29.7254 136.269 29.7956 136.305 29.8556 136.354L32.2308 138.293C32.3323 138.376 32.4451 138.444 32.5657 138.496C32.5657 138.496 32.5657 138.364 32.5657 138.202C32.4744 137.501 32.4033 136.77 32.3323 136.04C32.2452 134.84 32.0825 133.646 31.845 132.467C31.71 132.082 31.5366 131.711 31.3274 131.361C30.9255 130.79 30.6773 130.126 30.6068 129.432C30.6068 129.361 31.4797 122.692 31.6218 121.2L26.5772 117.252Z" fill="#14142B"/>
<path d="M74.3131 74.4089C74.096 74.3056 73.8679 74.2273 73.6331 74.1754C71.8974 73.7999 69.2077 75.8908 67.7461 76.9261C66.2252 78.1038 65.1194 79.7358 64.5894 81.5849C63.8775 84.0179 63.3949 86.5121 63.1481 89.035C61.5343 102.23 61.5343 115.831 60.7324 129.128C60.7324 129.128 71.7959 137.126 81.0324 135.837C90.2689 134.548 101.85 129.27 101.85 129.27C101.85 129.27 98.6122 92.415 98.4904 86.8223C98.4904 86.8223 104.337 78.9662 111.34 69.2527C118.344 59.5391 124.82 40.65 124.82 40.65L118.73 36.5088C118.73 36.5088 97.9119 69.5673 94.2883 72.6631C90.8272 75.6167 85.7116 76.4795 81.2963 76.2359C79.713 76.1538 78.1419 75.9124 76.607 75.5152C75.8136 75.2093 75.0465 74.8393 74.3131 74.4089Z" fill="#6A96FF"/>
<path d="M68.9539 70.4904C68.2259 70.0614 67.6589 69.4053 67.34 68.6228C67.2867 68.0153 67.388 67.4043 67.6344 66.8465C69.6644 60.7565 69.2584 53.7936 72.7094 48.3735C73.1249 47.6227 73.7215 46.9876 74.445 46.5262C74.809 46.2995 75.2292 46.1793 75.658 46.1793C76.0867 46.1793 76.5069 46.2995 76.8709 46.5262C79.9159 41.3599 87.3964 45.0545 89.5178 49.216C91.7609 53.6211 93.0804 58.6758 94.745 63.3245C95.3732 64.7234 95.6718 66.2478 95.6179 67.7803C95.5747 68.5447 95.2792 69.2731 94.7779 69.8516C94.2765 70.4302 93.5974 70.8261 92.847 70.9776L92.035 69.5667C92.1266 69.6765 92.1956 69.8034 92.238 69.94C92.2805 70.0765 92.2955 70.2202 92.2823 70.3626C92.2691 70.505 92.2279 70.6434 92.1611 70.7698C92.0943 70.8962 92.0031 71.0082 91.8929 71.0994C91.4613 71.4571 90.9433 71.6952 90.3907 71.7896C85.0213 73.1395 79.2257 74.2256 74.0289 72.3783C73.227 72.0941 72.2831 71.3633 72.5977 70.5919C72.1004 71.9926 70.3241 71.4445 68.9539 70.4904Z" fill="white"/>
<path d="M80.2213 73.8601C78.071 73.8849 75.9323 73.5416 73.8978 72.8451C73.2769 72.6429 72.7319 72.2571 72.3347 71.7387C72.2474 71.7877 72.1556 71.8285 72.0607 71.8605C70.792 72.2868 69.1679 71.2414 68.6909 70.9166C68.3153 70.6527 67.0466 69.6986 66.8639 68.714C66.7898 68.0508 66.8877 67.3797 67.1481 66.7652C67.8827 64.3721 68.4291 61.9253 68.7822 59.4471C69.442 55.5495 70.1322 51.5098 72.284 48.0892C72.7502 47.2644 73.4126 46.5671 74.2125 46.0592C74.5876 45.8428 75.0057 45.7115 75.4372 45.6747C75.8687 45.6379 76.303 45.6964 76.7094 45.8461C77.2333 45.0699 77.951 44.4442 78.7914 44.0311C79.6318 43.618 80.5656 43.4319 81.5002 43.4913C83.2552 43.6545 84.9448 44.239 86.4256 45.195C87.9064 46.151 89.1346 47.4502 90.0059 48.9824C91.5171 52.1943 92.7827 55.5161 93.7918 58.9193C94.2587 60.3403 94.7256 61.7511 95.223 63.1315C95.8782 64.6085 96.1838 66.2166 96.1162 67.831C96.0586 68.7146 95.7079 69.5538 95.1196 70.2157C94.5313 70.8775 93.739 71.3242 92.8682 71.485C92.777 71.4939 92.6851 71.4789 92.6014 71.4416C92.5178 71.4042 92.4453 71.3457 92.3911 71.2718L92.2592 71.4241C91.7648 71.8488 91.1653 72.1328 90.5235 72.2462C87.167 73.1972 83.7079 73.7391 80.2213 73.8601ZM73.1163 70.8151C73.0874 70.8902 73.0874 70.9734 73.1163 71.0485C73.3796 71.4394 73.7708 71.7265 74.2226 71.8605C79.2367 73.6266 84.9004 72.6116 90.2901 71.2617C90.7465 71.1897 91.1766 71.0009 91.5385 70.7136C91.6756 70.5754 91.7554 70.3905 91.7618 70.1959L91.5995 69.9016C91.5239 69.7932 91.4926 69.6601 91.512 69.5294C91.5314 69.3988 91.6 69.2805 91.7038 69.1987C91.8075 69.117 91.9386 69.0781 92.0702 69.0898C92.2017 69.1016 92.3238 69.1633 92.4114 69.2621C92.5624 69.4137 92.677 69.5977 92.7464 69.8001L93.122 70.47C93.6797 70.262 94.1668 69.8996 94.5263 69.4251C94.8857 68.9506 95.1028 68.3836 95.152 67.7904C95.1831 66.3382 94.8955 64.8969 94.3095 63.568C93.8121 62.1774 93.3453 60.7564 92.8682 59.3253C91.8607 55.9671 90.6019 52.6896 89.1025 49.5204C88.3239 48.1496 87.2264 46.9866 85.9031 46.1297C84.5798 45.2728 83.0696 44.7473 81.5002 44.5976C80.6675 44.5498 79.8382 44.7378 79.1075 45.14C78.3768 45.5421 77.7743 46.1422 77.3691 46.8712C77.331 46.933 77.2808 46.9864 77.2215 47.0283C77.1622 47.0702 77.095 47.0996 77.024 47.1148C76.9522 47.13 76.8779 47.1297 76.8061 47.1139C76.7344 47.0982 76.6668 47.0673 76.6079 47.0235C76.3296 46.854 76.0101 46.7644 75.6842 46.7644C75.3584 46.7644 75.0389 46.854 74.7606 47.0235C74.0869 47.4208 73.522 47.9788 73.1163 48.6475C71.0863 51.8955 70.4265 55.651 69.7566 59.6196C69.404 62.1304 68.861 64.6107 68.1326 67.0393C67.926 67.5158 67.8288 68.0326 67.8484 68.5516C68.155 69.192 68.6464 69.7258 69.2593 70.0843C69.9308 70.6606 70.8025 70.9487 71.6851 70.8861C71.7776 70.8559 71.8616 70.8043 71.9304 70.7355C71.9991 70.6667 72.0507 70.5827 72.081 70.4903C72.0785 70.4565 72.0785 70.4226 72.081 70.3888C72.1294 70.2542 72.2294 70.1443 72.3588 70.0834C72.4883 70.0225 72.6366 70.0155 72.7712 70.064C72.9058 70.1124 73.0156 70.2124 73.0765 70.3418C73.1374 70.4712 73.1444 70.6196 73.096 70.7542C73.1054 70.7735 73.1122 70.794 73.1163 70.8151Z" fill="#14142B"/>
<path d="M83.1736 85.1773L82.9706 85.3499C82.7133 85.5592 82.4005 85.6889 82.0706 85.7232C81.7407 85.7574 81.408 85.6947 81.1132 85.5427C80.8415 85.3443 80.6134 85.0921 80.4433 84.8018C78.2712 81.6857 76.8096 78.4479 77.4592 74.5706C77.4615 74.5334 77.4615 74.4961 77.4592 74.4589L77.3576 73.1496L77.0938 69.5362V69.0084V68.2471L77.4186 64.248L85.8126 64.3394L86.107 69.2317V69.5362L86.2998 72.6726L86.4013 74.3879V74.4589C86.4044 77.7125 85.595 80.9152 84.0465 83.7766C83.8339 84.288 83.5391 84.7612 83.1736 85.1773Z" fill="white"/>
<path d="M81.8335 86.2636C81.4747 86.2695 81.122 86.1707 80.8185 85.9794C80.4893 85.7458 80.2098 85.4491 79.9963 85.1065C78.1795 82.4878 76.1901 78.9252 76.9513 74.4896L76.5859 69.577L76.6773 68.2068L77.0021 64.2077C77.0124 64.0757 77.0729 63.9528 77.171 63.8641C77.2692 63.7754 77.3976 63.7276 77.5299 63.7306L85.9239 63.8118C86.0563 63.8164 86.1823 63.8697 86.2779 63.9615C86.3734 64.0533 86.4317 64.1771 86.4416 64.3092L86.7258 69.2015C86.7258 69.2015 86.7258 69.303 86.7258 69.3131L87.0201 74.3881C87.0487 77.7574 86.2209 81.0788 84.6146 84.0408C84.3464 84.6181 83.9788 85.1437 83.5285 85.5937L83.2849 85.8069C82.8592 86.104 82.3526 86.2634 81.8335 86.2636ZM77.9968 64.7761L77.6212 69.5669L77.9968 74.4186C78.004 74.4996 78.004 74.5811 77.9968 74.6622C77.4588 77.8696 78.3216 80.8131 80.8895 84.5077C81.0274 84.7349 81.2064 84.9346 81.4173 85.0964C81.6213 85.1899 81.8474 85.2243 82.0699 85.1955C82.2924 85.1668 82.5024 85.0762 82.6759 84.934C82.7347 84.8921 82.7891 84.8445 82.8383 84.7919C83.2029 84.4306 83.4956 84.0035 83.7011 83.5333C85.2152 80.76 86.0043 77.6492 85.995 74.4896L85.6905 69.3334V69.2319L85.4367 64.8573L77.9968 64.7761Z" fill="#14142B"/>
<path d="M77.0938 69.5363C77.7559 70.6833 78.6945 71.6463 79.8241 72.3377C81.6105 73.5049 84.148 74.5402 86.3404 74.185L86.1882 69.2318C84.5851 69.4498 82.9598 69.4498 81.3567 69.2318C79.9205 69.142 78.5116 68.7983 77.1953 68.2168L77.0938 69.5363Z" fill="#14142B"/>
<path d="M85.4072 74.7632C83.3077 74.6272 81.284 73.9258 79.5507 72.7332C78.3416 71.9794 77.343 70.9319 76.6478 69.6882C76.6226 69.5986 76.6226 69.5038 76.6478 69.4142L76.7391 68.1251C76.7464 68.0422 76.7732 67.9623 76.8173 67.8917C76.8614 67.8211 76.9216 67.762 76.9929 67.7191C77.066 67.6792 77.148 67.6582 77.2314 67.6582C77.3147 67.6582 77.3968 67.6792 77.4699 67.7191C78.7364 68.2545 80.0859 68.567 81.4589 68.6428C83.0218 68.8512 84.6055 68.8512 86.1685 68.6428C86.2386 68.6283 86.3111 68.6309 86.38 68.6503C86.4489 68.6698 86.5121 68.7055 86.5643 68.7544C86.6199 68.798 86.6652 68.8534 86.6968 68.9166C86.7284 68.9798 86.7455 69.0492 86.747 69.1198L86.8993 74.073C86.9033 74.1964 86.8623 74.317 86.7838 74.4123C86.7053 74.5076 86.5948 74.571 86.473 74.5907C86.1228 74.6762 85.7665 74.7339 85.4072 74.7632ZM77.612 69.4243C78.23 70.4403 79.0828 71.2931 80.0988 71.9111C81.7702 73.1 83.7722 73.7354 85.8234 73.7279L85.7016 69.7999C84.2348 69.9373 82.7572 69.91 81.2965 69.7187C80.0534 69.6236 78.8265 69.3782 77.6425 68.9879L77.612 69.4243Z" fill="#14142B"/>
<path d="M81.3673 70.4093H82.2503C83.2194 70.4201 84.181 70.2398 85.0804 69.8788C85.9798 69.5179 86.7993 68.9833 87.492 68.3056C88.1848 67.6279 88.7373 66.8204 89.1179 65.9292C89.4986 65.038 89.7 64.0805 89.7106 63.1115C89.6249 60.8479 89.4114 58.5911 89.0711 56.3516C89.0711 56.3516 85.6709 55.1336 82.9811 54.1186C78.505 52.4235 77.2971 50.0586 77.2971 50.0586C77.1689 51.6665 76.8275 53.2502 76.2821 54.7682C75.6935 55.8392 75.0144 56.858 74.2521 57.8132C74.2521 57.8132 74.1202 61.4469 74.0999 62.9593C74.0835 64.9086 74.8382 66.7854 76.1994 68.1808C77.5606 69.5763 79.4181 70.3773 81.3673 70.4093Z" fill="white"/>
<path d="M82.3105 70.947H81.3564C79.2664 70.9203 77.272 70.0671 75.8094 68.574C74.3467 67.0809 73.5348 65.0694 73.551 62.9793C73.551 61.4568 73.6931 57.8129 73.6931 57.8129C73.6994 57.7026 73.7382 57.5967 73.8048 57.5084C74.5303 56.5747 75.1787 55.5835 75.7434 54.5446C76.2792 53.0833 76.6204 51.5579 76.7584 50.0076C76.7674 49.8924 76.814 49.7833 76.8911 49.6971C76.9681 49.6109 77.0712 49.5524 77.1847 49.5305C77.2976 49.508 77.4147 49.5237 77.5177 49.5752C77.6206 49.6266 77.7035 49.7109 77.7531 49.8147C77.7531 49.8147 78.961 52.0883 83.1631 53.6717C85.8224 54.6867 89.2531 55.9047 89.2531 55.9047C89.3434 55.9356 89.4234 55.9908 89.4843 56.0642C89.5452 56.1376 89.5846 56.2265 89.5982 56.3209C89.9496 58.5862 90.1632 60.8708 90.2376 63.162C90.2082 65.2422 89.3591 67.2268 87.8748 68.6845C86.3905 70.1422 84.3909 70.9553 82.3105 70.947ZM81.3665 69.932H82.2496C83.1497 69.9534 84.0448 69.7916 84.8805 69.4566C85.7163 69.1216 86.4752 68.6204 87.1114 67.9832C87.7513 67.3534 88.2601 66.6031 88.6086 65.7756C88.957 64.9481 89.1381 64.0598 89.1414 63.162C89.0717 61.0275 88.8751 58.899 88.5527 56.7878C87.6697 56.4731 84.9698 55.4886 82.7672 54.6563C80.8222 53.9894 79.06 52.8771 77.6212 51.4083C77.4407 52.6263 77.1276 53.821 76.6874 54.9709C76.1286 56.0435 75.4728 57.0628 74.7284 58.0159C74.7284 58.7467 74.5965 61.6699 74.5863 62.9894C74.5756 63.8887 74.7423 64.7812 75.0769 65.616C75.4114 66.4508 75.9073 67.2114 76.5361 67.8543C77.1649 68.4973 77.9143 69.0099 78.7414 69.3629C79.5685 69.716 80.4571 69.9025 81.3564 69.9117L81.3665 69.932Z" fill="#14142B"/>
<path d="M82.1188 62.6042C81.6881 62.6026 81.2579 62.5789 80.8297 62.5331C80.693 62.513 80.5697 62.44 80.4862 62.33C80.4027 62.2199 80.3657 62.0815 80.3831 61.9444C80.3918 61.8762 80.4141 61.8104 80.4485 61.7508C80.483 61.6912 80.5289 61.6392 80.5837 61.5976C80.6385 61.556 80.7011 61.5258 80.7677 61.5086C80.8344 61.4915 80.9038 61.4878 80.9718 61.4978C81.5962 61.5596 82.2252 61.5596 82.8496 61.4978C82.7243 60.0594 82.3571 58.6525 81.7635 57.3363C81.7137 57.2017 81.7194 57.0529 81.7794 56.9225C81.8393 56.7921 81.9487 56.6908 82.0832 56.641C82.2178 56.5912 82.3667 56.597 82.4971 56.6569C82.6275 56.7169 82.7287 56.8262 82.7785 56.9608C83.2556 58.1889 84.3213 61.173 83.7935 62.117C83.7286 62.2278 83.639 62.3222 83.5316 62.3926C83.4242 62.463 83.3019 62.5077 83.1744 62.523C82.8246 62.5721 82.472 62.5993 82.1188 62.6042Z" fill="#14142B"/>
<path d="M79.0072 58.4493C79.0148 57.7599 78.7937 57.1984 78.5134 57.1954C78.2332 57.1923 77.9998 57.7487 77.9922 58.4382C77.9847 59.1276 78.2057 59.689 78.486 59.6921C78.7663 59.6952 78.9996 59.1388 79.0072 58.4493Z" fill="#14142B"/>
<path d="M85.7181 58.2853C85.7257 57.5958 85.5046 57.0344 85.2244 57.0313C84.9441 57.0282 84.7108 57.5846 84.7032 58.2741C84.6956 58.9635 84.9167 59.525 85.1969 59.528C85.4772 59.5311 85.7105 58.9747 85.7181 58.2853Z" fill="#14142B"/>
<path d="M90.7151 76.5196C90.7151 78.5496 90.8673 82.6806 86.4927 90.354L82.25 85.6952C83.3361 83.6652 86.1375 82.2746 86.3608 74.9971C86.3608 74.8144 86.3608 74.6418 86.3608 74.4591C86.4144 74.4268 86.4725 74.4029 86.5333 74.3881C88.1269 73.6979 90.4918 74.9159 90.7151 75.7685C90.7378 76.0183 90.7378 76.2697 90.7151 76.5196Z" fill="white"/>
<path d="M86.4926 90.8722C86.4205 90.8734 86.349 90.8596 86.2826 90.8317C86.2162 90.8037 86.1563 90.7622 86.1069 90.7098L81.8134 86.0509C81.7402 85.9714 81.6931 85.8714 81.6786 85.7643C81.6641 85.6572 81.6828 85.5482 81.7322 85.4521C82.0225 84.9141 82.3623 84.4044 82.7472 83.9296C84.0058 82.336 85.5689 80.3568 85.7313 74.9773C85.7405 74.8048 85.7405 74.632 85.7313 74.4596C85.73 74.3693 85.7529 74.2803 85.7975 74.2018C85.8421 74.1233 85.9069 74.0581 85.9851 74.013C86.0706 73.9604 86.1627 73.9194 86.2591 73.8912C86.7997 73.7061 87.3728 73.6349 87.9422 73.6821C88.5117 73.7293 89.0652 73.8938 89.568 74.1653C89.9639 74.3581 90.918 74.8859 91.1108 75.637C91.1585 75.9322 91.1755 76.2315 91.1616 76.5302V76.8144C91.1616 79.0271 91.1616 83.1683 86.858 90.6083C86.8193 90.6818 86.7628 90.7445 86.6936 90.7906C86.6245 90.8367 86.5449 90.8647 86.4621 90.8722H86.4926ZM82.8386 85.6246L86.3809 89.4715C90.1567 82.6507 90.177 78.8647 90.1973 76.8043V76.5201C90.2154 76.3107 90.2154 76.1001 90.1973 75.8908C89.9447 75.537 89.5908 75.2681 89.1823 75.1194C88.4632 74.7366 87.6274 74.6353 86.8377 74.8352C86.8326 74.896 86.8326 74.9571 86.8377 75.0179C86.655 80.7425 84.899 82.9653 83.6201 84.5893C83.3258 84.9547 83.0619 85.31 82.8386 85.6246Z" fill="#14142B"/>
<path d="M81.8139 85.7354L77.1043 90.3841C71.9278 86.8113 72.9631 76.4177 73.1255 75.7985C73.3289 75.3479 73.6899 74.987 74.1405 74.7835C74.6307 74.4707 75.1882 74.279 75.7671 74.2243C76.346 74.1696 76.9296 74.2534 77.4697 74.4689V74.5805C77.6727 82.1321 80.6974 83.6445 81.8139 85.7354Z" fill="white"/>
<path d="M77.1046 90.8717C76.9963 90.8726 76.8901 90.8408 76.8001 90.7803C71.0958 86.8421 72.598 75.738 72.6285 75.6365C72.8622 75.0635 73.2997 74.5971 73.8566 74.3272C74.4221 73.9713 75.0647 73.7561 75.7304 73.6996C76.3962 73.643 77.0658 73.7469 77.6832 74.0024C77.768 74.0477 77.839 74.1149 77.889 74.197C77.939 74.2792 77.9661 74.3732 77.9674 74.4693V74.5809C78.1095 80.1533 79.7842 82.2543 81.1342 83.9392C81.5519 84.4239 81.9224 84.9473 82.2405 85.5023C82.2934 85.6018 82.313 85.7155 82.2965 85.8269C82.2801 85.9383 82.2285 86.0415 82.1492 86.1215L77.4396 90.7397C77.346 90.8202 77.228 90.8667 77.1046 90.8717ZM74.3641 75.2407C74.0629 75.3869 73.8095 75.6157 73.6333 75.9004C73.3999 76.8342 72.6792 86.1519 77.0539 89.6638L81.1139 85.6038C80.8906 85.2587 80.6165 84.9136 80.312 84.5279C78.9519 82.843 77.1148 80.539 76.9118 74.7535C76.0361 74.5598 75.1195 74.7126 74.354 75.1798L74.3641 75.2407Z" fill="#14142B"/>
<path d="M83.3779 63.9238H80.9216C80.9216 63.9238 80.6374 68.3188 82.1497 67.8519C83.3779 67.4662 83.6925 65.5377 83.3779 63.9238Z" fill="#14142B"/>
<path d="M70.6384 74.9973C70.2121 73.6778 40.3406 90.07 34.9814 93.6834C29.6222 97.2968 22.5781 124.133 22.5781 124.133L33.8649 124.682C33.8649 124.682 42.665 103.58 46.6032 100.159C50.5414 96.7386 67.3092 90.3542 67.3092 90.3542L70.6384 74.9973Z" fill="#6A96FF"/>
<path d="M226.907 31.3319C227.278 30.3136 227.467 29.2384 227.466 28.1549C227.273 27.1399 226.532 25.252 226.907 24.0949C227.283 22.9378 228.582 19.3244 230.084 19.4158C231.587 19.5071 236.063 20.7251 236.53 22.9683C236.997 25.2114 232.47 36.6606 232.47 36.6606L226.907 31.3319Z" fill="white"/>
<path d="M232.469 37.1682C232.337 37.1669 232.211 37.1162 232.114 37.0261L226.603 31.6973C226.534 31.6303 226.485 31.5454 226.462 31.4522C226.439 31.3589 226.442 31.2611 226.471 31.1695C226.829 30.2362 227.014 29.2458 227.019 28.2463C226.968 27.9824 226.887 27.6779 226.796 27.3328C226.384 26.235 226.272 25.0474 226.471 23.892C226.836 22.6841 228.186 18.7256 230.165 18.817C231.465 18.8982 236.519 20.0959 237.078 22.7755C237.565 25.0998 233.413 35.6152 232.936 36.8028C232.907 36.8819 232.858 36.9523 232.794 37.0074C232.73 37.0624 232.654 37.1003 232.571 37.1174L232.469 37.1682ZM227.537 31.1898L232.277 35.7675C234.063 31.1898 236.387 24.4807 236.083 23.0191C235.707 21.1921 231.668 19.9741 230.105 19.8726C229.282 19.8726 228.075 22.0244 227.435 24.1863C227.313 25.1602 227.428 26.1491 227.77 27.0689C227.871 27.4445 227.963 27.7794 228.014 28.0839C228.039 29.1436 227.86 30.1982 227.486 31.1898H227.537Z" fill="#14142B"/>
<path d="M220.006 17.9944L245.513 31.0169L254.658 13.2848L228.938 0.993164L220.006 17.9944Z" fill="white"/>
<path d="M245.513 31.5145C245.431 31.515 245.35 31.494 245.279 31.4536L219.772 18.4616C219.71 18.4311 219.655 18.3884 219.609 18.3361C219.564 18.2838 219.53 18.2229 219.508 18.1571C219.481 18.0929 219.467 18.0239 219.467 17.9541C219.467 17.8844 219.481 17.8153 219.508 17.7511L228.43 0.749877C228.491 0.627856 228.598 0.534875 228.727 0.491158C228.856 0.44744 228.998 0.456521 229.12 0.516426L254.84 12.8081C254.905 12.837 254.962 12.879 255.01 12.9314C255.057 12.9839 255.092 13.0456 255.114 13.1126C255.142 13.1768 255.156 13.2458 255.156 13.3156C255.156 13.3853 255.142 13.4544 255.114 13.5186L245.979 31.2506C245.933 31.3331 245.865 31.4012 245.783 31.4478C245.701 31.4943 245.607 31.5174 245.513 31.5145ZM220.716 17.7714L245.289 30.3067L253.947 13.5186L229.171 1.68368L220.716 17.7714Z" fill="#14142B"/>
<path d="M152.083 31.3319C151.708 30.3149 151.519 29.2388 151.525 28.1549C151.708 27.1399 152.459 25.252 152.083 24.0949C151.708 22.9378 150.398 19.3244 148.906 19.4158C147.414 19.5071 142.928 20.7251 142.461 22.9683C141.994 25.2114 146.572 36.7114 146.572 36.7114L152.083 31.3319Z" fill="white"/>
<path d="M146.572 37.1684H146.46C146.379 37.148 146.303 37.109 146.24 37.0543C146.177 36.9997 146.127 36.931 146.095 36.8538C145.628 35.6662 141.476 25.1508 141.964 22.8265C142.522 20.1469 147.566 18.9492 148.876 18.868C150.835 18.7259 152.195 22.6945 152.57 23.943C152.759 25.0988 152.647 26.2837 152.245 27.3838C152.154 27.7289 152.073 28.0334 152.022 28.2973C152.026 29.296 152.208 30.286 152.56 31.2205C152.594 31.3107 152.601 31.409 152.579 31.5029C152.558 31.5969 152.509 31.6823 152.438 31.7483L146.927 37.0771C146.823 37.149 146.697 37.1814 146.572 37.1684ZM148.967 19.9134C147.404 20.0149 143.364 21.2329 142.989 23.0599C142.684 24.5215 145.019 31.1799 146.795 35.8083L151.535 31.2307C151.171 30.2305 151.008 29.1679 151.058 28.1045C151.109 27.8203 151.2 27.4853 151.291 27.0895C151.634 26.1696 151.749 25.1807 151.626 24.2069C150.946 22.0551 149.789 19.8728 148.967 19.8728V19.9134Z" fill="#14142B"/>
<path d="M216.667 243.213C216.759 243.497 215.825 252.094 216.667 253.495C217.51 254.896 225.731 258.915 229.284 256.296C232.836 253.678 230.126 251.465 229.284 250.206C228.441 248.948 224.889 241.274 224.889 241.274L216.667 243.213Z" fill="#14142B"/>
<path d="M226.137 257.667C225.356 257.66 224.578 257.579 223.812 257.423C220.524 256.763 216.89 254.855 216.23 253.759C215.571 252.663 215.733 249.597 216.078 244.786C216.078 244.106 216.169 243.406 216.169 243.284C216.142 243.227 216.127 243.165 216.127 243.101C216.127 243.038 216.142 242.976 216.169 242.919C216.251 242.811 216.371 242.738 216.504 242.716L224.736 240.757C224.85 240.73 224.971 240.743 225.076 240.795C225.182 240.847 225.266 240.934 225.315 241.041C225.315 241.112 228.857 248.684 229.669 249.912C229.805 250.112 229.95 250.305 230.105 250.491C230.559 250.939 230.918 251.476 231.158 252.067C231.399 252.659 231.517 253.293 231.506 253.931C231.388 254.503 231.153 255.044 230.816 255.521C230.479 255.998 230.047 256.4 229.547 256.702C228.54 257.375 227.347 257.713 226.137 257.667ZM217.174 243.649C217.174 243.903 217.174 244.279 217.093 244.888C216.941 246.918 216.565 252.358 217.093 253.262C217.509 253.972 220.727 255.799 224.005 256.459C225.528 256.763 227.619 256.915 228.969 255.921C229.36 255.691 229.701 255.385 229.971 255.02C230.241 254.656 230.435 254.241 230.542 253.799C230.505 252.788 230.076 251.83 229.344 251.13C229.161 250.897 228.989 250.673 228.857 250.48C228.106 249.333 225.345 243.375 224.604 241.853L217.174 243.649Z" fill="#14142B"/>
<path d="M154.469 239.427C154.469 239.427 147.455 251.069 148.582 254.144C149.708 257.22 159.939 254.571 161.898 252.328C163.857 250.084 163.999 236.483 163.999 236.483L154.469 239.427Z" fill="#14142B"/>
<path d="M151.981 256.052C151.46 256.058 150.94 256.014 150.428 255.921C149.931 255.889 149.453 255.724 149.043 255.441C148.634 255.159 148.309 254.77 148.103 254.317C146.936 251.099 153.3 240.381 154.031 239.163C154.097 239.057 154.197 238.978 154.315 238.94L163.846 235.996C163.923 235.972 164.005 235.966 164.085 235.98C164.164 235.994 164.24 236.026 164.304 236.075C164.369 236.124 164.421 236.187 164.456 236.26C164.491 236.333 164.508 236.413 164.506 236.493C164.506 237.904 164.303 250.338 162.283 252.662C160.862 254.276 155.665 256.052 151.981 256.052ZM154.802 239.812C152.042 244.421 148.306 251.861 149.058 253.931C149.23 254.408 149.748 254.723 150.611 254.885C153.777 255.484 160.091 253.576 161.512 251.952C162.933 250.328 163.4 241.284 163.481 237.133L154.802 239.812Z" fill="#14142B"/>
<path d="M173.256 126.295C173.256 126.295 163.583 181.247 160.497 194.706C157.411 208.165 151.809 241.254 151.809 241.254C151.809 241.254 156.295 244.299 163.583 242.37L190.602 158.531L215.977 244.613L226.908 242.096L209.004 130.121L173.256 126.295Z" fill="#14142B"/>
<path d="M216.017 245.121C215.907 245.123 215.8 245.088 215.711 245.022C215.623 244.955 215.559 244.862 215.53 244.756L190.582 160.257L164.06 242.533C164.034 242.612 163.99 242.683 163.929 242.74C163.869 242.797 163.795 242.837 163.714 242.858C156.285 244.888 151.707 241.843 151.534 241.67C151.455 241.614 151.393 241.537 151.355 241.447C151.317 241.357 151.306 241.259 151.321 241.162C151.382 240.838 156.965 207.911 160.02 194.594C163.075 181.277 172.677 126.752 172.778 126.204C172.799 126.077 172.867 125.963 172.969 125.885C173.071 125.808 173.199 125.773 173.327 125.787L209.075 129.614C209.186 129.626 209.29 129.674 209.37 129.751C209.451 129.828 209.504 129.93 209.521 130.04L227.467 242.015C227.488 242.141 227.459 242.271 227.388 242.377C227.316 242.482 227.206 242.557 227.081 242.584L216.149 245.111L216.017 245.121ZM190.642 158.024C190.75 158.026 190.855 158.063 190.941 158.128C191.027 158.194 191.089 158.285 191.119 158.389L216.393 244.015L226.401 241.7L208.567 130.588L173.672 126.843C172.718 132.233 163.887 182.161 160.994 194.848C158.102 207.536 152.966 237.478 152.367 241.02C153.382 241.609 157.361 243.467 163.187 241.985L190.125 158.389C190.154 158.285 190.216 158.192 190.302 158.126C190.388 158.06 190.493 158.024 190.602 158.024H190.642Z" fill="#14142B"/>
<path d="M234.613 32.3569C231.994 42.2633 214.983 85.7865 213.673 88.7808C212.364 91.775 213.491 131.807 213.491 131.807C202.64 138.729 171.612 135.725 171.053 134.425C170.495 133.126 171.246 105.63 170.312 100.403C169.379 95.1753 144.166 33.2907 144.166 33.2907L153.139 30.3066L162.436 50.3529C162.436 50.3529 173.459 68.9984 176.078 70.866C177.007 71.4342 178.044 71.8039 179.123 71.9521C181.722 72.38 184.356 72.5601 186.989 72.49C192.206 73.9821 198.611 71.9521 202.112 70.2469C202.755 69.9543 203.376 69.615 203.97 69.2319C206.386 67.5368 226.381 30.3066 226.381 30.3066L234.613 32.3569Z" fill="#6A96FF"/>
<path d="M202.101 70.2471L190.855 114.044L179.111 71.9523C181.71 72.3801 184.344 72.5603 186.978 72.4902C192.195 73.9823 198.599 71.9523 202.101 70.2471Z" fill="#14142B"/>
<path d="M190.855 114.552C190.745 114.552 190.638 114.516 190.551 114.451C190.463 114.385 190.399 114.292 190.368 114.187L178.675 72.1149C178.652 72.0308 178.65 71.9423 178.67 71.8573C178.689 71.7722 178.729 71.6934 178.787 71.6277C178.845 71.5615 178.92 71.5124 179.004 71.4856C179.088 71.4588 179.178 71.4553 179.264 71.4755C181.826 71.8935 184.423 72.0702 187.018 72.0033H187.171C191.911 73.3634 197.909 71.7495 201.929 69.7906C202.016 69.7527 202.113 69.7397 202.207 69.7532C202.302 69.7668 202.391 69.8062 202.464 69.8671C202.538 69.928 202.593 70.0081 202.624 70.0985C202.655 70.1889 202.66 70.2861 202.639 70.3793L191.393 114.177C191.367 114.286 191.305 114.382 191.216 114.451C191.127 114.519 191.018 114.555 190.906 114.552H190.855ZM179.822 72.592L190.855 112.086L201.36 71.1608C197.239 72.9675 191.566 74.2972 186.937 72.998C184.558 73.0603 182.178 72.9245 179.822 72.592Z" fill="#14142B"/>
<path d="M199.666 57.2854C199.793 56.9532 199.901 56.6144 199.991 56.2704C201.777 49.7034 199.148 41.2586 191.414 40.7308C189.643 40.6571 187.888 41.0871 186.352 41.9711C184.816 42.855 183.562 44.1566 182.736 45.7246C180.513 49.5917 181.132 54.5348 181.538 58.7876C181.54 59.0698 181.624 59.3452 181.782 59.5793C182.228 60.097 183.091 59.7519 183.659 59.7417C184.482 59.7417 185.344 59.8635 186.167 59.9143C187.608 59.9853 189.039 60.0361 190.47 60.0056C192.542 60.0954 194.618 60.0377 196.682 59.8331C197.555 59.691 198.154 59.691 198.712 58.9805C199.129 58.4771 199.452 57.903 199.666 57.2854Z" fill="white"/>
<path d="M193.596 60.5026H192.317H190.51C189.252 60.5026 187.871 60.5026 186.176 60.4113L185.161 60.3301C184.664 60.3301 184.146 60.2286 183.659 60.2387H183.223C182.983 60.3504 182.718 60.3984 182.454 60.3783C182.191 60.3581 181.936 60.2704 181.716 60.1236C181.496 59.9768 181.317 59.7759 181.197 59.5401C181.077 59.3043 181.02 59.0415 181.03 58.7771V58.1884C180.614 53.9965 180.147 49.2361 182.34 45.4096C183.217 43.7694 184.541 42.4105 186.157 41.4893C187.773 40.5681 189.616 40.1221 191.475 40.2026C192.914 40.2811 194.316 40.6877 195.574 41.3914C196.832 42.0951 197.912 43.0772 198.732 44.2626C199.874 46.051 200.624 48.0618 200.93 50.1616C201.236 52.2615 201.092 54.4025 200.508 56.4426C200.413 56.7863 200.302 57.125 200.173 57.4576C199.94 58.1098 199.596 58.7174 199.158 59.2542C198.91 59.5566 198.601 59.8033 198.252 59.9782C197.902 60.1531 197.519 60.2522 197.128 60.2692H196.824C195.756 60.4341 194.677 60.5122 193.596 60.5026ZM191.048 59.4876H192.337C193.771 59.5482 195.208 59.4871 196.631 59.3049H196.946C197.215 59.3116 197.482 59.2597 197.729 59.1528C197.976 59.0459 198.197 58.8865 198.377 58.6858C198.73 58.2325 199.007 57.7253 199.199 57.1836C199.311 56.8588 199.412 56.5238 199.503 56.1686C200.047 54.2755 200.182 52.2888 199.9 50.3396C199.618 48.3904 198.926 46.5232 197.869 44.8615C197.133 43.8057 196.165 42.9327 195.039 42.3098C193.913 41.6869 192.659 41.3306 191.373 41.2684C189.715 41.2097 188.074 41.6194 186.637 42.4505C185.201 43.2817 184.028 44.5007 183.253 45.9678C181.223 49.5203 181.67 54.0878 182.066 58.1478L182.127 58.7365C182.13 58.9125 182.171 59.0857 182.248 59.244C182.38 59.3963 182.705 59.3658 183.162 59.244L183.73 59.1831C184.268 59.1831 184.806 59.1831 185.334 59.2745L186.278 59.3557C187.953 59.4369 189.323 59.4673 190.551 59.447L191.048 59.4876Z" fill="#14142B"/>
<path d="M184.513 58.0875C184.107 54.8192 178.747 53.8346 178.879 57.6713C178.881 59.0009 179.344 60.2887 180.189 61.3152C180.62 61.8208 181.192 62.1871 181.831 62.3678C182.471 62.5485 183.15 62.5354 183.782 62.3302" fill="white"/>
<path d="M182.735 62.9794C182.179 62.9709 181.631 62.8485 181.125 62.6198C180.619 62.3911 180.165 62.0609 179.791 61.6497C178.861 60.5366 178.35 59.1319 178.35 57.6811C178.289 57.3165 178.307 56.9433 178.4 56.586C178.494 56.2286 178.663 55.8951 178.895 55.6075C179.127 55.3199 179.417 55.0847 179.747 54.9172C180.076 54.7498 180.437 54.654 180.806 54.6361C181.795 54.5654 182.774 54.8682 183.55 55.4846C184.326 56.1011 184.843 56.9863 184.998 57.9653C185.007 58.0319 185.002 58.0996 184.985 58.1645C184.967 58.2294 184.937 58.2902 184.896 58.3434C184.855 58.3967 184.804 58.4413 184.746 58.4749C184.688 58.5084 184.623 58.5301 184.557 58.5387C184.49 58.5474 184.422 58.5428 184.357 58.5253C184.293 58.5078 184.232 58.4777 184.178 58.4367C184.125 58.3957 184.081 58.3447 184.047 58.2864C184.014 58.2281 183.992 58.1639 183.983 58.0972C183.857 57.3787 183.471 56.7319 182.898 56.2806C182.325 55.8293 181.605 55.6051 180.877 55.6511C180.289 55.6511 179.304 56.0165 179.355 57.5999C179.347 58.8244 179.775 60.0117 180.563 60.9494C180.931 61.3742 181.416 61.6808 181.958 61.8307C182.5 61.9806 183.074 61.9671 183.608 61.7918C183.732 61.744 183.869 61.7458 183.992 61.7968C184.115 61.8478 184.214 61.9442 184.267 62.0659C184.316 62.1914 184.314 62.3307 184.263 62.4552C184.212 62.5797 184.116 62.68 183.993 62.7358C183.594 62.898 183.166 62.9807 182.735 62.9794Z" fill="#14142B"/>
<path d="M196.195 58.0875C196.601 54.8192 201.971 53.8346 201.839 57.6713C201.838 59.0029 201.372 60.2922 200.519 61.3152C200.09 61.8211 199.52 62.1877 198.882 62.3685C198.244 62.5493 197.567 62.5359 196.936 62.3302" fill="white"/>
<path d="M197.96 62.9794C197.543 62.982 197.13 62.9063 196.742 62.7561C196.617 62.7024 196.519 62.6022 196.468 62.477C196.417 62.3518 196.417 62.2115 196.468 62.0862C196.519 61.9628 196.618 61.8647 196.741 61.8134C196.865 61.7621 197.003 61.7616 197.127 61.8121C197.662 61.986 198.235 61.9989 198.777 61.8491C199.318 61.6993 199.803 61.3934 200.172 60.9697C200.938 60.0332 201.354 58.86 201.35 57.6506C201.4 56.0672 200.416 55.7526 199.827 55.7018C199.1 55.6582 198.382 55.8832 197.809 56.3341C197.236 56.785 196.849 57.4305 196.721 58.148C196.704 58.2811 196.634 58.4019 196.527 58.4837C196.421 58.5655 196.286 58.6017 196.153 58.5844C196.086 58.577 196.022 58.5562 195.964 58.5233C195.906 58.4904 195.855 58.4461 195.814 58.3931C195.773 58.34 195.743 58.2793 195.727 58.2145C195.71 58.1497 195.707 58.0822 195.716 58.016C195.872 57.0371 196.388 56.1519 197.164 55.5354C197.941 54.919 198.92 54.6162 199.908 54.6868C200.278 54.7047 200.639 54.8006 200.968 54.968C201.297 55.1354 201.588 55.3707 201.82 55.6583C202.052 55.9459 202.22 56.2793 202.314 56.6367C202.408 56.9941 202.425 57.3673 202.365 57.7318C202.365 59.1846 201.851 60.5905 200.913 61.7005C200.534 62.1037 200.077 62.4252 199.569 62.6451C199.061 62.8651 198.513 62.9788 197.96 62.9794Z" fill="#14142B"/>
<path d="M184.105 74.3271C186.238 75.2467 188.533 75.7266 190.855 75.7379C195.098 75.8902 195.819 74.7229 195.819 74.7229L195.717 72.4493L195.484 67.151L195.26 62.208L185.547 61.873L185.08 65.933L184.938 67.2322L184.105 74.3271Z" fill="white"/>
<path d="M191.566 76.256H190.855C188.465 76.2439 186.102 75.7431 183.913 74.7843C183.82 74.7386 183.744 74.6653 183.694 74.5743C183.645 74.4833 183.626 74.3793 183.639 74.2768L185.06 61.8329C185.072 61.7064 185.133 61.5896 185.229 61.5065C185.326 61.4235 185.45 61.3804 185.577 61.3863L195.291 61.7212C195.419 61.7282 195.54 61.7815 195.631 61.8712C195.723 61.9608 195.778 62.0807 195.788 62.2084L196.346 74.7234C196.351 74.8244 196.322 74.9241 196.265 75.0076C196.093 75.2207 195.25 76.256 191.566 76.256ZM184.643 74.0129C186.627 74.7786 188.729 75.1909 190.855 75.2309C193.9 75.3324 194.976 74.7538 195.281 74.5305L194.753 62.7058L185.973 62.4013L184.643 74.0129Z" fill="#14142B"/>
<path d="M184.918 67.2023C185.677 68.4101 186.723 69.411 187.963 70.1154C189.993 71.3435 193.089 72.7544 195.647 72.46L195.413 67.1617C193.557 67.3354 191.687 67.2945 189.841 67.0399C188.194 66.9165 186.575 66.5435 185.04 65.9336L184.918 67.2023Z" fill="#14142B"/>
<path d="M194.976 73.0079C192.266 73.0079 189.342 71.5057 187.749 70.5516C186.42 69.8291 185.295 68.7815 184.481 67.5066C184.422 67.4166 184.397 67.3088 184.41 67.2021L184.552 65.8928C184.562 65.8135 184.59 65.7375 184.634 65.6707C184.678 65.6039 184.737 65.5479 184.805 65.5071C184.878 65.4697 184.958 65.4502 185.039 65.4502C185.12 65.4502 185.2 65.4697 185.272 65.5071C186.761 66.0802 188.329 66.4225 189.921 66.5221C191.735 66.794 193.576 66.8452 195.402 66.6743C195.471 66.6677 195.541 66.6751 195.607 66.696C195.674 66.7169 195.735 66.751 195.788 66.7961C195.842 66.8411 195.886 66.8967 195.917 66.9596C195.949 67.0225 195.967 67.0913 195.97 67.1615L196.204 72.4497C196.21 72.5778 196.167 72.7035 196.084 72.8014C196.001 72.8993 195.885 72.9622 195.757 72.9775C195.498 73.0027 195.237 73.0129 194.976 73.0079ZM185.435 67.0905C186.164 68.1662 187.138 69.0533 188.277 69.6787C189.515 70.4197 192.55 72.0741 195.169 71.9828L194.976 67.7198C193.244 67.8268 191.506 67.7554 189.789 67.5066C188.326 67.3824 186.882 67.0895 185.485 66.6337L185.435 67.0905Z" fill="#14142B"/>
<path d="M198.864 49.277L198.447 61.0612C198.438 61.5647 198.369 62.0654 198.244 62.5532C197.841 64.2192 196.876 65.6952 195.512 66.7325C194.147 67.7697 192.467 68.3048 190.754 68.2474H189.881C188.274 68.1905 186.728 67.6151 185.475 66.6071C184.221 65.599 183.328 64.2125 182.928 62.6547C182.753 61.9652 182.674 61.2547 182.695 60.5435L183.111 48.7695C183.111 48.7695 184.948 51.1954 190.216 51.1446C193.2 51.1598 196.152 50.5224 198.864 49.277Z" fill="white"/>
<path d="M191.007 68.7545H190.733H189.861C188.144 68.6878 186.495 68.0704 185.157 66.9938C183.819 65.9171 182.863 64.4383 182.431 62.7762C182.247 62.0397 182.165 61.2816 182.187 60.5229L182.603 48.7387C182.605 48.6346 182.639 48.5335 182.701 48.4497C182.763 48.3659 182.849 48.3037 182.948 48.2718C183.049 48.2406 183.157 48.2415 183.257 48.2742C183.357 48.3069 183.444 48.3699 183.507 48.4545C183.507 48.4545 185.334 50.7078 190.216 50.6266C193.112 50.6513 195.979 50.0488 198.62 48.8605C198.697 48.816 198.785 48.7925 198.874 48.7925C198.963 48.7925 199.05 48.816 199.127 48.8605C199.202 48.9082 199.263 48.9745 199.304 49.0528C199.345 49.1311 199.364 49.2188 199.361 49.3071L198.975 61.0811C198.964 61.6186 198.893 62.1532 198.762 62.6747C198.335 64.4092 197.34 65.9506 195.934 67.0527C194.528 68.1549 192.794 68.754 191.007 68.7545ZM183.578 49.8349L183.202 60.533C183.139 62.3729 183.809 64.1625 185.066 65.5082C186.322 66.8539 188.061 67.6456 189.901 67.7091H190.774C192.368 67.756 193.93 67.256 195.2 66.2921C196.471 65.3282 197.373 63.9585 197.757 62.4108C197.868 61.9517 197.929 61.4821 197.94 61.0101L198.326 50.0481C195.74 51.0657 192.985 51.5857 190.206 51.5807C187.866 51.7265 185.542 51.1143 183.578 49.8349Z" fill="#14142B"/>
<path d="M190.936 54.8594C190.936 54.8594 193.383 60.2592 192.296 60.3607C191.382 60.3204 190.487 60.0777 189.678 59.6502" fill="white"/>
<path d="M192.114 60.8585C191.18 60.7839 190.271 60.5178 189.444 60.077C189.381 60.0485 189.324 60.0073 189.277 59.9558C189.23 59.9044 189.194 59.8439 189.172 59.778C189.149 59.7122 189.141 59.6424 189.146 59.5731C189.152 59.5037 189.172 59.4363 189.204 59.3749C189.237 59.3135 189.282 59.2596 189.337 59.2163C189.391 59.1731 189.454 59.1416 189.521 59.1236C189.589 59.1057 189.659 59.1018 189.728 59.1121C189.796 59.1225 189.862 59.1469 189.921 59.1838C190.592 59.5331 191.322 59.7567 192.073 59.8435C191.782 58.1766 191.245 56.5621 190.48 55.0527C190.451 54.9929 190.434 54.9279 190.431 54.8615C190.427 54.7952 190.437 54.7288 190.46 54.6664C190.483 54.6039 190.518 54.5467 190.563 54.498C190.608 54.4493 190.663 54.4101 190.723 54.3828C190.847 54.3275 190.988 54.3231 191.115 54.3706C191.242 54.418 191.346 54.5136 191.403 54.6366C192.205 56.4128 193.433 59.539 192.946 60.4627C192.884 60.5698 192.797 60.6607 192.693 60.7277C192.589 60.7948 192.47 60.8361 192.347 60.8484L192.114 60.8585Z" fill="#14142B"/>
<path d="M187.486 55.1843C187.766 55.1843 187.994 54.6663 187.994 54.0272C187.994 53.3882 187.766 52.8701 187.486 52.8701C187.206 52.8701 186.979 53.3882 186.979 54.0272C186.979 54.6663 187.206 55.1843 187.486 55.1843Z" fill="#14142B"/>
<path d="M194.793 55.1843C195.073 55.1843 195.3 54.6663 195.3 54.0272C195.3 53.3882 195.073 52.8701 194.793 52.8701C194.512 52.8701 194.285 53.3882 194.285 54.0272C194.285 54.6663 194.512 55.1843 194.793 55.1843Z" fill="#14142B"/>
<path d="M148.063 20.4209C147.116 20.6008 146.229 21.0162 145.485 21.6287C144.723 22.187 143.921 22.9178 143.942 23.8516C143.938 23.9527 143.975 24.0512 144.043 24.1256C144.131 24.1794 144.237 24.1975 144.338 24.1764C145.723 24.0829 147.062 23.6356 148.225 22.8772C147.631 23.4405 147.22 24.1704 147.048 24.9711C146.876 25.7717 146.95 26.6057 147.261 27.3635L147.454 27.4244" fill="white"/>
<path d="M147.402 27.9415H147.25L147.057 27.8806C146.987 27.86 146.922 27.8237 146.867 27.7745C146.813 27.7253 146.77 27.6644 146.743 27.5964C146.306 26.512 146.306 25.3008 146.743 24.2164C145.998 24.4885 145.219 24.6559 144.428 24.7138C144.191 24.7463 143.951 24.6843 143.759 24.5412C143.67 24.4599 143.601 24.3609 143.553 24.2507C143.506 24.1405 143.483 24.0216 143.484 23.9018C143.532 23.3521 143.711 22.822 144.006 22.3558C144.301 21.8895 144.703 21.5008 145.18 21.2222C145.987 20.5509 146.956 20.1029 147.991 19.923C148.057 19.9145 148.124 19.9194 148.189 19.9375C148.253 19.9555 148.313 19.9863 148.365 20.0279C148.417 20.0696 148.46 20.1213 148.492 20.18C148.523 20.2387 148.543 20.3032 148.549 20.3696C148.564 20.5027 148.525 20.6361 148.441 20.7407C148.357 20.8452 148.236 20.9125 148.103 20.9278C147.247 21.0996 146.448 21.4835 145.778 22.0443C144.936 22.6533 144.52 23.1507 144.449 23.6582C145.676 23.5391 146.857 23.1247 147.89 22.4503C147.997 22.381 148.127 22.355 148.254 22.3776C148.38 22.4002 148.493 22.4697 148.57 22.5721C148.646 22.6727 148.682 22.7982 148.671 22.9239C148.659 23.0497 148.602 23.1667 148.509 23.2522C148.017 23.717 147.669 24.3129 147.505 24.9694C147.341 25.626 147.369 26.3157 147.585 26.9569C147.703 27.0066 147.799 27.0986 147.854 27.2149C147.908 27.3311 147.917 27.4635 147.879 27.5862C147.846 27.6873 147.782 27.7756 147.697 27.8392C147.612 27.9028 147.509 27.9385 147.402 27.9415Z" fill="#14142B"/>
<path d="M191.871 62.8176L189.1 61.8838C189.1 61.8838 187.923 64.5025 189.445 65.416C190.968 66.3295 191.871 62.8176 191.871 62.8176Z" fill="#14142B"/>
<path d="M228.35 22.7647C228.47 22.6037 228.622 22.4692 228.797 22.3696C228.971 22.2701 229.165 22.2077 229.365 22.1862C230.134 21.9977 230.93 21.9394 231.719 22.0136C232.512 22.0992 233.259 22.4251 233.861 22.9474C233.993 23.0504 234.089 23.1925 234.135 23.3534C234.147 23.4912 234.113 23.629 234.037 23.7449C233.962 23.8608 233.85 23.9481 233.719 23.9929C233.456 24.0712 233.18 24.0954 232.907 24.0639L230.877 23.9218C231.471 24.3474 231.972 24.8896 232.349 25.5154C232.531 25.8259 232.621 26.1824 232.606 26.5423C232.592 26.9023 232.474 27.2505 232.267 27.5454" fill="white"/>
<path d="M232.288 28.0741C232.17 28.0727 232.056 28.0335 231.963 27.9625C231.861 27.8741 231.797 27.7492 231.786 27.6146C231.774 27.4799 231.816 27.3461 231.902 27.2418C232.041 27.018 232.115 26.7595 232.115 26.4958C232.115 26.2321 232.041 25.9736 231.902 25.7498C231.551 25.1856 231.092 24.6959 230.552 24.3085C230.471 24.2397 230.414 24.1474 230.388 24.0444C230.363 23.9415 230.37 23.8331 230.409 23.7346C230.449 23.636 230.518 23.5522 230.607 23.4949C230.696 23.4377 230.801 23.4098 230.907 23.4153L232.937 23.5574C233.132 23.5949 233.332 23.5949 233.526 23.5574C233.568 23.5383 233.604 23.5063 233.627 23.466C233.594 23.4254 233.556 23.3881 233.516 23.3544C232.993 22.9037 232.345 22.6239 231.658 22.5525C230.927 22.4815 230.189 22.5364 229.476 22.7149C229.222 22.7657 228.887 22.8672 228.786 23.0499C228.753 23.1085 228.709 23.1602 228.657 23.2019C228.604 23.2435 228.544 23.2745 228.479 23.2928C228.415 23.3112 228.347 23.3167 228.28 23.309C228.214 23.3013 228.149 23.2805 228.091 23.2478C228.032 23.2152 227.98 23.1713 227.939 23.1186C227.897 23.066 227.866 23.0057 227.848 22.9412C227.829 22.8766 227.824 22.809 227.832 22.7424C227.839 22.6757 227.86 22.6112 227.893 22.5525C228.047 22.3248 228.248 22.1328 228.483 21.9892C228.717 21.8457 228.98 21.754 229.253 21.7202C230.079 21.5179 230.934 21.4595 231.78 21.5477C232.67 21.6306 233.514 21.9849 234.196 22.5627C234.415 22.7368 234.569 22.9801 234.632 23.2529C234.666 23.5047 234.614 23.7607 234.483 23.9785C234.352 24.1962 234.15 24.3628 233.912 24.4506C233.587 24.5665 233.238 24.6013 232.897 24.5521H232.318C232.517 24.7856 232.693 25.0371 232.846 25.3032C233.075 25.708 233.183 26.1704 233.156 26.635C233.129 27.0996 232.969 27.5464 232.694 27.9219C232.642 27.9769 232.579 28.0192 232.508 28.0457C232.438 28.0721 232.362 28.0818 232.288 28.0741Z" fill="#14142B"/>
<path d="M190.855 138.78C190.721 138.78 190.591 138.727 190.496 138.632C190.401 138.536 190.348 138.407 190.348 138.273V114.045C190.348 113.91 190.401 113.781 190.496 113.686C190.591 113.591 190.721 113.537 190.855 113.537C190.989 113.54 191.117 113.594 191.211 113.689C191.306 113.783 191.36 113.911 191.363 114.045V138.273C191.36 138.406 191.306 138.534 191.211 138.629C191.117 138.723 190.989 138.778 190.855 138.78Z" fill="#14142B"/>
</svg>
