<svg width="252" height="218" viewBox="0 0 252 218" fill="none" xmlns="http://www.w3.org/2000/svg">
<path d="M163.25 61.0515C163.25 61.0515 174.324 61.5691 190.513 75.1701C206.702 88.7711 212.62 98.1497 212.62 98.1497V44.3547C212.62 44.3547 192.066 20.5327 164.915 11.4688L163.25 61.0515Z" fill="#EFF0F7"/>
<path d="M212.619 98.6579C212.534 98.6597 212.45 98.6391 212.375 98.5981C212.3 98.5571 212.238 98.4973 212.193 98.4244C212.132 98.3331 206.103 88.9342 190.188 75.5565C174.273 62.1788 163.331 61.5596 163.219 61.5596C163.087 61.5493 162.965 61.4888 162.876 61.3907C162.787 61.2925 162.739 61.1641 162.742 61.0318L164.356 11.4897C164.359 11.4107 164.381 11.3336 164.42 11.2648C164.459 11.1959 164.513 11.1373 164.579 11.0938C164.642 11.046 164.716 11.0144 164.794 11.002C164.872 10.9896 164.952 10.9968 165.026 11.0228C192.045 20.0258 212.792 43.8276 213.005 44.0712C213.085 44.1603 213.129 44.2763 213.127 44.396V98.191C213.127 98.3008 213.091 98.4076 213.025 98.4955C212.96 98.5833 212.867 98.6474 212.762 98.6782L212.619 98.6579ZM163.767 60.5852C166.132 60.8491 176.425 62.6152 190.838 74.7952C203.403 85.3512 209.869 93.4712 212.153 96.5568V44.5888C210.417 42.6299 190.746 20.9089 165.391 12.2002L163.767 60.5852Z" fill="#14142B"/>
<path d="M46.7285 79.8297V31.942C65.3291 25.4822 85.0377 22.8244 104.685 24.1265V70.0654C104.685 70.0654 69.2108 71.0398 46.7285 79.8297Z" fill="#EFF0F7"/>
<path d="M46.738 80.3371C46.6346 80.3355 46.5333 80.3075 46.4436 80.2559C46.3777 80.206 46.3242 80.1416 46.2873 80.0677C46.2503 79.9937 46.2309 79.9123 46.2305 79.8296V31.9419C46.2296 31.8414 46.2592 31.743 46.3154 31.6597C46.3716 31.5763 46.4517 31.5119 46.5451 31.475C65.2346 25.0177 85.0228 22.3471 104.755 23.6189C104.883 23.6291 105.002 23.6871 105.088 23.7812C105.175 23.8753 105.223 23.9986 105.222 24.1264V70.0552C105.225 70.1208 105.214 70.1864 105.191 70.2478C105.168 70.3093 105.132 70.3655 105.087 70.4129C105.041 70.4603 104.987 70.498 104.926 70.5237C104.866 70.5495 104.801 70.5627 104.735 70.5627C104.38 70.5627 69.0578 71.6487 46.8801 80.3067C46.8342 80.3227 46.7864 80.333 46.738 80.3371ZM47.2455 32.2972V79.0988C68.124 71.1615 99.8732 69.7304 104.207 69.568V24.6035C84.9 23.4298 65.5496 26.0434 47.2455 32.2972Z" fill="#14142B"/>
<path d="M53.6307 71.9425C53.5205 71.9448 53.4129 71.909 53.3262 71.841C53.2619 71.7949 53.2098 71.7338 53.1745 71.6631C53.1391 71.5923 53.1215 71.514 53.1232 71.435V37.402C53.1232 37.2674 53.1766 37.1383 53.2718 37.0432C53.367 36.948 53.4961 36.8945 53.6307 36.8945C53.7644 36.8971 53.892 36.9514 53.9866 37.046C54.0813 37.1407 54.1356 37.2682 54.1382 37.402V70.7448C58.7361 69.3035 84.71 61.4068 94.4032 63.4165C94.4698 63.4298 94.5332 63.4561 94.5897 63.494C94.6462 63.5318 94.6946 63.5803 94.7323 63.6369C94.77 63.6934 94.7962 63.7569 94.8094 63.8235C94.8226 63.8902 94.8225 63.9588 94.8092 64.0255C94.7959 64.0921 94.7695 64.1555 94.7317 64.212C94.6939 64.2684 94.6453 64.3169 94.5888 64.3546C94.5322 64.3923 94.4688 64.4185 94.4021 64.4317C94.3355 64.4449 94.2669 64.4448 94.2002 64.4315C84.0502 62.3304 54.0874 71.841 53.7829 71.9425H53.6307Z" fill="#14142B"/>
<path d="M24.5005 106.454C24.5005 106.454 7.24554 113.619 0.719091 134.792V92.4465C0.719091 92.4465 0.343542 71.9232 24.5005 58.8906V106.454Z" fill="#EFF0F7"/>
<path d="M0.66767 135.3H0.596621C0.475533 135.285 0.364166 135.226 0.283692 135.134C0.203219 135.042 0.159253 134.924 0.16017 134.802V92.4464C0.16017 92.2434 0.160172 71.4664 24.2055 58.4439C24.2833 58.4013 24.3706 58.3789 24.4593 58.3789C24.548 58.3789 24.6352 58.4013 24.713 58.4439C24.7878 58.4895 24.8496 58.5536 24.8923 58.6301C24.935 58.7065 24.9571 58.7928 24.9566 58.8804V106.443C24.9561 106.543 24.926 106.641 24.87 106.724C24.814 106.807 24.7347 106.872 24.642 106.91C19.0189 109.73 14.0336 113.672 9.99395 118.494C5.95427 123.316 2.94598 128.914 1.15487 134.944C1.12232 135.048 1.05744 135.138 0.96975 135.202C0.882064 135.266 0.77619 135.3 0.66767 135.3ZM23.9416 59.7533C1.15487 72.4611 1.15487 92.2332 1.15487 92.4362V131.737C5.26339 120.648 13.3894 111.507 23.9213 106.129L23.9416 59.7533Z" fill="#14142B"/>
<path d="M0.667969 92.4453C0.667969 92.4453 4.90052 110.857 21.1913 116.958V166.51C21.1913 166.51 2.62692 153.66 0.667969 134.791V92.4453Z" fill="white"/>
<path d="M21.1917 167.017C21.0896 167.018 20.99 166.986 20.9075 166.926C20.7146 166.794 2.11983 153.731 0.171031 134.842V92.4453C0.156226 92.3107 0.195499 92.1757 0.280204 92.0701C0.36491 91.9645 0.488109 91.8968 0.622706 91.882C0.757303 91.8672 0.892274 91.9064 0.997918 91.9911C1.10356 92.0758 1.17123 92.1991 1.18603 92.3337C1.18603 92.5062 5.56068 110.553 21.3947 116.491C21.4893 116.527 21.5707 116.591 21.6286 116.674C21.6865 116.758 21.7182 116.856 21.7195 116.958V166.51C21.7188 166.602 21.6928 166.693 21.6446 166.771C21.5963 166.85 21.5274 166.914 21.4454 166.956C21.3684 167 21.2803 167.022 21.1917 167.017ZM1.15558 95.7339V134.791C2.83033 150.95 17.1114 162.795 20.6639 165.505V117.313C8.70718 112.654 3.18558 101.306 1.15558 95.7339Z" fill="#14142B"/>
<path d="M219.857 132.245C217.949 132.62 135.267 170.815 135.267 170.815C135.267 170.815 102.909 159.01 102.157 159.386C101.406 159.761 183.662 125.475 183.662 125.475L219.857 132.245Z" fill="white"/>
<path d="M135.267 171.311C135.21 171.322 135.152 171.322 135.095 171.311C122.6 166.754 103.528 159.954 102.219 159.903V159.852C101.833 159.933 101.792 159.852 101.691 159.619C101.638 159.499 101.634 159.363 101.68 159.24C101.725 159.117 101.816 159.016 101.934 158.959H101.995C103.112 158.553 182.657 125.393 183.459 125.058C183.555 125.028 183.658 125.028 183.754 125.058L219.949 131.828C220.063 131.853 220.167 131.915 220.242 132.005C220.317 132.095 220.361 132.208 220.365 132.325C220.367 132.443 220.327 132.557 220.253 132.648C220.178 132.739 220.074 132.801 219.959 132.823C218.122 133.29 163.9 158.198 135.48 171.393C135.404 171.381 135.331 171.354 135.267 171.311ZM103.802 159.263C106.725 160.086 114.429 162.654 135.267 170.256C143.854 166.287 206.764 137.248 218.071 132.417L183.733 125.992L143.133 142.912L115.119 154.574L105.883 158.411L103.802 159.263Z" fill="#14142B"/>
<path d="M135.267 166.094H135.115L113.12 159.365C113.02 159.335 112.932 159.275 112.869 159.194C112.805 159.112 112.768 159.012 112.764 158.908C112.759 158.804 112.786 158.701 112.84 158.613C112.894 158.524 112.974 158.454 113.069 158.411L175.268 132.346C175.382 132.297 175.51 132.291 175.628 132.331C175.746 132.37 175.845 132.451 175.907 132.559L182.383 143.988C182.41 144.052 182.425 144.121 182.425 144.191C182.425 144.26 182.41 144.33 182.383 144.394C182.364 144.462 182.33 144.526 182.282 144.578C182.235 144.631 182.175 144.672 182.109 144.698L135.419 166.105C135.368 166.109 135.317 166.105 135.267 166.094ZM114.754 158.786L135.236 165.049L181.226 143.957L175.248 133.361L114.754 158.786Z" fill="#D9DBE9"/>
<path d="M100.239 1.07504C97.6496 1.66718 95.2233 2.82488 93.134 4.46514C91.104 5.92674 89.074 8.20034 89.7541 10.5551C90.0281 11.4585 90.6676 12.4938 90.0992 13.2449C89.7135 13.7422 88.9928 13.7828 88.3737 13.8742C87.1764 14.0525 86.0513 14.5574 85.1221 15.3332C84.1929 16.1091 83.4954 17.126 83.1063 18.2724C82.7173 19.4187 82.6516 20.65 82.9165 21.8312C83.1814 23.0124 83.7667 24.0978 84.6081 24.9681C83.5196 25.0295 82.4554 25.3136 81.4812 25.8028C80.507 26.292 79.6435 26.9759 78.9442 27.8122C78.245 28.6485 77.7247 29.6194 77.4157 30.6648C77.1067 31.7102 77.0155 32.8079 77.1478 33.89C77.3759 35.034 77.7619 36.1408 78.2947 37.1786C79.1372 38.9345 80.1522 40.7717 79.8578 42.69C77.8278 42.2739 75.9399 44.4155 76.0516 46.4861C76.1859 47.5154 76.5696 48.4964 77.1692 49.3437C77.7689 50.191 78.5664 50.879 79.4924 51.348C77.4624 51.6931 76.2343 54.058 76.5693 56.088C77.0581 58.1169 78.3273 59.8712 80.1014 60.9702C82.1519 62.3877 84.5126 63.2925 86.9853 63.6087C89.4579 63.9248 91.9703 63.6431 94.3114 62.787C94.5145 63.7407 94.9604 64.6258 95.6059 65.3567C96.2514 66.0875 97.0746 66.6393 97.9959 66.9587C99.8502 67.567 101.803 67.8184 103.751 67.6996C107.385 67.6996 111.343 67.3748 114.033 64.9287C114.642 64.3806 115.19 63.4975 114.784 62.787C114.287 61.9141 112.683 61.904 112.592 60.9093C115.313 60.7372 117.925 59.7702 120.103 58.1282C120.895 57.6053 121.568 56.9225 122.08 56.1236C122.593 55.3247 122.932 54.4275 123.077 53.4896C123.119 52.7349 122.971 51.9816 122.646 51.2989C122.322 50.6161 121.831 50.0258 121.219 49.5819C122.731 48.2522 124.406 46.3237 123.604 44.5069C122.955 43.025 120.925 42.01 121.351 40.5382C122.452 40.0685 123.419 39.3334 124.166 38.3987C124.914 37.4639 125.418 36.3586 125.634 35.1815C125.85 34.0044 125.772 32.792 125.405 31.6528C125.038 30.5135 124.395 29.4827 123.533 28.6526C124.94 28.1353 126.151 27.1942 126.999 25.9594C127.848 24.7245 128.292 23.2566 128.271 21.7584C128.25 20.2602 127.764 18.8055 126.881 17.5951C125.998 16.3847 124.761 15.4782 123.34 15.0008C123.831 14.1976 124.098 13.2779 124.113 12.3369C124.129 11.3959 123.892 10.4678 123.429 9.64893C122.965 8.83001 122.29 8.15001 121.475 7.67937C120.66 7.20873 119.734 6.96457 118.793 6.97219C119.186 6.31369 119.309 5.52908 119.137 4.78207C118.964 4.03507 118.511 3.38336 117.87 2.96294C116.536 2.17986 114.956 1.92629 113.444 2.25244C110.927 2.61784 109.222 3.32834 106.948 2.25244C104.675 1.17654 102.777 0.59799 100.239 1.07504Z" fill="white"/>
<path d="M103.264 68.2076C101.411 68.2941 99.5581 68.0289 97.8035 67.426C96.8984 67.1021 96.079 66.5765 95.4072 65.8889C94.7354 65.2013 94.229 64.3698 93.9262 63.4574C91.576 64.2328 89.0781 64.453 86.6284 64.1008C84.1788 63.7486 81.8441 62.8335 79.8076 61.4274C77.9306 60.2459 76.59 58.3771 76.0724 56.2204C75.9119 55.2567 76.0436 54.2669 76.4507 53.3787C76.8577 52.4905 77.5213 51.7445 78.3561 51.2368C77.5727 50.7111 76.9146 50.0194 76.4287 49.2107C75.9428 48.402 75.6409 47.4962 75.5446 46.5576C75.5177 45.8895 75.6436 45.2241 75.9127 44.612C76.1818 43.9999 76.587 43.4573 77.0975 43.0254C77.4038 42.7321 77.765 42.5021 78.1604 42.3488C78.5558 42.1955 78.9776 42.1219 79.4016 42.1322C79.2972 40.6333 78.8417 39.18 78.0719 37.8895L77.8385 37.4023C77.2855 36.3229 76.8858 35.1716 76.6509 33.9818C76.4832 32.8279 76.5678 31.6513 76.899 30.5333C77.2302 29.4153 77.8001 28.3824 78.5693 27.5061C79.8456 25.9409 81.651 24.8974 83.6443 24.5727C82.9357 23.5846 82.4927 22.4311 82.3574 21.2227C82.2222 20.0144 82.3993 18.7915 82.8719 17.6712C83.3445 16.5508 84.0967 15.5705 85.0565 14.824C86.0163 14.0776 87.1517 13.5899 88.3539 13.4077H88.5569C89.0542 13.3367 89.5719 13.2758 89.7444 12.9916C89.917 12.7074 89.8358 12.1593 89.5516 11.4183C89.4704 11.195 89.3892 10.9819 89.3181 10.7586C88.4452 7.83539 91.1756 5.31819 92.8909 4.07989C95.0317 2.389 97.5262 1.20248 100.189 0.608591C102.757 0.131541 104.706 0.699941 107.202 1.85704C108.857 2.60814 110.197 2.36454 111.912 2.03974C112.389 1.94839 112.876 1.85704 113.404 1.77584C115.045 1.41782 116.76 1.70495 118.195 2.57769C118.609 2.8727 118.961 3.24716 119.229 3.67931C119.498 4.11145 119.677 4.59265 119.758 5.09489C119.816 5.56394 119.764 6.04002 119.606 6.48544C120.508 6.60696 121.369 6.93965 122.118 7.45648C122.867 7.9733 123.484 8.65967 123.919 9.45978C124.353 10.2599 124.592 11.1512 124.617 12.0612C124.642 12.9712 124.451 13.8742 124.062 14.6968C125.439 15.2736 126.62 16.2369 127.462 17.4703C128.304 18.7037 128.771 20.1545 128.807 21.6475C128.842 23.1405 128.444 24.6118 127.662 25.8838C126.879 27.1558 125.745 28.174 124.397 28.8154C125.173 29.723 125.729 30.7974 126.022 31.955C126.315 33.1125 126.337 34.3221 126.087 35.4897C125.837 36.6573 125.32 37.7514 124.578 38.6869C123.836 39.6225 122.888 40.3742 121.808 40.8838C121.808 41.4116 122.194 41.8988 122.823 42.6194C123.314 43.0971 123.722 43.6527 124.031 44.2637C124.721 45.837 124.031 47.6132 122.001 49.5519C122.542 50.0539 122.965 50.6689 123.24 51.3532C123.515 52.0374 123.637 52.774 123.595 53.5104C123.445 54.5219 123.085 55.4908 122.538 56.3545C121.991 57.2182 121.269 57.9575 120.418 58.5245C118.413 60.0323 116.053 60.9972 113.566 61.3259L113.922 61.4984C114.454 61.6958 114.914 62.0497 115.241 62.5134C115.432 63.0038 115.452 63.5443 115.297 64.0473C115.142 64.5503 114.822 64.9862 114.389 65.2844C111.628 67.7914 107.649 68.1568 103.762 68.1873L103.264 68.2076ZM94.3018 62.3104C94.4249 62.3092 94.5443 62.3528 94.6377 62.4331C94.7311 62.5134 94.792 62.625 94.8093 62.7469C94.9922 63.6131 95.3985 64.4163 95.9879 65.0769C96.5772 65.7375 97.3291 66.2324 98.1689 66.5125C99.9618 67.0973 101.849 67.3384 103.731 67.223C107.416 67.223 111.171 66.8576 113.688 64.584C114.165 64.1476 114.581 63.4878 114.338 63.0615C114.101 62.7859 113.797 62.5761 113.455 62.4525C112.876 62.1785 112.156 61.8232 112.074 60.9909C112.066 60.8548 112.109 60.7206 112.196 60.6154C112.24 60.5625 112.294 60.519 112.355 60.4876C112.416 60.4562 112.483 60.4375 112.551 60.4327C115.174 60.268 117.691 59.3362 119.788 57.7531C120.803 57.0121 122.417 55.4795 122.559 53.4799C122.597 52.8129 122.466 52.1472 122.179 51.544C121.891 50.9409 121.457 50.4199 120.915 50.0289C120.852 49.9854 120.8 49.9279 120.763 49.861C120.726 49.7941 120.705 49.7196 120.702 49.6432C120.697 49.5668 120.71 49.4901 120.74 49.4196C120.77 49.349 120.816 49.2866 120.874 49.2372C122.904 47.461 123.666 45.9385 123.128 44.7103C122.86 44.2056 122.518 43.7437 122.113 43.3401C121.382 42.5484 120.55 41.645 120.874 40.4372C120.895 40.3626 120.932 40.2937 120.983 40.2357C121.034 40.1776 121.098 40.132 121.169 40.1022C122.193 39.6654 123.092 38.9819 123.787 38.1126C124.482 37.2434 124.951 36.2155 125.153 35.1208C125.354 34.0261 125.28 32.8986 124.939 31.8391C124.599 30.7796 124.001 29.821 123.199 29.0489C123.136 28.9882 123.089 28.9128 123.063 28.8296C123.036 28.7463 123.03 28.6578 123.047 28.5718C123.067 28.4893 123.108 28.4129 123.164 28.3493C123.221 28.2856 123.292 28.2366 123.371 28.2064C124.68 27.7268 125.808 26.8524 126.599 25.7041C127.389 24.5559 127.804 23.1904 127.785 21.7965C127.766 20.4025 127.314 19.0488 126.493 17.9225C125.671 16.7961 124.52 15.9527 123.199 15.5088C123.127 15.4854 123.061 15.4458 123.006 15.393C122.952 15.3403 122.91 15.2757 122.884 15.2043C122.849 15.1368 122.831 15.062 122.831 14.9861C122.831 14.9102 122.849 14.8353 122.884 14.7678C123.322 14.0449 123.56 13.2188 123.575 12.3737C123.59 11.5286 123.38 10.6947 122.967 9.95709C122.555 9.21945 121.954 8.60441 121.226 8.17464C120.498 7.74487 119.669 7.51573 118.824 7.51059C118.729 7.50962 118.637 7.4826 118.556 7.43248C118.475 7.38236 118.41 7.31107 118.367 7.22639C118.328 7.14022 118.311 7.04506 118.32 6.95058C118.329 6.85611 118.363 6.76567 118.418 6.68844C118.568 6.4832 118.674 6.24939 118.73 6.00148C118.786 5.75356 118.79 5.49682 118.743 5.24714C118.62 4.50938 118.211 3.84962 117.606 3.40999C116.382 2.69226 114.929 2.4707 113.546 2.79084C113.029 2.86189 112.531 2.95324 112.095 3.03444C110.278 3.37954 108.715 3.67389 106.766 2.77054C104.462 1.70479 102.706 1.17699 100.361 1.60329C97.8482 2.17923 95.4943 3.30592 93.4695 4.90204C92.2718 5.77494 89.5617 8.05869 90.2824 10.4744C90.3433 10.6672 90.4143 10.8601 90.4955 11.0631C90.7133 11.4494 90.826 11.886 90.8224 12.3295C90.8189 12.7729 90.6992 13.2077 90.4752 13.5904C90.2369 13.8412 89.9505 14.0414 89.6331 14.1792C89.3157 14.317 88.9739 14.3894 88.6279 14.3923H88.4249C87.3218 14.5606 86.2861 15.0288 85.4309 15.7457C84.5758 16.4627 83.934 17.4008 83.5758 18.4577C83.2176 19.5145 83.1566 20.6495 83.3996 21.7386C83.6426 22.8278 84.1802 23.8292 84.9536 24.6336C85.0234 24.7044 85.0703 24.7944 85.0884 24.8921C85.1065 24.9898 85.0949 25.0907 85.0551 25.1817C85.0145 25.2718 84.9489 25.3483 84.8662 25.4022C84.7834 25.4562 84.687 25.4853 84.5882 25.4862C83.5755 25.5473 82.5859 25.8139 81.6796 26.2699C80.7734 26.726 79.9695 27.3618 79.317 28.1387C78.6645 28.9156 78.1771 29.8172 77.8846 30.7887C77.592 31.7601 77.5003 32.7809 77.6152 33.7889C77.8476 34.8851 78.2301 35.9439 78.752 36.9354L78.9854 37.4125C79.8076 39.0974 80.6602 40.8432 80.3658 42.7412C80.3564 42.8091 80.3325 42.8741 80.2958 42.9319C80.259 42.9897 80.2102 43.0389 80.1527 43.0762C80.0961 43.1167 80.0316 43.1448 79.9634 43.1588C79.8952 43.1728 79.8248 43.1723 79.7568 43.1574C79.3952 43.0943 79.0239 43.1155 78.6718 43.2193C78.3197 43.3232 77.9963 43.5069 77.7268 43.7562C77.3422 44.0849 77.0353 44.4948 76.8282 44.9564C76.6211 45.418 76.5189 45.9199 76.5291 46.4257C76.6542 47.3715 77.0104 48.272 77.5663 49.0474C78.1222 49.8228 78.8606 50.4493 79.7162 50.8714C79.8083 50.9232 79.8819 51.0025 79.9267 51.0981C79.9716 51.1937 79.9855 51.301 79.9665 51.4049C79.9475 51.5088 79.8966 51.6042 79.8208 51.6778C79.745 51.7513 79.6481 51.7994 79.5437 51.8153C77.7674 52.1198 76.7626 54.2615 77.0468 55.9768C77.5178 57.8674 78.7088 59.4991 80.3658 60.524C82.3438 61.9098 84.6279 62.796 87.023 63.1071C89.418 63.4182 91.8527 63.1449 94.1191 62.3104C94.1796 62.3008 94.2413 62.3008 94.3018 62.3104Z" fill="#14142B"/>
<path d="M127.828 64.8789C127.828 64.8789 157.029 102.434 158.765 102.647C158.765 102.647 189.59 98.313 191.509 95.2782C193.427 92.2433 195.569 93.0858 195.569 93.0858C195.569 93.0858 197.457 89.4318 199.832 89.0258C202.207 88.6198 209.637 93.0858 205.313 95.9785C200.989 98.8713 162.622 123.038 157.415 123.587C140.921 125.292 125.138 85.7372 126.965 80.4896L127.828 64.8789Z" fill="white"/>
<path d="M156.45 124.104C151.537 124.104 146.239 120.673 141.042 114.106C132.049 102.748 125.279 84.3767 126.517 80.3573L127.34 64.8481C127.344 64.7444 127.38 64.6446 127.444 64.5627C127.508 64.4808 127.595 64.4209 127.695 64.3913C127.793 64.3613 127.898 64.3618 127.996 64.3926C128.094 64.4234 128.18 64.4831 128.243 64.5639C139.52 79.0682 156.825 100.83 158.855 102.119C170.69 100.454 189.793 97.0439 191.102 95.0139C192.716 92.4561 194.543 92.3749 195.365 92.517C195.933 91.502 197.649 88.9036 199.8 88.457C201.749 88.0814 206.012 90.3855 206.987 92.791C207.26 93.438 207.274 94.1652 207.027 94.8225C206.779 95.4798 206.289 96.017 205.657 96.3232C202.348 98.5055 163.027 123.444 157.526 124.012C157.169 124.063 156.81 124.094 156.45 124.104ZM128.284 66.2488L127.532 80.4588C127.542 80.5023 127.542 80.5472 127.532 80.5907C126.416 83.7981 132.608 101.784 141.864 113.456C145.6 118.166 151.334 123.606 157.445 123.018C162.408 122.5 199.567 99.1652 205.15 95.4909C206.165 94.8312 206.459 94.0699 206.093 93.1767C205.271 91.1467 201.465 89.2081 200.004 89.4618C198.248 89.7968 196.583 92.3444 196.086 93.2985C196.029 93.4114 195.931 93.4984 195.812 93.5418C195.693 93.5852 195.562 93.5816 195.446 93.532C195.385 93.532 193.629 92.9027 191.975 95.562C189.945 98.7085 162.042 102.667 158.866 103.154C158.822 103.164 158.777 103.164 158.734 103.154C157.008 102.911 137.49 78.1141 128.263 66.2589L128.284 66.2488Z" fill="#14142B"/>
<path d="M106.187 54.7494C106.187 54.7494 92.9918 49.4105 76.8736 63.245C69.6164 69.4162 68.1446 76.1659 65.0996 83.0882C67.5458 106.23 76.0109 146.262 76.0109 146.262H131.227C131.227 146.262 135.683 112.696 137.317 92.4668C138.332 79.8808 132.577 70.4616 129.593 65.4678C124.477 56.8099 106.187 54.7494 106.187 54.7494Z" fill="#6A96FF"/>
<path d="M97.5801 57.7324C98.5951 59.6711 115.414 103.742 115.414 103.742V62.5232L97.5801 57.7324Z" fill="#14142B"/>
<path d="M115.423 104.25C115.32 104.251 115.219 104.22 115.133 104.162C115.048 104.104 114.983 104.022 114.946 103.925C114.783 103.489 98.1169 59.8541 97.1324 57.9662C97.0872 57.8783 97.0686 57.7791 97.079 57.6809C97.0893 57.5826 97.1281 57.4895 97.1906 57.413C97.2532 57.3365 97.3366 57.2799 97.4309 57.2501C97.5251 57.2204 97.6259 57.2188 97.7211 57.2455L115.555 62.0262C115.664 62.0555 115.76 62.1203 115.828 62.2104C115.896 62.3005 115.932 62.4107 115.93 62.5235V103.743C115.932 103.862 115.891 103.977 115.814 104.068C115.738 104.16 115.631 104.221 115.514 104.24L115.423 104.25ZM98.4722 58.5041C100.868 64.3099 111.566 92.2427 114.915 100.992V62.9092L98.4722 58.5041Z" fill="#14142B"/>
<path d="M122.031 21.0505L122.863 23.8519C123.229 25.1004 124.305 25.5368 124.761 26.5721C125.218 27.6074 125.056 29.8506 125.117 31.1193C125.354 34.2032 125.135 37.3053 124.467 40.3254C124.006 42.2895 122.981 44.0762 121.519 45.4663C120.057 46.8564 118.22 47.7895 116.235 48.151L115.85 60.666C115.85 60.666 115.708 67.0706 107.892 65.8323C105.627 65.4675 103.493 64.53 101.692 63.109C99.8903 61.6879 98.482 59.8303 97.6 57.7123L97.4884 41.4723C97.4884 39.7367 96.7982 36.4785 97.4884 34.8342C98.1786 33.1899 101.173 32.1749 102.492 30.622C104.253 28.573 105.275 25.9925 105.395 23.2937C106.813 23.3573 108.219 23.022 109.456 22.3258C110.692 21.6296 111.708 20.6005 112.389 19.3555C113.521 20.7354 115.147 21.6197 116.921 21.8206C118.694 22.0215 120.477 21.5231 121.889 20.4314L122.031 21.0505Z" fill="white"/>
<path d="M109.76 66.5023C109.08 66.4995 108.401 66.4418 107.73 66.3297C105.375 65.9656 103.154 64.9998 101.281 63.5257C99.4091 62.0516 97.9488 60.1192 97.0421 57.9154C97.0325 57.8583 97.0325 57.7999 97.0421 57.7428L96.9305 41.4419C96.9305 40.9344 96.8594 40.2645 96.7985 39.554C96.626 37.8285 96.4331 35.8696 96.9203 34.6211C97.3568 33.5351 98.5951 32.7332 99.7928 31.972C100.611 31.5074 101.359 30.9299 102.016 30.2566C103.708 28.2997 104.688 25.8278 104.797 23.243C104.799 23.176 104.815 23.1101 104.842 23.0491C104.87 22.9881 104.91 22.9333 104.959 22.8877C105.007 22.8375 105.066 22.7994 105.131 22.7764C105.196 22.7535 105.266 22.7464 105.335 22.7558C106.655 22.8151 107.965 22.5021 109.115 21.8524C110.266 21.2026 111.21 20.2425 111.841 19.0815C111.881 19.0051 111.941 18.9406 112.014 18.8944C112.087 18.8481 112.171 18.8216 112.257 18.8176C112.342 18.8118 112.428 18.8274 112.506 18.8628C112.584 18.8982 112.652 18.9524 112.704 19.0206C113.75 20.2911 115.249 21.1066 116.884 21.2959C118.519 21.4851 120.164 21.0334 121.473 20.0356C121.538 19.9799 121.615 19.9415 121.699 19.9238C121.782 19.906 121.869 19.9096 121.95 19.9341C122.03 19.9602 122.102 20.0053 122.16 20.0654C122.219 20.1255 122.261 20.1988 122.285 20.2792L122.478 20.9186L123.31 23.72C123.501 24.2405 123.814 24.7072 124.224 25.0801C124.638 25.448 124.982 25.8883 125.239 26.3793C125.602 27.54 125.734 28.761 125.625 29.9724C125.625 30.3886 125.625 30.7743 125.625 31.1092C125.871 34.2441 125.648 37.3982 124.965 40.4675C124.483 42.4508 123.459 44.2608 122.007 45.695C120.555 47.1291 118.732 48.1307 116.743 48.5875L116.358 60.6965C116.311 61.5338 116.099 62.3535 115.733 63.1081C115.367 63.8626 114.855 64.5368 114.226 65.0914C112.956 66.0837 111.37 66.5846 109.76 66.5023ZM98.0977 57.6413C98.9678 59.6454 100.327 61.399 102.051 62.7414C103.774 64.0838 105.807 64.9721 107.964 65.3249C110.389 65.7207 112.277 65.3249 113.556 64.3099C114.601 63.3695 115.239 62.0587 115.332 60.6559L115.728 48.1003C115.734 47.9786 115.781 47.8626 115.863 47.7719C115.944 47.6813 116.054 47.6216 116.175 47.603C118.055 47.265 119.794 46.3843 121.179 45.0694C122.565 43.7546 123.535 42.0631 123.97 40.2036C124.63 37.2305 124.842 34.1755 124.599 31.1397C124.599 30.7946 124.599 30.3886 124.599 29.9521C124.694 28.8874 124.594 27.8144 124.305 26.7853C124.106 26.4064 123.845 26.0634 123.534 25.7703C123.008 25.2863 122.61 24.6795 122.377 24.0042L121.554 21.2434C120.138 22.1201 118.468 22.4965 116.812 22.3125C115.156 22.1285 113.609 21.3947 112.419 20.2284C111.677 21.2952 110.692 22.1701 109.545 22.7807C108.397 23.3914 107.121 23.7203 105.822 23.7403C105.577 26.3694 104.512 28.855 102.777 30.8453C102.083 31.6361 101.275 32.3201 100.381 32.8753C99.3665 33.5554 98.2195 34.2557 97.9049 35.0474C97.6053 36.5157 97.5846 38.0273 97.844 39.5033C97.915 40.2341 97.9861 40.9344 97.9861 41.5333L98.0977 57.6413Z" fill="#14142B"/>
<path d="M101.823 35.0173C101.823 35.0173 98.2301 26.2071 93.7032 31.546C89.1763 36.8849 95.3374 43.0967 99.2147 42.711" fill="white"/>
<path d="M98.8496 43.2281C96.5252 43.2281 93.7746 41.3605 92.4246 38.7925C91.7518 37.5987 91.4758 36.2219 91.6363 34.8609C91.7969 33.5 92.3857 32.2252 93.3178 31.2206C94.546 29.7793 95.8452 29.1906 97.185 29.3632C100.23 29.8504 102.209 34.6209 102.26 34.8239C102.293 34.8864 102.313 34.9551 102.318 35.0257C102.323 35.0963 102.313 35.1671 102.289 35.2337C102.265 35.3002 102.228 35.3611 102.179 35.4122C102.13 35.4634 102.071 35.5038 102.005 35.5308C101.94 35.5578 101.87 35.5708 101.799 35.5691C101.728 35.5673 101.659 35.5508 101.595 35.5205C101.531 35.4903 101.474 35.447 101.428 35.3934C101.381 35.3399 101.347 35.2773 101.326 35.2096C101.326 35.2096 99.4789 30.7639 96.9921 30.368C96.0279 30.2158 95.0433 30.7233 94.0588 31.8804C93.2635 32.7344 92.7609 33.8196 92.624 34.9785C92.4872 36.1374 92.7231 37.3098 93.2975 38.3256C94.5257 40.6601 97.1342 42.3856 99.1338 42.2029C99.2683 42.1895 99.4028 42.23 99.5075 42.3157C99.6122 42.4014 99.6785 42.5251 99.692 42.6597C99.7055 42.7943 99.6649 42.9287 99.5792 43.0334C99.4936 43.1381 99.3699 43.2045 99.2353 43.2179C99.1071 43.23 98.9782 43.2334 98.8496 43.2281Z" fill="#14142B"/>
<path d="M118.185 40.5193C117.288 40.4994 116.398 40.3664 115.536 40.1235C115.401 40.0845 115.287 39.9936 115.22 39.8708C115.152 39.748 115.136 39.6034 115.175 39.4688C115.214 39.3342 115.305 39.2206 115.428 39.1531C115.551 39.0855 115.695 39.0695 115.83 39.1085C116.5 39.3115 118.459 39.7276 119.464 39.2404C119.697 38.7329 118.134 35.6981 116.073 32.7952C115.997 32.6842 115.968 32.5479 115.99 32.4153C116.013 32.2826 116.087 32.1641 116.195 32.0847C116.25 32.0458 116.312 32.018 116.377 32.003C116.442 31.9881 116.51 31.9862 116.576 31.9975C116.642 32.0089 116.705 32.0331 116.762 32.069C116.818 32.1049 116.867 32.1516 116.906 32.2065C117.829 33.526 120.834 37.9311 120.418 39.5145C120.382 39.6504 120.318 39.7774 120.231 39.8875C120.144 39.9976 120.034 40.0883 119.91 40.1539C119.369 40.4007 118.78 40.5255 118.185 40.5193Z" fill="#14142B"/>
<path d="M115.079 44.3141C114.349 44.3152 113.622 44.2196 112.917 44.0299C110.791 43.423 108.952 42.0768 107.731 40.2338C107.704 40.1719 107.69 40.1053 107.689 40.038C107.689 39.9706 107.702 39.9038 107.727 39.8414C107.753 39.7791 107.79 39.7224 107.838 39.6748C107.886 39.6271 107.942 39.5894 108.005 39.5639C108.129 39.5161 108.267 39.5179 108.389 39.5689C108.512 39.6199 108.611 39.7163 108.664 39.838C109.801 41.4393 111.464 42.5892 113.364 43.086C115.81 43.695 118.368 42.9946 120.956 41.056C121.063 40.9835 121.194 40.9545 121.321 40.9749C121.449 40.9953 121.564 41.0636 121.643 41.1659C121.722 41.2681 121.759 41.3966 121.746 41.5252C121.733 41.6538 121.672 41.7727 121.575 41.8578C119.744 43.3776 117.458 44.2421 115.079 44.3141Z" fill="#14142B"/>
<path d="M116.236 48.1509C116.236 48.1509 109.527 48.7802 105.721 47.6738C105.721 47.6738 109.598 57.6716 115.952 57.8238L116.236 48.1509Z" fill="#14142B"/>
<path d="M115.951 58.3311C109.334 58.1687 105.416 48.2826 105.253 47.8563C105.219 47.7694 105.21 47.6743 105.228 47.5825C105.246 47.4907 105.29 47.4061 105.355 47.3386C105.419 47.269 105.502 47.2182 105.593 47.1914C105.684 47.1646 105.78 47.1629 105.872 47.1864C109.537 48.2521 116.134 47.6533 116.205 47.6431C116.276 47.638 116.347 47.648 116.413 47.6725C116.48 47.697 116.54 47.7354 116.591 47.7852C116.647 47.8319 116.69 47.8913 116.719 47.9584C116.747 48.0255 116.759 48.0984 116.753 48.1709L116.469 57.8337C116.468 57.9004 116.453 57.9661 116.426 58.0272C116.4 58.0883 116.361 58.1435 116.313 58.1897C116.265 58.2358 116.208 58.2721 116.146 58.2964C116.084 58.3206 116.018 58.3324 115.951 58.3311ZM106.593 48.4044C107.679 50.7389 110.897 56.7578 115.464 57.2755L115.718 48.6987C112.675 48.9665 109.612 48.8677 106.593 48.4044Z" fill="#14142B"/>
<path d="M112.063 33.3037C112.607 33.2928 113.032 32.5116 113.013 31.5588C112.994 30.6061 112.538 29.8425 111.994 29.8534C111.45 29.8642 111.025 30.6454 111.044 31.5982C111.063 32.551 111.519 33.3145 112.063 33.3037Z" fill="#14142B"/>
<path d="M121.112 33.122C121.656 33.1112 122.081 32.33 122.062 31.3772C122.043 30.4244 121.587 29.6608 121.043 29.6717C120.499 29.6826 120.074 30.4638 120.093 31.4166C120.112 32.3693 120.568 33.1329 121.112 33.122Z" fill="#14142B"/>
<path d="M109.76 34.9863C106.806 34.9863 106.654 34.7833 106.522 34.6209C106.39 34.4585 106.136 34.1134 106.045 28.6832C106.045 28.552 106.095 28.4259 106.186 28.3313C106.277 28.2367 106.401 28.1809 106.532 28.1757C116.439 27.6885 116.743 27.7798 116.845 27.8103C116.952 27.8457 117.045 27.9156 117.11 28.0091C117.174 28.1026 117.205 28.2146 117.2 28.3279L116.794 34.3469C116.784 34.4709 116.729 34.5869 116.639 34.673C116.549 34.7591 116.431 34.8092 116.307 34.8138C113.211 34.9051 111.13 34.9863 109.76 34.9863ZM107.283 33.8901C108.237 34.0119 112.115 33.951 115.758 33.8089L116.104 28.7339C114.632 28.7339 110.166 28.9471 107.019 29.0993C107.025 30.6997 107.113 32.2988 107.283 33.8901Z" fill="#14142B"/>
<path d="M128.376 34.8148H119.017C118.951 34.8161 118.885 34.8043 118.824 34.7799C118.762 34.7555 118.706 34.7191 118.659 34.6727C118.612 34.6264 118.574 34.5711 118.549 34.5101C118.523 34.4491 118.51 34.3836 118.51 34.3174L118.459 28.2883C118.459 28.1555 118.511 28.0279 118.604 27.933C118.697 27.8381 118.823 27.7835 118.956 27.7808C128.548 27.6895 128.832 27.7808 128.934 27.7808C129.042 27.8163 129.135 27.8861 129.199 27.9796C129.263 28.0732 129.295 28.1852 129.289 28.2985L128.883 34.3174C128.883 34.3836 128.87 34.4491 128.844 34.5101C128.819 34.5711 128.781 34.6264 128.734 34.6727C128.687 34.7191 128.63 34.7555 128.569 34.7799C128.507 34.8043 128.442 34.8161 128.376 34.8148ZM119.525 33.7998H127.909L128.244 28.7248C126.823 28.7248 122.519 28.7248 119.474 28.7248L119.525 33.7998Z" fill="#14142B"/>
<path d="M118.967 31.3841H116.642C116.508 31.3841 116.379 31.3307 116.283 31.2355C116.188 31.1403 116.135 31.0112 116.135 30.8766C116.135 30.742 116.188 30.613 116.283 30.5178C116.379 30.4226 116.508 30.3691 116.642 30.3691H118.967C119.101 30.3691 119.23 30.4226 119.325 30.5178C119.421 30.613 119.474 30.742 119.474 30.8766C119.474 31.0112 119.421 31.1403 119.325 31.2355C119.23 31.3307 119.101 31.3841 118.967 31.3841Z" fill="#14142B"/>
<path d="M88.495 92.4462C88.495 92.4462 85.7037 120.034 87.0638 126.662L133.358 133.178C133.358 133.178 145.223 132.711 150.938 134.751C154.44 136 160.793 141.471 159.646 143.186C158.5 144.901 155.363 147.043 152.541 146.231C149.72 145.419 141.782 142.892 141.782 142.892C141.782 142.892 147.964 148.484 144.249 148.109C140.534 147.733 136.423 145.125 136.423 145.125C136.423 145.125 110.703 150.007 94.2399 149.185C73.9399 148.17 65.3022 143.359 63.0083 131.351C60.7144 119.344 63.1403 88.0106 65.15 83.0879" fill="white"/>
<path d="M98.2692 149.793C96.8583 149.793 95.4881 149.793 94.2092 149.691C73.4321 148.615 64.8452 143.672 62.5107 131.421C60.1762 119.17 62.7036 87.7153 64.6828 82.8636C64.7073 82.8016 64.744 82.7452 64.7907 82.6976C64.8374 82.6501 64.8931 82.6124 64.9547 82.5869C65.0162 82.5613 65.0823 82.5484 65.1489 82.5488C65.2155 82.5493 65.2814 82.5632 65.3426 82.5896C65.4046 82.614 65.461 82.6507 65.5086 82.6974C65.5561 82.7441 65.5938 82.7999 65.6193 82.8614C65.6449 82.9229 65.6578 82.989 65.6574 83.0556C65.6569 83.1223 65.6431 83.1881 65.6166 83.2493C63.678 88.03 61.2318 119.272 63.5054 131.228C65.7283 142.881 74.0614 147.6 94.2599 148.646C110.5 149.478 136.078 144.677 136.332 144.586C136.458 144.563 136.588 144.589 136.697 144.657C136.697 144.657 140.757 147.194 144.299 147.56C144.512 147.621 144.737 147.621 144.949 147.56C145.061 147.103 143.406 145.043 141.447 143.276C141.359 143.198 141.3 143.092 141.281 142.975C141.263 142.858 141.286 142.739 141.346 142.637C141.405 142.537 141.497 142.46 141.606 142.419C141.715 142.379 141.834 142.377 141.945 142.414C142.016 142.414 149.862 144.961 152.673 145.733C155.221 146.433 158.185 144.484 159.261 142.87C159.298 142.78 159.317 142.684 159.317 142.586C159.317 142.489 159.298 142.392 159.261 142.302C158.601 140.272 153.79 136.212 150.816 135.197C145.254 133.167 133.561 133.654 133.429 133.654L87.0433 127.138C86.9388 127.123 86.8417 127.076 86.7653 127.003C86.6889 126.93 86.637 126.836 86.617 126.732C85.2569 120.104 87.9264 93.4907 88.038 92.364C88.0447 92.2974 88.0644 92.2327 88.0961 92.1737C88.1277 92.1146 88.1707 92.0624 88.2225 92.02C88.2744 91.9776 88.334 91.9458 88.3982 91.9265C88.4623 91.9071 88.5296 91.9006 88.5962 91.9073C88.6629 91.9139 88.7276 91.9337 88.7866 91.9653C88.8456 91.997 88.8978 92.0399 88.9402 92.0918C88.9826 92.1436 89.0144 92.2033 89.0338 92.2674C89.0531 92.3316 89.0597 92.3989 89.053 92.4655C89.053 92.7294 86.3835 119.13 87.5508 126.184L133.49 132.649C133.886 132.649 145.426 132.193 151.171 134.243C154.216 135.329 159.413 139.521 160.235 141.987C160.333 142.219 160.375 142.47 160.357 142.72C160.339 142.971 160.263 143.213 160.133 143.429C158.855 145.347 155.475 147.56 152.43 146.717C150.511 146.179 146.269 144.85 143.721 144.038C145 145.388 146.299 147.083 145.883 147.996C145.66 148.494 145.101 148.697 144.228 148.605C141.439 148.149 138.766 147.149 136.362 145.662C134.119 146.098 113.667 149.793 98.2692 149.793Z" fill="#14142B"/>
<path d="M88.4965 92.9533H88.4458C88.3135 92.9286 88.1961 92.8532 88.1184 92.7433C88.0407 92.6334 88.0089 92.4976 88.0296 92.3646L91.6532 72.227C91.6774 72.0924 91.7541 71.973 91.8664 71.8949C91.9787 71.8169 92.1174 71.7867 92.252 71.8109C92.3866 71.8351 92.5061 71.9118 92.5841 72.0241C92.6622 72.1364 92.6924 72.2751 92.6682 72.4097L89.0548 92.5473C89.028 92.6718 88.9562 92.7821 88.8532 92.857C88.7502 92.9319 88.6232 92.9662 88.4965 92.9533Z" fill="#14142B"/>
<path d="M162.033 164.562V91.4105C162.033 91.4105 225.207 88.9847 251.353 62.8281V138.435C251.353 138.435 225.207 159.75 162.033 164.562Z" fill="#6A96FF"/>
<path d="M162.033 165.068C161.906 165.066 161.784 165.02 161.688 164.936C161.637 164.888 161.597 164.829 161.569 164.765C161.541 164.7 161.526 164.631 161.525 164.561V91.4096C161.525 91.2785 161.576 91.1524 161.667 91.0577C161.758 90.9631 161.882 90.9074 162.013 90.9021C162.642 90.9021 225.288 88.1819 250.967 62.4821C251.04 62.4131 251.132 62.3661 251.23 62.3464C251.329 62.3266 251.431 62.335 251.525 62.3705C251.62 62.4092 251.7 62.4754 251.756 62.5605C251.812 62.6456 251.842 62.7456 251.84 62.8475V138.435C251.841 138.511 251.824 138.587 251.791 138.656C251.757 138.724 251.708 138.784 251.647 138.83C251.394 139.044 224.679 160.308 162.073 165.109L162.033 165.068ZM162.54 91.8867V164.013C221.715 159.364 248.359 140.028 250.845 138.15V64.0554C225.602 88.05 168.427 91.5923 162.54 91.8867Z" fill="#14142B"/>
<path d="M31.3926 191.642V141.48C31.3926 141.48 59.4573 160.025 101.428 155.893V204.837C101.428 204.837 73.9414 213.15 31.3926 191.642Z" fill="white"/>
<path d="M86.791 206.856C74.4892 206.856 55.1433 204.217 31.1588 192.098C31.0767 192.053 31.0081 191.987 30.9599 191.907C30.9118 191.827 30.8858 191.735 30.8848 191.641V141.48C30.8856 141.389 30.9104 141.3 30.9567 141.221C31.0031 141.143 31.0693 141.078 31.1487 141.034C31.2266 140.986 31.3162 140.961 31.4075 140.961C31.4988 140.961 31.5883 140.986 31.6663 141.034C31.9505 141.216 60.0863 159.436 101.366 155.365C101.436 155.359 101.505 155.366 101.572 155.387C101.638 155.408 101.699 155.442 101.752 155.487C101.803 155.536 101.843 155.594 101.871 155.659C101.899 155.723 101.914 155.792 101.914 155.863V204.806C101.915 204.915 101.881 205.02 101.817 205.108C101.753 205.196 101.663 205.261 101.559 205.293C101.437 205.334 96.1594 206.856 86.791 206.856ZM31.8998 191.337C71.0077 211.008 97.5398 205.273 100.92 204.42V156.421C63.4257 159.943 36.7515 145.256 31.8998 142.363V191.337Z" fill="#14142B"/>
<path d="M176.75 151.073C176.622 151.073 176.499 151.026 176.405 150.941C176.354 150.892 176.313 150.834 176.286 150.77C176.258 150.705 176.243 150.636 176.242 150.565V98.4554C176.242 98.3291 176.288 98.2072 176.372 98.1133C176.457 98.0195 176.573 97.9605 176.699 97.9479C179.957 97.6332 192.553 96.1209 192.685 96.1107C192.756 96.1027 192.828 96.1093 192.896 96.1303C192.964 96.1513 193.027 96.1861 193.081 96.2325C193.136 96.2786 193.179 96.3362 193.209 96.4011C193.239 96.466 193.254 96.5366 193.254 96.6081V147.723C193.253 147.824 193.223 147.921 193.167 148.005C193.111 148.088 193.032 148.152 192.939 148.19C188.25 150.22 177.247 151.043 176.78 151.073H176.75ZM177.257 98.9121V150.017C179.51 149.825 188.138 149.002 192.239 147.389V97.1866C189.813 97.4708 180.576 98.567 177.227 98.9121H177.257Z" fill="#14142B"/>
<path d="M202.623 145.744C202.503 145.744 202.388 145.7 202.298 145.622C202.243 145.574 202.198 145.515 202.167 145.448C202.135 145.382 202.118 145.31 202.115 145.236V104.789C202.116 104.669 202.159 104.553 202.237 104.462C202.315 104.371 202.423 104.311 202.542 104.291C207.975 103.313 213.296 101.793 218.426 99.7543C218.499 99.7143 218.581 99.6934 218.665 99.6934C218.748 99.6934 218.83 99.7143 218.903 99.7543C218.972 99.802 219.029 99.8657 219.068 99.9399C219.106 100.014 219.127 100.097 219.127 100.181V139.766C219.126 139.858 219.1 139.948 219.052 140.027C219.003 140.106 218.935 140.17 218.853 140.212C213.761 142.818 208.323 144.681 202.704 145.744H202.623ZM203.13 105.215V144.627C208.332 143.576 213.37 141.835 218.112 139.451V100.982C213.263 102.854 208.251 104.271 203.14 105.215H203.13Z" fill="#14142B"/>
<path d="M227.763 136.658C227.65 136.661 227.539 136.625 227.449 136.557C227.388 136.508 227.339 136.446 227.306 136.376C227.273 136.306 227.255 136.229 227.256 136.151V107.426C227.257 107.314 227.296 107.205 227.365 107.117C227.435 107.029 227.532 106.966 227.642 106.939C232.684 105.67 237.485 103.581 241.852 100.758C241.931 100.711 242.023 100.686 242.115 100.686C242.208 100.686 242.299 100.711 242.379 100.758C242.463 100.801 242.533 100.867 242.581 100.947C242.63 101.028 242.655 101.121 242.653 101.215V130.264C242.653 130.349 242.632 130.432 242.591 130.507C242.55 130.581 242.491 130.644 242.42 130.69C237.886 133.373 232.991 135.393 227.885 136.689L227.763 136.658ZM228.271 107.822V135.501C232.954 134.255 237.45 132.388 241.638 129.949V102.108C237.486 104.656 232.982 106.581 228.271 107.822Z" fill="#14142B"/>
<path d="M222.75 88.8329C222.615 88.849 222.48 88.811 222.373 88.7273C222.266 88.6435 222.198 88.5208 222.181 88.3863C222.165 88.2517 222.203 88.1162 222.287 88.0096C222.371 87.903 222.493 87.834 222.628 87.8179C222.74 87.8179 234.27 84.7729 242.928 78.2363C243.037 78.1581 243.171 78.125 243.304 78.1439C243.436 78.1628 243.556 78.2323 243.638 78.3378C243.719 78.4454 243.754 78.5808 243.735 78.714C243.716 78.8473 243.645 78.9675 243.537 79.0482C234.686 85.7472 222.973 88.772 222.861 88.8024L222.75 88.8329Z" fill="white"/>
<path d="M231.488 91.4822C231.354 91.5091 231.214 91.4815 231.1 91.4053C230.985 91.3292 230.906 91.2108 230.879 91.0762C230.852 90.9416 230.88 90.8018 230.956 90.6876C231.032 90.5734 231.151 90.4941 231.285 90.4672L233.061 89.6755C236.61 88.3118 239.935 86.4269 242.927 84.0829C243.031 84.0139 243.157 83.9855 243.28 84.0032C243.403 84.0208 243.516 84.0833 243.596 84.1787C243.677 84.274 243.719 84.3956 243.715 84.5202C243.712 84.6448 243.663 84.7637 243.577 84.8543C240.511 87.258 237.108 89.1972 233.478 90.6093L231.701 91.3909C231.638 91.4362 231.565 91.4673 231.488 91.4822Z" fill="white"/>
<path d="M16.7656 125.972C16.6653 125.971 16.5669 125.943 16.4814 125.89C11.3908 122.325 6.90209 117.97 3.18494 112.99C3.10842 112.881 3.07726 112.748 3.09813 112.617C3.11899 112.486 3.19022 112.368 3.29659 112.289C3.4064 112.212 3.54185 112.181 3.67439 112.202C3.80694 112.222 3.92621 112.294 4.00708 112.401C7.65177 117.279 12.0512 121.545 17.0397 125.038C17.1516 125.114 17.2292 125.231 17.2558 125.364C17.2823 125.497 17.2558 125.635 17.1818 125.748C17.1357 125.816 17.0738 125.872 17.0013 125.911C16.9288 125.95 16.8479 125.971 16.7656 125.972Z" fill="#D9DBE9"/>
<path d="M16.7656 135.3C16.6653 135.299 16.5669 135.271 16.4814 135.218C11.3908 131.653 6.90209 127.298 3.18494 122.318C3.10842 122.21 3.07726 122.076 3.09813 121.945C3.11899 121.814 3.19022 121.696 3.29659 121.617C3.4064 121.54 3.54185 121.509 3.67439 121.53C3.80694 121.551 3.92621 121.622 4.00708 121.729C7.65095 126.611 12.0505 130.88 17.0397 134.376C17.1516 134.452 17.2292 134.569 17.2558 134.702C17.2823 134.835 17.2558 134.973 17.1818 135.086C17.1346 135.153 17.0721 135.207 16.9997 135.244C16.9273 135.281 16.847 135.3 16.7656 135.3Z" fill="#D9DBE9"/>
<path d="M16.7656 144.628C16.6653 144.627 16.5669 144.599 16.4814 144.547C11.3908 140.982 6.90209 136.627 3.18494 131.646C3.10842 131.538 3.07726 131.404 3.09813 131.273C3.11899 131.142 3.19022 131.025 3.29659 130.946C3.4064 130.868 3.54185 130.837 3.67439 130.858C3.80694 130.879 3.92621 130.95 4.00708 131.057C7.64564 135.934 12.0382 140.2 17.0194 143.694C17.1313 143.77 17.2089 143.887 17.2355 144.02C17.262 144.153 17.2355 144.291 17.1615 144.404C17.1174 144.47 17.0587 144.524 16.99 144.563C16.9212 144.602 16.8444 144.624 16.7656 144.628Z" fill="#D9DBE9"/>
<path d="M204.236 80.337C204.163 80.3391 204.09 80.3246 204.023 80.2947C203.957 80.2649 203.898 80.2203 203.85 80.1645C193.173 67.8931 172.456 55.3883 172.253 55.2665C172.179 55.2203 172.118 55.156 172.075 55.0796C172.033 55.0033 172.01 54.9175 172.01 54.8301V21.7106C172.01 21.576 172.063 21.4469 172.158 21.3518C172.254 21.2566 172.383 21.2031 172.517 21.2031C172.651 21.2057 172.779 21.26 172.873 21.3546C172.968 21.4493 173.022 21.5768 173.025 21.7106V54.5459C175.41 56.0075 194.462 67.8322 204.622 79.5047C204.715 79.5996 204.767 79.7271 204.767 79.86C204.767 79.9928 204.715 80.1204 204.622 80.2152C204.513 80.3035 204.375 80.3471 204.236 80.337Z" fill="#14142B"/>
<path d="M193.051 58.6759C192.698 58.6768 192.35 58.5933 192.036 58.4323C190.229 57.529 189.722 54.2302 189.184 50.7386C188.798 48.2113 188.392 45.6027 187.499 44.0599C187.423 43.8811 187.298 43.7278 187.138 43.6181C186.978 43.5083 186.79 43.4468 186.596 43.4408C183.774 43.3393 177.856 51.0431 175.796 54.0171C175.714 54.1106 175.601 54.171 175.478 54.1867C175.355 54.2024 175.23 54.1724 175.128 54.1024C175.025 54.0323 174.952 53.9271 174.921 53.8066C174.891 53.6862 174.906 53.5588 174.964 53.4487C175.745 52.3119 182.698 42.4258 186.545 42.4258H186.636C187.001 42.4379 187.355 42.548 187.662 42.7445C187.97 42.9409 188.218 43.2165 188.382 43.5423C189.397 45.2475 189.783 47.9575 190.189 50.5762C190.666 53.6212 191.153 56.8388 192.493 57.5188C192.789 57.6277 193.108 57.6624 193.421 57.62C193.734 57.5775 194.032 57.4592 194.289 57.2752C196.466 56.0718 198.4 54.4749 199.994 52.5656C201.815 50.4202 204 48.6128 206.449 47.2267C206.566 47.161 206.705 47.1444 206.834 47.1805C206.963 47.2167 207.073 47.3026 207.139 47.4196C207.201 47.5385 207.215 47.6769 207.177 47.8057C207.139 47.9345 207.053 48.0435 206.936 48.1098C204.587 49.4488 202.491 51.1907 200.745 53.2558C199.068 55.2466 197.042 56.9148 194.766 58.1786C194.244 58.4814 193.655 58.6521 193.051 58.6759Z" fill="#14142B"/>
<path d="M62.9782 69.2025C62.8436 69.2025 62.7145 69.1491 62.6193 69.0539C62.5242 68.9587 62.4707 68.8296 62.4707 68.695V40.0416C62.4701 39.9331 62.5042 39.8272 62.5681 39.7395C62.6321 39.6518 62.7224 39.5869 62.826 39.5544C64.7524 38.952 66.7246 38.5073 68.7231 38.2247C68.7932 38.2154 68.8646 38.2224 68.9315 38.2453C68.9984 38.2682 69.0591 38.3063 69.1088 38.3567C69.1639 38.4023 69.208 38.4598 69.2379 38.5248C69.2677 38.5898 69.2826 38.6607 69.2814 38.7322V66.8071C69.2788 66.9409 69.2245 67.0685 69.1298 67.1631C69.0352 67.2577 68.9076 67.312 68.7739 67.3146C68.6393 67.3146 68.5102 67.2612 68.415 67.166C68.3198 67.0708 68.2664 66.9417 68.2664 66.8071V39.3006C66.65 39.5671 65.0529 39.9401 63.4857 40.4171V68.695C63.4857 68.8296 63.4322 68.9587 63.3371 69.0539C63.2419 69.1491 63.1128 69.2025 62.9782 69.2025Z" fill="#14142B"/>
<path d="M86.9926 197.305C86.8922 197.299 86.7955 197.265 86.7143 197.205C86.6332 197.146 86.5712 197.064 86.5358 196.97L75.3708 165.83L63.069 189.784C63.0285 189.859 62.9705 189.923 62.8998 189.971C62.829 190.018 62.7478 190.048 62.663 190.058C62.5774 190.065 62.4912 190.051 62.413 190.015C62.3347 189.98 62.267 189.924 62.2164 189.855L50.0364 173.929L42.3427 186.14C42.2715 186.251 42.1603 186.331 42.032 186.363C41.9036 186.396 41.7678 186.377 41.6525 186.312L35.1058 182.364C35.0486 182.331 34.9986 182.286 34.9588 182.233C34.9191 182.18 34.8903 182.12 34.8742 182.055C34.8582 181.991 34.8551 181.924 34.8652 181.859C34.8754 181.793 34.8985 181.73 34.9332 181.674C34.9677 181.616 35.0131 181.566 35.0671 181.526C35.121 181.486 35.1823 181.458 35.2474 181.441C35.3126 181.425 35.3802 181.422 35.4465 181.433C35.5128 181.443 35.5764 181.466 35.6336 181.501L41.7236 185.176L49.4883 172.732C49.5324 172.662 49.592 172.604 49.6625 172.562C49.733 172.52 49.8124 172.494 49.8943 172.488C49.9768 172.483 50.0591 172.499 50.1337 172.534C50.2083 172.57 50.2726 172.624 50.3206 172.691L62.5006 188.566L74.9851 164.287C75.031 164.201 75.1009 164.129 75.1863 164.082C75.2717 164.034 75.3691 164.012 75.4667 164.019C75.5642 164.025 75.6579 164.06 75.7363 164.118C75.8147 164.176 75.8746 164.256 75.9088 164.348L87.0738 195.437L92.4431 184.069C92.4686 184.004 92.5072 183.945 92.5564 183.896C92.6057 183.847 92.6646 183.808 92.7294 183.783C92.7943 183.757 92.8637 183.745 92.9333 183.748C93.003 183.75 93.0714 183.767 93.1343 183.797C93.1972 183.827 93.2532 183.87 93.2989 183.922C93.3446 183.975 93.3789 184.036 93.3997 184.103C93.4206 184.169 93.4275 184.239 93.4201 184.309C93.4127 184.378 93.3911 184.445 93.3566 184.506L87.429 197.021C87.3871 197.102 87.3248 197.17 87.2483 197.22C87.1718 197.27 87.0837 197.299 86.9926 197.305Z" fill="#D9DBE9"/>
<path d="M41.9182 187.44C42.7759 187.44 43.4711 186.745 43.4711 185.887C43.4711 185.029 42.7759 184.334 41.9182 184.334C41.0605 184.334 40.3652 185.029 40.3652 185.887C40.3652 186.745 41.0605 187.44 41.9182 187.44Z" fill="white"/>
<path d="M41.9167 187.947C41.5152 187.947 41.1227 187.828 40.7889 187.605C40.4551 187.382 40.1949 187.064 40.0412 186.694C39.8876 186.323 39.8474 185.914 39.9257 185.521C40.0041 185.127 40.1974 184.765 40.4813 184.481C40.7652 184.197 41.1269 184.004 41.5207 183.926C41.9145 183.847 42.3226 183.888 42.6936 184.041C43.0645 184.195 43.3815 184.455 43.6046 184.789C43.8277 185.123 43.9467 185.515 43.9467 185.917C43.9467 186.455 43.7328 186.971 43.3521 187.352C42.9714 187.733 42.4551 187.947 41.9167 187.947ZM41.9167 184.841C41.716 184.841 41.5197 184.9 41.3528 185.012C41.1859 185.123 41.0558 185.282 40.979 185.467C40.9022 185.653 40.8821 185.857 40.9212 186.054C40.9604 186.251 41.0571 186.432 41.199 186.574C41.341 186.715 41.5218 186.812 41.7187 186.851C41.9156 186.89 42.1197 186.87 42.3051 186.794C42.4906 186.717 42.6491 186.587 42.7607 186.42C42.8722 186.253 42.9317 186.057 42.9317 185.856C42.9317 185.587 42.8248 185.328 42.6344 185.138C42.4441 184.948 42.1859 184.841 41.9167 184.841Z" fill="#D9DBE9"/>
<path d="M49.9455 174.59C50.8032 174.59 51.4985 173.895 51.4985 173.037C51.4985 172.18 50.8032 171.484 49.9455 171.484C49.0879 171.484 48.3926 172.18 48.3926 173.037C48.3926 173.895 49.0879 174.59 49.9455 174.59Z" fill="white"/>
<path d="M49.946 175.097C49.5445 175.097 49.152 174.978 48.8182 174.755C48.4844 174.532 48.2242 174.215 48.0705 173.844C47.9169 173.473 47.8767 173.065 47.955 172.671C48.0333 172.277 48.2267 171.916 48.5106 171.632C48.7945 171.348 49.1562 171.154 49.55 171.076C49.9438 170.998 50.3519 171.038 50.7229 171.192C51.0938 171.345 51.4108 171.605 51.6339 171.939C51.857 172.273 51.976 172.666 51.976 173.067C51.976 173.605 51.7621 174.122 51.3814 174.503C51.0007 174.883 50.4844 175.097 49.946 175.097ZM49.946 171.991C49.7453 171.991 49.549 172.051 49.3821 172.162C49.2152 172.274 49.0851 172.432 49.0083 172.618C48.9315 172.803 48.9114 173.007 48.9505 173.204C48.9897 173.401 49.0864 173.582 49.2283 173.724C49.3703 173.866 49.5511 173.963 49.748 174.002C49.9449 174.041 50.149 174.021 50.3344 173.944C50.5199 173.867 50.6784 173.737 50.79 173.57C50.9015 173.403 50.961 173.207 50.961 173.006C50.961 172.737 50.8541 172.479 50.6637 172.288C50.4734 172.098 50.2152 171.991 49.946 171.991Z" fill="#D9DBE9"/>
<path d="M75.4221 166.114C76.2798 166.114 76.975 165.418 76.975 164.561C76.975 163.703 76.2798 163.008 75.4221 163.008C74.5644 163.008 73.8691 163.703 73.8691 164.561C73.8691 165.418 74.5644 166.114 75.4221 166.114Z" fill="white"/>
<path d="M75.4226 166.623C75.0211 166.623 74.6286 166.503 74.2948 166.28C73.9609 166.057 73.7007 165.74 73.5471 165.369C73.3934 164.998 73.3533 164.59 73.4316 164.196C73.5099 163.803 73.7032 163.441 73.9871 163.157C74.271 162.873 74.6328 162.68 75.0265 162.602C75.4203 162.523 75.8285 162.563 76.1994 162.717C76.5704 162.871 76.8874 163.131 77.1105 163.465C77.3335 163.799 77.4526 164.191 77.4526 164.593C77.4526 165.131 77.2387 165.647 76.858 166.028C76.4773 166.409 75.961 166.623 75.4226 166.623ZM75.4226 163.517C75.2218 163.517 75.0256 163.576 74.8587 163.688C74.6918 163.799 74.5617 163.958 74.4848 164.143C74.408 164.329 74.3879 164.533 74.4271 164.73C74.4662 164.927 74.5629 165.107 74.7049 165.249C74.8468 165.391 75.0277 165.488 75.2246 165.527C75.4215 165.566 75.6255 165.546 75.811 165.469C75.9965 165.393 76.155 165.262 76.2665 165.096C76.378 164.929 76.4376 164.732 76.4376 164.532C76.4376 164.262 76.3306 164.004 76.1403 163.814C75.9499 163.624 75.6918 163.517 75.4226 163.517Z" fill="#D9DBE9"/>
<path d="M86.9944 198.35C87.852 198.35 88.5473 197.655 88.5473 196.797C88.5473 195.939 87.852 195.244 86.9944 195.244C86.1367 195.244 85.4414 195.939 85.4414 196.797C85.4414 197.655 86.1367 198.35 86.9944 198.35Z" fill="white"/>
<path d="M86.9929 198.859C86.5914 198.859 86.1989 198.74 85.8651 198.517C85.5313 198.294 85.2711 197.977 85.1174 197.606C84.9638 197.235 84.9236 196.827 85.0019 196.433C85.0802 196.039 85.2736 195.677 85.5575 195.393C85.8414 195.109 86.2031 194.916 86.5969 194.838C86.9906 194.76 87.3988 194.8 87.7697 194.953C88.1407 195.107 88.4577 195.367 88.6808 195.701C88.9038 196.035 89.0229 196.427 89.0229 196.829C89.0229 197.367 88.809 197.884 88.4283 198.264C88.0476 198.645 87.5313 198.859 86.9929 198.859ZM86.9929 195.753C86.7156 195.753 86.4497 195.863 86.2536 196.059C86.0576 196.255 85.9474 196.521 85.9474 196.798C85.9474 197.076 86.0576 197.342 86.2536 197.538C86.4497 197.734 86.7156 197.844 86.9929 197.844C87.2702 197.844 87.5361 197.734 87.7321 197.538C87.9282 197.342 88.0383 197.076 88.0383 196.798C88.0383 196.521 87.9282 196.255 87.7321 196.059C87.5361 195.863 87.2702 195.753 86.9929 195.753Z" fill="#D9DBE9"/>
<path d="M62.5725 191.104C63.4302 191.104 64.1254 190.409 64.1254 189.551C64.1254 188.693 63.4302 187.998 62.5725 187.998C61.7148 187.998 61.0195 188.693 61.0195 189.551C61.0195 190.409 61.7148 191.104 62.5725 191.104Z" fill="white"/>
<path d="M62.573 191.611C62.1715 191.611 61.779 191.492 61.4452 191.269C61.1113 191.046 60.8511 190.729 60.6975 190.358C60.5439 189.987 60.5036 189.579 60.582 189.185C60.6603 188.791 60.8536 188.429 61.1375 188.145C61.4214 187.861 61.7831 187.668 62.1769 187.59C62.5707 187.511 62.9789 187.552 63.3498 187.705C63.7207 187.859 64.0378 188.119 64.2609 188.453C64.4839 188.787 64.603 189.179 64.603 189.581C64.603 190.119 64.3891 190.636 64.0084 191.016C63.6277 191.397 63.1114 191.611 62.573 191.611ZM62.573 188.505C62.3722 188.505 62.176 188.564 62.0091 188.676C61.8422 188.787 61.7121 188.946 61.6352 189.131C61.5584 189.317 61.5383 189.521 61.5775 189.718C61.6166 189.915 61.7133 190.096 61.8552 190.238C61.9972 190.38 62.1781 190.476 62.375 190.515C62.5718 190.555 62.7759 190.534 62.9614 190.458C63.1469 190.381 63.3054 190.251 63.4169 190.084C63.5284 189.917 63.588 189.721 63.588 189.52C63.588 189.251 63.481 188.993 63.2907 188.802C63.1003 188.612 62.8422 188.505 62.573 188.505Z" fill="#D9DBE9"/>
<path d="M169.351 173.412C148.614 183.674 126 183.846 126 183.846V217.047C141.005 217.521 155.895 214.285 169.351 207.628V173.412Z" fill="white"/>
<path d="M128.669 217.605C127.776 217.605 126.893 217.605 125.99 217.605C125.858 217.6 125.732 217.545 125.64 217.45C125.548 217.356 125.495 217.23 125.492 217.098V183.846C125.492 183.712 125.546 183.583 125.641 183.488C125.736 183.392 125.865 183.339 126 183.339C126.223 183.339 148.736 183.045 169.127 172.955C169.204 172.915 169.289 172.895 169.376 172.895C169.462 172.895 169.548 172.915 169.624 172.955C169.696 173.001 169.755 173.064 169.795 173.139C169.836 173.213 169.858 173.297 169.858 173.382V207.597C169.86 207.692 169.836 207.785 169.787 207.866C169.739 207.946 169.668 208.012 169.584 208.054C156.868 214.359 142.862 217.628 128.669 217.605ZM126.507 216.59C141.157 216.973 155.681 213.808 168.843 207.364V174.224C150.147 183.248 129.928 184.232 126.507 184.374V216.59Z" fill="#14142B"/>
<path d="M136.15 197.832C136.102 199.469 136.384 201.098 136.978 202.624C137.571 204.15 138.465 205.541 139.606 206.715C140.747 207.889 142.112 208.822 143.62 209.46C145.128 210.097 146.748 210.426 148.385 210.426C150.023 210.426 151.643 210.097 153.151 209.46C154.659 208.822 156.024 207.889 157.165 206.715C158.306 205.541 159.199 204.15 159.793 202.624C160.387 201.098 160.668 199.469 160.621 197.832H148.33V185.602C145.095 185.618 141.999 186.913 139.717 189.205C137.435 191.496 136.152 194.598 136.15 197.832Z" fill="#6A96FF"/>
<path d="M150.359 183.795V196.036H162.539C162.539 192.8 161.258 189.696 158.976 187.402C156.693 185.108 153.595 183.811 150.359 183.795Z" fill="#EFF0F7"/>
<path d="M189.945 174.438C189.826 174.44 189.71 174.398 189.619 174.322C189.528 174.246 189.467 174.139 189.448 174.022C189.424 173.889 189.453 173.752 189.529 173.64C189.605 173.528 189.721 173.45 189.854 173.423C190.097 173.423 213.94 168.957 227.52 161.375C227.579 161.334 227.645 161.305 227.715 161.291C227.785 161.277 227.857 161.278 227.927 161.294C227.997 161.31 228.062 161.34 228.119 161.383C228.176 161.426 228.224 161.481 228.258 161.544C228.293 161.606 228.314 161.675 228.32 161.747C228.326 161.818 228.316 161.889 228.293 161.957C228.269 162.024 228.231 162.086 228.182 162.138C228.133 162.19 228.074 162.231 228.007 162.258C214.285 169.921 190.28 174.387 190.036 174.438H189.945Z" fill="#D9DBE9"/>
<path d="M189.946 183.43C189.811 183.443 189.677 183.401 189.574 183.314C189.47 183.228 189.405 183.103 189.393 182.969C189.381 182.834 189.422 182.7 189.509 182.596C189.596 182.493 189.72 182.428 189.855 182.415C190.098 182.365 213.94 177.939 227.521 170.357C227.579 170.316 227.646 170.287 227.716 170.273C227.786 170.259 227.858 170.261 227.928 170.276C227.998 170.292 228.063 170.323 228.12 170.366C228.177 170.409 228.225 170.463 228.259 170.526C228.294 170.589 228.315 170.658 228.321 170.729C228.327 170.8 228.317 170.872 228.294 170.939C228.27 171.007 228.232 171.068 228.183 171.12C228.134 171.172 228.074 171.213 228.008 171.24C214.286 178.914 190.281 183.37 190.037 183.42L189.946 183.43Z" fill="#D9DBE9"/>
<path d="M189.946 192.424C189.811 192.436 189.677 192.394 189.574 192.307C189.47 192.221 189.405 192.096 189.393 191.962C189.381 191.827 189.422 191.693 189.509 191.59C189.596 191.486 189.72 191.421 189.855 191.409C190.098 191.409 213.94 186.933 227.521 179.35C227.639 179.287 227.776 179.272 227.905 179.308C228.034 179.344 228.143 179.428 228.211 179.543C228.244 179.602 228.264 179.666 228.271 179.733C228.278 179.799 228.272 179.866 228.253 179.931C228.234 179.995 228.203 180.055 228.161 180.107C228.119 180.158 228.067 180.202 228.008 180.234C214.286 187.907 190.281 192.363 190.037 192.414L189.946 192.424Z" fill="#D9DBE9"/>
<path d="M189.946 201.416C189.811 201.428 189.677 201.386 189.574 201.3C189.47 201.213 189.405 201.089 189.393 200.954C189.381 200.82 189.422 200.686 189.509 200.582C189.596 200.478 189.72 200.413 189.855 200.401C196.785 199.057 203.639 197.346 210.388 195.275C210.517 195.237 210.656 195.25 210.776 195.313C210.895 195.376 210.985 195.482 211.027 195.61C211.066 195.738 211.052 195.876 210.989 195.994C210.926 196.111 210.82 196.2 210.692 196.24C203.903 198.313 197.008 200.024 190.037 201.365L189.946 201.416Z" fill="#D9DBE9"/>
<path d="M35.3698 97.1143C35.2821 97.1158 35.1955 97.0941 35.1188 97.0513C35.0421 97.0085 34.9782 96.9462 34.9334 96.8707C34.8663 96.7532 34.8479 96.6142 34.882 96.4833C34.9161 96.3524 35.0002 96.2401 35.1161 96.1704C41.9978 92.1104 56.0657 89.1364 56.6645 89.0146C56.7292 88.9997 56.7963 88.998 56.8617 89.0094C56.9271 89.0208 56.9895 89.0452 57.0453 89.0812C57.1011 89.1171 57.1492 89.1639 57.1866 89.2187C57.2241 89.2735 57.2502 89.3353 57.2634 89.4003C57.2784 89.4656 57.2802 89.5333 57.2689 89.5993C57.2576 89.6654 57.2333 89.7286 57.1975 89.7852C57.1616 89.8418 57.1149 89.8908 57.06 89.9292C57.0051 89.9677 56.9431 89.9949 56.8777 90.0093C56.7254 90.0093 42.3632 93.0543 35.6236 97.0534C35.5448 97.0928 35.458 97.1136 35.3698 97.1143Z" fill="#D9DBE9"/>
<path d="M35.3715 102.21C35.2607 102.209 35.1534 102.172 35.0658 102.104C34.9782 102.036 34.9153 101.942 34.8865 101.835C34.8578 101.728 34.8648 101.614 34.9066 101.512C34.9483 101.409 35.0225 101.323 35.1177 101.266C41.9994 97.2065 56.0673 94.2325 56.6662 94.1615C56.8008 94.1332 56.9411 94.1595 57.0562 94.2347C57.1714 94.3099 57.252 94.4278 57.2802 94.5624C57.3085 94.697 57.2821 94.8373 57.2069 94.9525C57.1318 95.0676 57.0139 95.1482 56.8793 95.1765C56.7271 95.1765 42.3648 98.2215 35.6252 102.221C35.5413 102.24 35.4536 102.237 35.3715 102.21Z" fill="#D9DBE9"/>
<path d="M35.3698 107.306C35.2813 107.305 35.1944 107.282 35.1178 107.237C35.0413 107.193 34.9777 107.129 34.9334 107.052C34.8663 106.935 34.8479 106.796 34.882 106.665C34.9161 106.534 35.0002 106.422 35.1161 106.352C41.9978 102.292 56.0657 99.3179 56.6645 99.2468C56.7962 99.2226 56.9321 99.2503 57.0437 99.3241C57.1554 99.3979 57.2341 99.5121 57.2634 99.6427C57.2783 99.7074 57.28 99.7744 57.2686 99.8398C57.2572 99.9052 57.2328 99.9676 57.1968 100.023C57.1609 100.079 57.1141 100.127 57.0593 100.165C57.0045 100.202 56.9427 100.228 56.8777 100.242C56.7254 100.242 42.3632 103.287 35.6236 107.286C35.5414 107.311 35.4549 107.317 35.3698 107.306Z" fill="#D9DBE9"/>
<path d="M35.3715 112.391C35.2607 112.39 35.1534 112.352 35.0658 112.285C34.9782 112.217 34.9153 112.122 34.8865 112.015C34.8578 111.908 34.8648 111.795 34.9066 111.692C34.9483 111.59 35.0225 111.503 35.1177 111.447C39.155 109.313 43.4263 107.654 47.8458 106.504C47.9804 106.466 48.1245 106.484 48.2463 106.552C48.3681 106.621 48.4577 106.735 48.4954 106.869C48.5331 107.004 48.5158 107.148 48.4472 107.27C48.3787 107.392 48.2646 107.481 48.13 107.519C43.8063 108.64 39.6245 110.251 35.6658 112.32C35.578 112.375 35.4747 112.4 35.3715 112.391Z" fill="#D9DBE9"/>
</svg>
